<svg width="171" height="169" viewBox="0 0 171 169" fill="none" xmlns="http://www.w3.org/2000/svg">
<path d="M162.293 40.3516C162.293 40.3516 158.855 48.0586 152.543 57.4531C152.543 57.4531 151.898 57.6641 150.773 57.9414C147.309 58.793 143.141 64.7187 135.199 62.6094C135.199 62.6094 134.922 82.4336 134.922 95.543C134.922 99.9844 128.863 101.758 128.152 103.973C126.957 107.703 125.352 108.754 125.352 108.754C125.352 108.754 134.98 108.375 141.027 119.355C147.066 130.332 150.844 144.719 146.691 148.504C142.535 152.293 135.141 131.121 131.019 126.547C127.816 122.996 113.891 119.02 112.512 121.812C105.887 135.25 108.168 164.219 98.3515 164.977C88.5312 165.73 97.9843 127.973 95.1406 124.277C93.3242 121.914 68.8593 120.762 64.7421 122.191C61.9882 123.148 60.4296 130.273 60.7734 133.172C61.4882 139.16 70.0273 147.18 69.8398 155.508C69.6484 163.836 47.1132 141.777 45.8593 134.688C45.414 132.18 45.2617 126.285 45.2617 126.285C45.2617 126.285 35.5781 129.793 34.6953 139.086C33.9336 147.141 44.3632 169.02 35.4726 167.812C28.7656 166.902 19.207 138.086 20.1523 135.055C21.0976 132.027 26.3007 124.066 27.164 119.355C27.4882 117.602 27.5586 115.922 27.4414 114.289C26.3164 98.7695 2.2148 90.0312 16.8789 69.6641C17.4882 68.8164 23.7968 66.1055 24.5351 65.4102C38.7382 51.9336 75.0898 65.3672 85.3203 64.6445C87.9921 64.457 91.3398 61.9609 94.9882 58.2422C106.051 46.9727 111.367 26.3516 117.758 22.793C117.758 22.793 126.012 18.8359 126.027 15.9766C126.051 10.7422 127.082 2.90234 132.715 0.472654C136.652 -1.21875 138.789 10.9219 138.191 16.7539H142.301C142.301 16.7539 142.305 5.6875 146.691 5.53906C150.043 5.42578 150.742 12.6016 149.711 18.6484C149.711 18.6484 159.281 24.4531 162.293 40.3516Z" fill="#876D61"/>
<path d="M139.637 142.117C143.344 151.863 146.691 148.504 146.691 148.504C150.555 145.457 147.859 137.5 147.859 137.5C145.531 141.285 139.637 142.117 139.637 142.117ZM93.7851 155.484C93.3945 165.254 97.6094 164.953 97.6094 164.953C102.727 165.785 104.812 156.797 104.812 156.797C98.6601 157.719 93.7851 155.484 93.7851 155.484ZM59.7226 152.199C66.4687 159.844 70.1992 157.684 70.1992 157.684C73.9297 154.793 67.5351 146.941 67.5351 146.941C64.0078 151.059 59.7226 152.199 59.7226 152.199ZM29.6406 161.965C29.6406 161.965 32.9531 170.816 38.0351 167.184C38.0351 167.184 40.2695 165.824 38.2969 157.684C38.2969 157.684 35.3008 161.148 29.6406 161.965ZM153.207 22.5156C157.43 9.96094 138.039 14.7617 138.039 14.7617V18.6016C144.672 26.5937 151.953 26.2344 153.207 22.5156ZM170.105 48.9336C167.988 44.3555 162.293 40.3516 162.293 40.3516C162.293 40.3516 152.359 44.1211 152.543 57.4531C156.371 60.75 161.707 61.7031 165.762 60.293C169.906 58.8516 172.008 53.0547 170.105 48.9336ZM94.9883 58.2422C106.051 46.9727 119.91 24.4766 126.297 20.918C126.297 20.918 126.012 18.8359 126.027 15.9766C97.9258 19 94.9922 58.207 94.9883 58.2422ZM131.348 58.1641C131.348 58.1641 129.426 81.0469 129.426 94.1602C129.426 98.6016 128.859 101.758 128.152 103.973C130.988 106.848 137.645 110.199 144.426 104.066C149.969 99.0508 144.426 94.4141 144.426 94.4141C144.426 94.4141 143.461 98.7969 141.168 96.4023C137.762 92.8477 143.379 87.6133 147.543 81.6562C151.621 75.8281 154.863 64.4687 150.773 57.9414C147.312 58.793 139.293 60.2695 131.348 58.1641ZM27.4414 114.293C27.2773 114.973 27.1172 115.609 26.9609 116.191C22.9258 131.41 10.0117 133.52 4.5078 130.617C-0.304705 128.078 2.09764 122.383 2.09764 122.383C2.09764 122.383 7.43358 126.805 10.9648 121.816C14.125 117.367 10.5039 109.984 7.42576 103.738C-5.08595 78.332 -1.08986 62.0547 14.2773 61.4766C18.7031 61.3086 22.2734 63.168 24.5351 65.4102C23.8008 66.1094 23.125 66.875 22.5117 67.7227C7.84764 88.0898 26.3125 98.7695 27.4414 114.293Z" fill="#514236"/>
<path d="M138.094 44.3711C137.293 43.5391 134.668 43.8945 133.695 44.3242C131.855 45.1328 131.961 47.4297 133.816 48.1172C134.965 48.543 136.754 48.4805 137.832 47.8711C139.09 47.1602 139.766 45.0938 138.094 44.3711ZM134.668 15.25C134.535 14.0898 134.117 9.79297 132.191 10.2266C130.473 10.6133 130.062 14.9727 130 16.2109C129.891 18.3477 129.969 19.3477 132.223 19.3555C134.883 19.3633 134.922 17.4609 134.668 15.25ZM36.4375 74.4141C36.1523 74.4141 35.9023 74.5039 35.6796 74.6289C35.4609 74.7539 35.2695 74.9219 35.1132 75.1133C34.9531 75.3086 34.8281 75.5312 34.7539 75.7734C34.6796 76.0156 34.6406 76.2734 34.7031 76.5547C34.7109 76.5859 34.7265 76.6211 34.7421 76.6523C34.8437 76.8359 35.0742 76.9023 35.2578 76.8047L35.2812 76.7891C35.5117 76.6641 35.6679 76.5313 35.8164 76.3945C35.957 76.2578 36.082 76.1172 36.1914 75.9648C36.3046 75.8125 36.4062 75.6523 36.5 75.4766C36.5898 75.293 36.6796 75.0977 36.7461 74.8398L36.75 74.8203C36.7578 74.7969 36.7617 74.7695 36.7617 74.7422C36.7617 74.5625 36.6171 74.4141 36.4375 74.4141ZM29.1015 81.3555L29.0937 81.3359C29.0898 81.3242 29.0781 81.3125 29.0742 81.2969C28.9726 81.1367 28.7656 81.0859 28.6054 81.1875C28.3789 81.3242 28.2343 81.5078 28.1211 81.7031C28.0117 81.8984 27.9453 82.1094 27.914 82.3242C27.8828 82.543 27.8906 82.7617 27.9414 82.9805C27.9961 83.1953 28.0859 83.4102 28.2656 83.6016C28.2812 83.6172 28.2968 83.6328 28.3164 83.6445C28.4921 83.7773 28.7421 83.7422 28.8711 83.5664L28.8867 83.5469C29.0351 83.3516 29.1093 83.1758 29.1718 83C29.2265 82.8281 29.2656 82.6602 29.2773 82.4922C29.2929 82.3203 29.289 82.1484 29.2695 81.9609C29.2421 81.7773 29.2031 81.582 29.1015 81.3555ZM31.2226 74.4414C30.9179 74.5156 30.6679 74.668 30.4492 74.8516C30.2304 75.0352 30.0468 75.25 29.9023 75.4922C29.7578 75.7305 29.6484 75.9961 29.5898 76.2734C29.5312 76.5508 29.5117 76.8438 29.5898 77.1445C29.6015 77.1953 29.625 77.2422 29.6601 77.2852C29.7851 77.4414 30.0156 77.4648 30.1718 77.3359L30.1875 77.3281C30.414 77.1445 30.5703 76.957 30.7148 76.7656C30.8554 76.5781 30.9804 76.3867 31.0898 76.1875C31.1992 75.9883 31.3007 75.7812 31.3867 75.5586C31.4726 75.332 31.5546 75.0977 31.6015 74.8047V74.7891C31.6093 74.75 31.6054 74.7109 31.5976 74.668C31.5586 74.5039 31.3867 74.3984 31.2226 74.4414ZM38.1054 68.8438C37.707 68.8203 37.332 68.8867 36.9687 68.9883C36.6093 69.0898 36.2617 69.2383 35.9375 69.4219C35.6132 69.6016 35.3086 69.8242 35.0312 70.0781C34.7578 70.3359 34.5078 70.625 34.3281 70.9805C34.2929 71.0508 34.2812 71.1328 34.3007 71.2148C34.3437 71.3984 34.5312 71.5117 34.7109 71.4688H34.7187C35.0898 71.375 35.414 71.2383 35.7265 71.0938C36.039 70.9492 36.3359 70.7891 36.625 70.6133C36.914 70.4414 37.1992 70.2539 37.4804 70.0469C37.7578 69.8398 38.0312 69.6211 38.2968 69.3359L38.3007 69.332C38.3437 69.2852 38.3711 69.2227 38.375 69.1523C38.3867 68.9922 38.2656 68.8555 38.1054 68.8438ZM156.461 34.6875C156.352 34.4531 156.219 34.2344 156.055 34.0234C155.887 33.8164 155.699 33.6211 155.437 33.457C155.402 33.4336 155.363 33.418 155.32 33.4102C155.148 33.3828 154.988 33.5 154.961 33.6758C154.914 33.9805 154.937 34.25 154.984 34.5117C155.031 34.7734 155.109 35.0195 155.211 35.2578C155.312 35.4922 155.441 35.7188 155.598 35.9297C155.754 36.1406 155.934 36.3398 156.191 36.5078C156.234 36.5352 156.285 36.5586 156.34 36.5625C156.543 36.5938 156.73 36.4492 156.758 36.25C156.801 35.9453 156.769 35.6797 156.715 35.418C156.66 35.1641 156.574 34.918 156.461 34.6875ZM160.125 38.1289C160.09 37.8164 160.027 37.5117 159.937 37.2148C159.848 36.918 159.73 36.625 159.586 36.3438C159.437 36.0664 159.266 35.793 159.019 35.5391C158.98 35.5 158.93 35.4727 158.871 35.457C158.711 35.4219 158.551 35.5234 158.512 35.6836C158.437 36.0313 158.434 36.3516 158.457 36.6719C158.48 36.9844 158.535 37.293 158.617 37.5938C158.695 37.8945 158.805 38.1836 158.941 38.4688C159.082 38.75 159.246 39.0273 159.488 39.2773C159.535 39.3281 159.598 39.3633 159.672 39.3828C159.859 39.4219 160.047 39.3008 160.086 39.1094C160.16 38.7656 160.152 38.4414 160.125 38.1289ZM156.012 29.1523C155.781 28.7852 155.531 28.4297 155.246 28.0938C154.965 27.7539 154.664 27.4336 154.293 27.1484C154.23 27.1055 154.152 27.082 154.07 27.0977C153.918 27.125 153.816 27.2695 153.844 27.4258C153.926 27.8828 154.074 28.3047 154.25 28.707C154.418 29.1133 154.621 29.5 154.84 29.875C155.062 30.2461 155.309 30.6094 155.586 30.9492C155.855 31.2891 156.152 31.6172 156.519 31.9023C156.594 31.957 156.687 31.9844 156.785 31.9688C156.969 31.9336 157.086 31.7578 157.051 31.5781C156.965 31.1211 156.809 30.707 156.629 30.3047C156.453 29.9023 156.242 29.5234 156.012 29.1523ZM118.207 38.7227C117.965 38.7578 117.781 38.8398 117.621 38.9414C117.465 39.0469 117.328 39.168 117.215 39.3086C117.102 39.4492 117.008 39.6094 116.941 39.7891C116.871 39.9727 116.824 40.168 116.836 40.4141C116.836 40.4219 116.836 40.4297 116.836 40.4375C116.859 40.6367 117.039 40.7773 117.234 40.7578C117.48 40.7266 117.668 40.6484 117.836 40.5547C118 40.457 118.141 40.3359 118.262 40.2031C118.383 40.0664 118.484 39.9141 118.559 39.7422C118.633 39.5625 118.687 39.3711 118.68 39.1289C118.68 39.1133 118.68 39.1016 118.676 39.0859C118.644 38.8555 118.434 38.6914 118.207 38.7227ZM119.41 33.5781C119.074 33.6328 118.789 33.7695 118.527 33.9375C118.269 34.1055 118.039 34.3086 117.836 34.5391C117.637 34.7734 117.465 35.0313 117.328 35.3125C117.199 35.5938 117.102 35.8984 117.086 36.2383C117.082 36.2891 117.094 36.3398 117.117 36.3867C117.191 36.5352 117.375 36.5977 117.523 36.5234L117.527 36.5195C117.82 36.375 118.051 36.1992 118.266 36.0234C118.48 35.8477 118.676 35.6602 118.859 35.4648C119.043 35.2656 119.211 35.0586 119.371 34.8359C119.531 34.6055 119.68 34.3672 119.797 34.0664L119.801 34.0547C119.824 33.9961 119.828 33.9336 119.82 33.8711C119.789 33.6758 119.605 33.543 119.41 33.5781ZM114.785 38.7383C114.344 39 113.969 39.3203 113.629 39.6758C113.285 40.0234 112.977 40.4063 112.703 40.8125C112.43 41.2148 112.184 41.6406 111.984 42.0898C111.781 42.5391 111.613 43.0039 111.531 43.5078C111.519 43.5898 111.539 43.6758 111.598 43.7383C111.699 43.8555 111.875 43.8672 111.988 43.7656V43.7617C112.367 43.4297 112.68 43.0742 112.98 42.7109C113.281 42.3477 113.559 41.9766 113.832 41.5977C114.102 41.2188 114.359 40.832 114.598 40.4297C114.84 40.0273 115.07 39.6133 115.254 39.1484L115.258 39.1445C115.293 39.0547 115.289 38.9492 115.234 38.8594C115.141 38.7031 114.941 38.6484 114.785 38.7383ZM125.59 90.125C125.75 90.2266 125.961 90.1797 126.062 90.0195C126.277 89.6797 126.41 89.3281 126.519 88.9766C126.625 88.6172 126.699 88.2617 126.746 87.8945C126.793 87.5352 126.812 87.168 126.805 86.7969C126.793 86.4219 126.754 86.0469 126.637 85.6602C126.621 85.5977 126.578 85.5391 126.519 85.5C126.383 85.4141 126.207 85.4492 126.117 85.5859C125.898 85.9258 125.758 86.2734 125.641 86.625C125.527 86.9805 125.441 87.3398 125.387 87.6992C125.328 88.0625 125.301 88.4258 125.301 88.7969C125.305 89.168 125.336 89.543 125.445 89.9297C125.469 90.0078 125.516 90.0781 125.59 90.125ZM121.644 101.52C121.957 101.34 122.191 101.09 122.391 100.82C122.59 100.551 122.746 100.254 122.859 99.9375C122.973 99.625 123.043 99.2969 123.066 98.9609C123.082 98.625 123.059 98.2813 122.941 97.9414C122.922 97.8906 122.891 97.8398 122.844 97.8047C122.715 97.7031 122.527 97.7266 122.426 97.8594L122.422 97.8633C122.211 98.1328 122.062 98.3984 121.926 98.6641C121.793 98.9258 121.676 99.1875 121.57 99.4531C121.465 99.7188 121.375 99.9844 121.293 100.266C121.215 100.551 121.144 100.84 121.121 101.18V101.191C121.113 101.258 121.129 101.328 121.168 101.391C121.262 101.559 121.477 101.617 121.644 101.52ZM122.797 104.578C122.48 104.699 122.223 104.871 121.98 105.059C121.746 105.246 121.535 105.457 121.344 105.684C121.152 105.906 120.984 106.152 120.84 106.414C120.695 106.68 120.57 106.961 120.512 107.297C120.5 107.359 120.504 107.43 120.531 107.492C120.605 107.676 120.812 107.766 120.992 107.691C121.309 107.566 121.559 107.391 121.789 107.195C122.019 107.004 122.223 106.789 122.406 106.555C122.59 106.324 122.754 106.074 122.891 105.805C123.027 105.535 123.144 105.246 123.203 104.91C123.211 104.859 123.207 104.805 123.187 104.754C123.129 104.598 122.953 104.516 122.797 104.578ZM126.629 95.0781C126.598 95.0039 126.535 94.9414 126.457 94.9141C126.309 94.8672 126.152 94.9453 126.105 95.0938H126.102C125.949 95.5664 125.852 96.0156 125.758 96.4648C125.656 96.9141 125.574 97.3555 125.492 97.8008C125.414 98.2422 125.332 98.6875 125.269 99.1367C125.199 99.5898 125.137 100.043 125.117 100.535V100.543C125.117 100.641 125.156 100.738 125.234 100.805C125.375 100.922 125.582 100.902 125.699 100.766C126.027 100.375 126.266 99.9297 126.449 99.4688C126.641 99.0078 126.769 98.5234 126.848 98.0352C126.926 97.543 126.957 97.043 126.922 96.5469C126.894 96.0508 126.812 95.5547 126.629 95.0781ZM100.074 62.9609C99.7578 62.9766 99.4882 63.0625 99.2304 63.168C98.9765 63.2734 98.7382 63.4102 98.5156 63.5664C98.2968 63.7227 98.0898 63.9023 97.8984 64.1094C97.7148 64.3164 97.539 64.543 97.4101 64.8359C97.3906 64.8789 97.3828 64.9258 97.3828 64.9727C97.3906 65.1445 97.5351 65.2773 97.707 65.2734C98.0234 65.2578 98.3007 65.1797 98.5625 65.082C98.8203 64.9805 99.0625 64.8555 99.289 64.707C99.5156 64.5586 99.7265 64.3867 99.9218 64.1875C100.113 63.9883 100.293 63.7656 100.426 63.4766C100.449 63.4258 100.461 63.3672 100.457 63.3047C100.445 63.1055 100.273 62.9492 100.074 62.9609ZM86.5742 72.5508L86.5312 72.543C86.2929 72.4844 86.1132 72.4609 85.9453 72.4492C85.7773 72.4414 85.6211 72.4414 85.4648 72.457C85.3125 72.4688 85.1562 72.4961 84.9882 72.5352C84.8164 72.5742 84.6328 72.6211 84.4023 72.7109L84.3671 72.7227C84.3515 72.7305 84.332 72.7383 84.3164 72.75C84.164 72.8438 84.1132 73.043 84.207 73.1992C84.3554 73.4414 84.5703 73.5938 84.8046 73.6992C85.039 73.7969 85.2929 73.8438 85.5468 73.832C85.8007 73.8242 86.0507 73.7578 86.2734 73.6367C86.4961 73.5156 86.7031 73.3438 86.8242 73.0898C86.8359 73.0664 86.8437 73.043 86.8515 73.0156C86.9062 72.8125 86.7812 72.6055 86.5742 72.5508ZM78.375 71.9766L78.3593 71.9688C78.1132 71.8281 77.8867 71.7539 77.664 71.6914C77.4414 71.6328 77.2226 71.5898 77.0039 71.5664C76.7851 71.5391 76.5625 71.5313 76.3281 71.5352C76.0937 71.543 75.8515 71.5586 75.5703 71.6289L75.5586 71.6328C75.5234 71.6445 75.4843 71.6602 75.4531 71.6836C75.3125 71.7813 75.2812 71.9805 75.3789 72.1211C75.5586 72.3711 75.789 72.543 76.0351 72.6758C76.2812 72.8047 76.5468 72.8906 76.8164 72.9336C77.0859 72.9766 77.3632 72.9727 77.6367 72.9258C77.9101 72.8711 78.1757 72.7813 78.4218 72.5898C78.457 72.5625 78.4921 72.5234 78.5156 72.4805C78.6171 72.3008 78.5546 72.0781 78.375 71.9766ZM76.0078 67.5313C76.0703 67.3594 75.9804 67.1719 75.8086 67.1055C75.3593 66.9414 74.9218 66.8438 74.4843 66.7656C74.0468 66.6836 73.6093 66.625 73.1718 66.582C72.7343 66.5391 72.2929 66.5078 71.8437 66.5C71.3984 66.4922 70.9453 66.4961 70.4726 66.5625H70.4687C70.3906 66.5742 70.3203 66.6172 70.2734 66.6875C70.1914 66.8164 70.2265 66.9922 70.3593 67.0742C70.7695 67.3398 71.207 67.5195 71.6523 67.6602C72.0976 67.8008 72.5586 67.8945 73.0195 67.9531C73.4804 68.0078 73.9492 68.0273 74.414 67.9922C74.8828 67.9648 75.3476 67.8945 75.8086 67.7305C75.8945 67.6992 75.9726 67.6289 76.0078 67.5313ZM92.3203 66.7266H92.3164C91.9062 66.8047 91.5351 66.9414 91.1757 67.0859C90.8164 67.2344 90.4726 67.4023 90.1367 67.5859C89.8007 67.7656 89.4726 67.9648 89.1484 68.1836C88.8281 68.4063 88.5117 68.6406 88.2109 68.9414V68.9453C88.1601 68.9961 88.1289 69.0625 88.1289 69.1406C88.125 69.2969 88.25 69.4297 88.4062 69.4297C88.8398 69.4414 89.2461 69.3633 89.6445 69.2539C90.0351 69.1406 90.414 68.9883 90.7773 68.8047C91.1367 68.6211 91.4804 68.4023 91.8046 68.1484C92.1211 67.8906 92.4179 67.6055 92.664 67.2461C92.7109 67.1758 92.7304 67.0859 92.7148 66.9961C92.6796 66.8125 92.5039 66.6914 92.3203 66.7266ZM82.7695 68.4375C82.5547 68.3477 82.332 68.2891 82.1054 68.2578C81.8828 68.2305 81.6523 68.2227 81.4179 68.25C81.1836 68.2813 80.9453 68.332 80.6953 68.4648C80.6679 68.4766 80.6406 68.4961 80.6171 68.5195C80.4882 68.6445 80.4843 68.8555 80.6093 68.9844C80.8086 69.1875 81.0195 69.3125 81.2343 69.4141C81.4453 69.5117 81.6679 69.5781 81.8906 69.6211C82.1132 69.6602 82.3437 69.6758 82.5742 69.6563C82.8086 69.6367 83.0468 69.5898 83.2929 69.4648C83.332 69.4453 83.3672 69.4219 83.3945 69.3906C83.5429 69.2422 83.5429 68.9961 83.3945 68.8477C83.1953 68.6484 82.9843 68.5313 82.7695 68.4375ZM25.7578 84.7656C25.6796 84.5547 25.5781 84.3437 25.3984 84.1367C25.3828 84.1172 25.3593 84.0977 25.3398 84.082C25.1875 83.9766 24.9765 84.0156 24.8711 84.168C24.7148 84.3906 24.6367 84.6133 24.5859 84.832C24.5312 85.0508 24.5117 85.2695 24.5195 85.4844C24.5273 85.7031 24.5586 85.9141 24.6289 86.1289C24.6953 86.3438 24.789 86.5547 24.9648 86.7578C24.9882 86.7852 25.0156 86.8086 25.0429 86.832C25.2226 86.9531 25.4648 86.9063 25.5859 86.7266C25.7382 86.5 25.8086 86.2812 25.8554 86.0625C25.8984 85.8438 25.9101 85.625 25.8906 85.4102C25.875 85.1953 25.832 84.9805 25.7578 84.7656ZM43.1211 63.7031C42.6211 63.5156 42.1015 63.4453 41.5781 63.4414C41.0546 63.4336 40.5351 63.5039 40.0312 63.6328C39.5273 63.7656 39.0351 63.9531 38.582 64.2109C38.125 64.4648 37.6992 64.7773 37.3515 65.1797C37.3007 65.2422 37.2734 65.3281 37.289 65.4141C37.3203 65.5625 37.4648 65.6641 37.6132 65.6328H37.6171C38.1171 65.5352 38.5703 65.4141 39.0195 65.3008L40.3593 64.9727L41.6992 64.6641C42.1523 64.5625 42.6093 64.4648 43.0898 64.3281L43.0976 64.3242C43.1914 64.2969 43.2734 64.2227 43.3086 64.125C43.375 63.957 43.289 63.7656 43.1211 63.7031ZM25.664 75.1445C25.2695 75.2891 24.9336 75.5273 24.6328 75.7969C24.3359 76.0664 24.0742 76.3789 23.8593 76.7227C23.6445 77.0586 23.4726 77.4258 23.3515 77.8125C23.2343 78.1992 23.1601 78.6016 23.1914 79.0234C23.1953 79.0937 23.2226 79.1562 23.2734 79.2109C23.3867 79.3203 23.5703 79.3203 23.6796 79.207L23.6836 79.1992C23.9648 78.9141 24.1875 78.625 24.4023 78.3398C24.6171 78.0508 24.8164 77.7656 25.0117 77.4727C25.207 77.1836 25.3945 76.8906 25.5781 76.5859C25.7578 76.2773 25.9375 75.9648 26.0898 75.5977L26.0937 75.5898C26.125 75.5156 26.1289 75.4258 26.0976 75.3438C26.0351 75.168 25.8398 75.0781 25.664 75.1445ZM31.9921 67.1758C32.0039 67.2734 31.9726 67.3672 31.914 67.4375L31.9101 67.4414C31.6171 67.7852 31.3086 68.0664 30.9961 68.3398C30.6836 68.6094 30.3632 68.8672 30.039 69.1172C29.7148 69.3672 29.3867 69.6094 29.0429 69.8438C28.6992 70.0781 28.3476 70.3086 27.9414 70.5078L27.9375 70.5117C27.7968 70.582 27.6289 70.5234 27.5586 70.3828C27.5234 70.3125 27.5234 70.2305 27.5507 70.1602C27.7148 69.7188 27.9609 69.3359 28.2382 68.9844C28.5195 68.6328 28.8437 68.3125 29.1914 68.0352C29.539 67.75 29.9179 67.5078 30.3242 67.3086C30.7265 67.1133 31.1523 66.9531 31.6171 66.8906C31.7968 66.8672 31.9648 66.9961 31.9921 67.1758Z" fill="#E1CCC1"/>
<path d="M164.852 49.3672C164.797 49.2461 164.734 49.125 164.672 49.0078C164.609 48.8867 164.539 48.7695 164.449 48.6641C164.133 48.2148 163.66 47.8555 163.141 47.6133C162.617 47.3711 162.031 47.2813 161.481 47.3398C160.922 47.3984 160.414 47.5781 159.969 47.9453C159.906 47.9961 159.863 48.0625 159.848 48.1445C159.816 48.332 159.938 48.5078 160.117 48.543L160.199 48.5586C160.629 48.6406 161.051 48.6992 161.414 48.8008C161.785 48.8945 162.117 49.0117 162.43 49.168C162.512 49.1953 162.582 49.25 162.66 49.2891C162.738 49.3281 162.816 49.3672 162.891 49.4219C162.965 49.4688 163.043 49.5195 163.121 49.5625C163.195 49.6211 163.274 49.6758 163.352 49.7305L163.473 49.8086C163.512 49.8438 163.547 49.875 163.586 49.9063C163.664 49.9688 163.746 50.0313 163.832 50.0898C164.004 50.2227 164.156 50.3711 164.367 50.5L164.43 50.5391C164.508 50.5859 164.602 50.6094 164.699 50.5938C164.922 50.5664 165.082 50.3555 165.051 50.1328C165.016 49.8711 164.945 49.6172 164.852 49.3672ZM145.289 40.1992C145.481 40.7852 145.535 41.3633 145.539 41.9258C145.527 42.4883 145.473 43.0234 145.324 43.5742C145.266 43.7891 145.051 43.9102 144.84 43.8555C144.684 43.8125 144.574 43.6797 144.551 43.5313L144.547 43.5039C144.406 42.5313 144.227 41.5195 143.859 40.75C143.672 40.3711 143.449 40.0742 143.199 39.9219C142.953 39.7734 142.664 39.7109 142.285 39.7422C142.098 39.7539 141.891 39.8125 141.684 39.8594C141.578 39.875 141.484 39.9141 141.391 39.9492C141.297 39.9883 141.195 40.0117 141.106 40.0547C140.738 40.2148 140.438 40.4648 140.156 40.7578C139.609 41.3594 139.285 42.3008 139.133 43.2461L139.125 43.2813C139.094 43.4648 138.926 43.5859 138.742 43.5547C138.609 43.5352 138.512 43.4375 138.477 43.3125C138.324 42.7422 138.309 42.1875 138.367 41.6016C138.445 41.0234 138.629 40.4297 138.973 39.8984C139.305 39.3633 139.793 38.9102 140.348 38.5898C140.484 38.5078 140.629 38.457 140.774 38.3906C140.918 38.3242 141.063 38.2617 141.211 38.2266C141.504 38.1445 141.797 38.0625 142.125 38.0273C142.457 38.0039 142.801 38 143.16 38.0859C143.512 38.1719 143.867 38.3203 144.168 38.543C144.758 39 145.117 39.6172 145.289 40.1992Z" fill="#28211C"/>
</svg>
