<svg width="164" height="97" viewBox="0 0 164 97" fill="none" xmlns="http://www.w3.org/2000/svg">
<path d="M112.211 82.1719C111.809 84.6367 110.309 87.4883 109.219 90.2929C107.133 95.6523 104.816 97.6758 103.828 90.8125C96.8086 96.7929 97.7735 90.8711 98.8282 85.4883C91.7618 86.6601 84.5039 87.0508 77.5899 86.7578C70.9336 86.4765 62.9766 85.7812 54.8477 84.4883C54.8985 86.2304 54.8164 88.1094 54.8594 89.9179C55 95.664 53.6407 98.4219 50.0821 92.4609C44.9649 102.52 44.0313 91.4844 42.6836 86.0547C42.2618 84.3398 41.9258 82.9648 41.7852 81.8633C38.7657 81.1094 35.8086 80.2539 32.9805 79.289C30.9961 78.6133 27.0938 81.1562 25.2539 80.3711C23.2188 79.4961 23.2657 75.2812 21.461 74.2617C12.4727 69.1875 6.70316 62.2344 7.69535 52.8086C8.73051 42.9492 7.77738 45.8359 12.4493 40.1679C14.0469 38.2265 15.1641 35.9492 16.1446 33.5586C17.8008 29.5312 14.7696 24.3437 17.2578 20.8203C20.4336 16.3164 28.5899 13.5625 32.918 10.7109C41.7227 4.90623 52.4454 2.20701 63.1914 1.3906C89.7149 -0.632833 129.41 -0.246115 140.637 27.1797C140.781 27.5351 141.938 27.8789 142.074 28.2422C142.188 28.5469 141.281 28.875 141.391 29.1836C142.094 31.2383 142.645 33.4297 143.035 35.7695C145.805 52.5195 140.031 64.5547 129.981 72.7148C128.129 74.2187 128.313 79.3242 126.195 80.5703C124.695 81.457 120.953 78.5469 119.344 79.3047C117.059 80.3828 114.672 81.3398 112.211 82.1719Z" fill="#FADCEB"/>
<path d="M22.2578 37.5117C22.2578 38.918 20.8008 40.0586 19 40.0586C17.2032 40.0586 15.7422 38.918 15.7422 37.5117C15.7422 36.1016 17.2032 34.9609 19 34.9609C20.8008 34.9609 22.2578 36.1016 22.2578 37.5117ZM53.3828 40.0586C53.3828 41.6484 51.2578 42.9375 48.6368 42.9375C46.0157 42.9375 43.8907 41.6484 43.8907 40.0586C43.8907 38.4727 46.0157 37.1836 48.6368 37.1836C51.2578 37.1836 53.3828 38.4727 53.3828 40.0586ZM12.4453 61.5625C10.4766 62.1719 5.69144 61.7969 3.68753 61.1914C1.42972 60.5078 0.855501 58.9883 0.543001 56.75C-0.0937177 52.168 1.24222 46.4258 4.9805 43.4609C7.95316 41.0977 15.0274 42.2774 16.1133 46.7109C17.3438 51.7539 19.0274 59.5117 12.4453 61.5625ZM67.3946 41.168C58.418 40.9766 54.668 38.3399 55.1368 29.1836C55.5039 21.9883 56.1641 8.08204 66.1875 12.8086C73.875 16.4297 75.7071 27.1055 82.2305 32.3516C89.1758 37.9336 70.3242 41.2305 67.3946 41.168ZM12.0118 18.2852C18.8868 14.7266 25.8555 9.75001 32.918 10.7109C32.9219 10.7109 32.9219 10.7109 32.9258 10.7149C28.5938 13.5664 24.7266 17.168 21.5469 21.668C19.0586 25.1953 17.8008 29.5313 16.1446 33.5586C12.5313 33.6758 8.9805 32.7344 6.14066 30.4492C-1.29684 24.4766 5.80863 21.4922 12.0118 18.2852ZM132.156 79.7305C133.891 85.2149 133.352 88.2422 128.273 83.4961C126.152 94.5703 122.188 84.2266 119.387 79.375C119.371 79.3516 119.359 79.3281 119.344 79.3047C123.227 77.4766 126.813 75.2852 129.98 72.7149C130.852 74.7656 131.406 77.3516 132.156 79.7305ZM21.461 74.2578C24.8985 76.1992 28.8008 77.8633 32.9805 79.2891C32.1172 81.7383 29.7657 84.3242 27.8868 86.9727C24.5547 91.668 21.8125 93.0703 22.5274 86.1719C12.3985 91.1953 18.2578 81.7891 20.4336 76.6328C20.8086 75.7422 21.1446 74.9531 21.461 74.2578ZM155.297 16.4883C155.09 16.4258 154.883 16.3477 154.695 16.2461C153.891 15.8086 152.578 14.2539 152.797 13.1641C153.082 11.7422 154.363 12.1836 154.504 12.2969C155.207 12.707 155.375 13.5938 155.43 14.3281C155.484 15.0391 155.43 15.7774 155.297 16.4883ZM147.402 22.4922C146.117 22.1914 145.023 21.4649 144.785 20.1797C144.453 18.3789 146.934 17.4531 147.777 19.1484C148.277 20.1602 147.777 21.5195 147.402 22.4922ZM163.91 11.6211C163.734 10.418 162.188 10.4727 161.871 11.5586C161.281 13.5859 160.742 15.4688 158.543 16.3125C158.137 16.4688 157.68 16.5781 157.211 16.6328C157.66 14.1836 157.273 11.6211 154.945 10.2109C152.664 8.83204 150.875 11.1875 151.375 13.4063C151.793 15.2774 153.211 16.9336 154.961 17.8086C154.313 19.75 153.016 21.5 151.059 22.2852C150.648 22.4492 150.156 22.5625 149.641 22.6172C149.777 22.0899 149.879 21.5664 149.938 21.0625C150.23 18.5703 148.816 16.0352 146.047 16.1563C143.512 16.2656 141.914 19.0469 143.25 21.2578C143.969 22.4414 145.398 23.2031 146.934 23.5781C146.211 25.0586 145.145 26.4219 143.5 26.8711C142.652 27.1016 141.641 27.2109 140.629 27.1836C140.902 27.8477 141.16 28.5234 141.395 29.2188C142.715 29.3047 144.059 29.2109 145.27 28.6602C147.145 27.8047 148.484 25.8867 149.25 23.8516C149.816 23.8477 150.355 23.7969 150.832 23.6875C153.594 23.0547 155.781 21 156.742 18.3867C157.203 18.4609 157.668 18.4844 158.133 18.4375C161.352 18.1133 164.406 14.9609 163.91 11.6211Z" fill="#DCA7C1"/>
<path d="M29.9258 64.1445L29.875 64.1718C29.6328 64.3164 29.4023 64.4648 29.1797 64.6133C28.9453 64.7578 28.75 64.9453 28.5039 65.0508C28.0352 65.3047 27.6016 65.5937 27.1211 65.7773C26.1953 66.2304 25.2109 66.4843 24.2188 66.625C23.2188 66.7656 22.1914 66.7656 21.1523 66.6328C20.1172 66.4961 19.0547 66.2422 18.0273 65.9297L17.9883 65.9179C17.8516 65.875 17.6992 65.914 17.6016 66.0273C17.4688 66.1797 17.4844 66.4101 17.6367 66.5429C18.5664 67.3437 19.6445 67.8672 20.8086 68.2148C21.9727 68.5547 23.2266 68.6718 24.4648 68.5117L24.9258 68.4531C25.0781 68.4297 25.2305 68.3828 25.3828 68.3476C25.6797 68.2617 25.9883 68.207 26.2773 68.0898L27.1328 67.7265C27.4258 67.6133 27.6719 67.4258 27.9375 67.2656C28.4805 66.9687 28.918 66.539 29.3711 66.1445C29.4805 66.0468 29.5898 65.9375 29.6797 65.8203C29.7773 65.7031 29.875 65.5937 29.9648 65.4726C30.1523 65.2422 30.3359 65.0078 30.5039 64.7656C30.5977 64.6328 30.6094 64.4492 30.5195 64.2968C30.3984 64.0937 30.1328 64.0234 29.9258 64.1445ZM20.9453 34.3164C21.1445 34.3593 21.3398 34.2304 21.3789 34.0312L21.3906 33.9843C21.5703 33.0859 21.8984 32.1914 22.4258 31.6484C22.6875 31.375 22.9805 31.164 23.3164 31.0117C23.3984 30.9726 23.4961 30.9492 23.582 30.914C23.6719 30.8828 23.7578 30.8437 23.8594 30.832C24.0547 30.7929 24.25 30.7383 24.4219 30.7265C24.7695 30.6992 25.0195 30.7539 25.2305 30.875C25.4414 31.0078 25.6602 31.2617 25.8359 31.6211C26.1992 32.332 26.3867 33.3047 26.5547 34.2343L26.5586 34.2656C26.5898 34.4258 26.7031 34.5586 26.8672 34.6093C27.1016 34.6797 27.3477 34.5468 27.4141 34.3125C27.5781 33.7773 27.6367 33.2578 27.6562 32.7031C27.6602 32.1562 27.6172 31.5898 27.4336 31.0078C27.2578 30.4336 26.9141 29.8086 26.3047 29.3515C26.0039 29.125 25.6406 28.9765 25.2852 28.8906C24.9219 28.8047 24.5742 28.8086 24.2422 28.832C23.9141 28.8672 23.625 28.9492 23.332 29.0312C23.1836 29.0625 23.0391 29.1289 22.8984 29.1914C22.7539 29.2578 22.6094 29.3086 22.4727 29.3906C21.918 29.7031 21.4375 30.1679 21.1016 30.6953C20.7656 31.2265 20.5937 31.8164 20.5234 32.3828C20.4727 32.9609 20.5 33.5 20.6641 34.0625C20.7031 34.1875 20.8047 34.2929 20.9453 34.3164ZM47.9961 31.8047C47.8203 31.2304 47.4766 30.6054 46.8711 30.1484C46.5664 29.9218 46.207 29.7734 45.8477 29.6875C45.4844 29.6015 45.1367 29.6054 44.8086 29.6289C44.4766 29.664 44.1875 29.7461 43.8945 29.8281C43.75 29.8593 43.6055 29.9258 43.4609 29.9883C43.3164 30.0547 43.1719 30.1054 43.0352 30.1875C42.4805 30.5 42 30.9648 41.668 31.4922C41.332 32.0234 41.1562 32.6133 41.0898 33.1797C41.0352 33.7578 41.0625 34.2968 41.2266 34.8593C41.2656 34.9843 41.3711 35.0859 41.5078 35.1172C41.7109 35.1562 41.9023 35.0273 41.9414 34.8281L41.9531 34.7812C42.1367 33.8828 42.4609 32.9922 42.9883 32.4453C43.25 32.1718 43.543 31.9609 43.8789 31.8086C43.9609 31.7695 44.0586 31.7461 44.1445 31.7109C44.2344 31.6797 44.3203 31.6406 44.4219 31.6289C44.6172 31.5898 44.8125 31.5351 44.9844 31.5234C45.3359 31.4961 45.582 31.5508 45.793 31.6718C46.0039 31.8047 46.2227 32.0586 46.4023 32.4179C46.7617 33.1289 46.9492 34.1015 47.1172 35.0312L47.125 35.0625C47.1523 35.2226 47.2656 35.3554 47.4297 35.4062C47.6641 35.4765 47.9102 35.3437 47.9805 35.1133C48.1406 34.5742 48.2031 34.0547 48.2188 33.5C48.2227 32.9531 48.1797 32.3867 47.9961 31.8047ZM9.03125 50.0781C8.3125 50.0781 7.72656 51.2578 7.72656 52.7109C7.72656 54.164 8.3125 55.3437 9.03125 55.3437C9.75 55.3437 10.3359 54.164 10.3359 52.7109C10.3359 51.2578 9.75 50.0781 9.03125 50.0781ZM5.66406 52.7109C5.66406 54.164 5.08203 55.3437 4.36328 55.3437C3.64063 55.3437 3.05859 54.164 3.05859 52.7109C3.05859 51.2578 3.64063 50.0781 4.36328 50.0781C5.08203 50.0781 5.66406 51.2578 5.66406 52.7109Z" fill="#272223"/>
<path d="M94.1367 2.78905C93.6719 2.66405 93.2032 2.59764 92.7305 2.56639C92.2617 2.53514 91.793 2.54686 91.3203 2.59374C90.8516 2.64842 90.3867 2.73827 89.918 2.92186C89.8399 2.95311 89.7774 3.0117 89.7422 3.08983C89.6758 3.24998 89.75 3.43358 89.9102 3.49999L89.918 3.50389C90.3672 3.69139 90.8203 3.80467 91.2696 3.89452C91.7188 3.98436 92.168 4.04295 92.6172 4.08202C93.0625 4.12499 93.5117 4.14061 93.9571 4.1367C94.4063 4.1328 94.8516 4.11327 95.3242 4.03905L95.3399 4.03514C95.4375 4.01952 95.5274 3.96483 95.586 3.87889C95.6992 3.71092 95.6563 3.48045 95.4844 3.36717C95.0586 3.08202 94.5977 2.91405 94.1367 2.78905ZM113.84 14.2539C113.422 14.082 112.984 13.9765 112.531 13.9219C112.082 13.875 111.633 13.8828 111.152 14.0195C111.086 14.043 111.02 14.0859 110.98 14.1523C110.887 14.2969 110.93 14.4883 111.074 14.5781L111.113 14.6015C111.465 14.8242 111.836 15.0078 112.188 15.1797C112.543 15.3476 112.898 15.5039 113.254 15.6601C113.605 15.8164 113.965 15.9531 114.332 16.0976C114.707 16.2305 115.078 16.375 115.512 16.4648L115.535 16.4687C115.625 16.4883 115.723 16.4726 115.805 16.4219C115.98 16.3164 116.035 16.0859 115.926 15.914C115.438 15.1211 114.668 14.5937 113.84 14.2539ZM123.57 15.6914C123.297 15.2031 122.914 14.7969 122.488 14.4609C122.063 14.125 121.598 13.8476 121.113 13.6328C120.625 13.418 120.121 13.25 119.598 13.1484C119.078 13.043 118.551 12.9883 117.992 13.0469C117.91 13.0586 117.828 13.1015 117.773 13.1797C117.68 13.3164 117.711 13.5078 117.852 13.6055L117.867 13.6172C118.293 13.9101 118.738 14.1484 119.172 14.3711C119.605 14.6015 120.039 14.8086 120.473 15.0156C120.906 15.2187 121.328 15.4219 121.766 15.6133C122.199 15.8125 122.621 16.0156 123.102 16.1992L123.129 16.207C123.223 16.2422 123.336 16.2383 123.434 16.1836C123.609 16.0859 123.672 15.8633 123.57 15.6914ZM86.0703 10.1211C85.6563 10.0273 85.2422 9.98045 84.8282 9.97655C84.418 9.96483 84.0039 9.99217 83.5977 10.0625C83.1875 10.1328 82.7813 10.2344 82.3711 10.4297C82.3086 10.4609 82.2539 10.5156 82.2227 10.5859C82.1485 10.75 82.2227 10.9375 82.3828 11.0078L82.3867 11.0117C82.7891 11.1914 83.1914 11.289 83.5899 11.3633C83.9883 11.4336 84.3828 11.4765 84.7774 11.4961C85.5703 11.5273 86.3477 11.4883 87.1328 11.3008L87.1641 11.293C87.25 11.2734 87.3282 11.2226 87.3828 11.1445C87.5 10.9765 87.461 10.7461 87.293 10.6289C86.9024 10.3555 86.4805 10.2226 86.0703 10.1211ZM102.848 10.2656C102.406 10.0781 101.938 9.95311 101.465 9.89061C100.996 9.8242 100.516 9.81639 100.043 9.87108C99.5664 9.92967 99.1055 10.0351 98.6446 10.2695C98.5782 10.3047 98.5196 10.3672 98.4922 10.4453C98.4375 10.6055 98.5274 10.7812 98.6875 10.8359L98.7149 10.8437C99.1485 10.9922 99.5821 11.0859 100 11.1719C100.418 11.2539 100.828 11.332 101.242 11.3984C101.652 11.4609 102.063 11.5234 102.477 11.5781C102.898 11.6211 103.313 11.6875 103.781 11.6875H103.809C103.902 11.6875 104 11.6523 104.07 11.5781C104.215 11.4336 104.211 11.1992 104.066 11.0586C103.715 10.7109 103.293 10.4492 102.848 10.2656ZM111.82 11.6055C111.906 11.6055 111.996 11.5742 112.066 11.5117C112.223 11.3711 112.234 11.1328 112.094 10.9765C111.797 10.6484 111.457 10.4023 111.094 10.1953C110.73 9.98827 110.344 9.82811 109.938 9.71092C109.527 9.59373 109.098 9.52733 108.656 9.52342C108.434 9.52342 108.207 9.54295 107.98 9.58983C107.863 9.62108 107.75 9.64452 107.637 9.69139C107.512 9.73436 107.422 9.78124 107.266 9.87499C107.258 9.8828 107.246 9.89061 107.238 9.89842C107.16 9.96483 107.156 10.0859 107.227 10.1601L107.461 10.4219C107.5 10.4648 107.609 10.4883 107.684 10.5195C107.77 10.5547 107.855 10.582 107.938 10.6172L108.453 10.8125C108.793 10.9375 109.141 11.0586 109.5 11.1719C109.855 11.2851 110.223 11.3828 110.602 11.4648C110.984 11.543 111.375 11.6133 111.809 11.6055H111.82ZM117.793 9.12499C117.488 8.71874 117.094 8.40233 116.676 8.14842C116.254 7.89842 115.809 7.6992 115.348 7.56249C114.887 7.42577 114.41 7.33592 113.934 7.30077C113.453 7.27342 112.973 7.28514 112.473 7.41014C112.398 7.43358 112.324 7.48045 112.281 7.55467C112.195 7.70311 112.246 7.89452 112.395 7.98045L112.41 7.98827C112.82 8.23045 113.238 8.40623 113.652 8.5742C114.063 8.73436 114.473 8.8828 114.887 9.01561C115.297 9.14842 115.703 9.27733 116.117 9.39061C116.535 9.5078 116.945 9.62499 117.414 9.70311L117.438 9.70702C117.535 9.72264 117.637 9.70311 117.719 9.6367C117.883 9.51952 117.914 9.28905 117.793 9.12499ZM92.7149 8.35545C92.2188 8.23045 91.711 8.16014 91.211 8.16405C90.7071 8.16405 90.2071 8.21483 89.7188 8.32811C89.2266 8.4453 88.7539 8.60545 88.2969 8.8867C88.2266 8.92967 88.1758 8.99998 88.1563 9.08592C88.125 9.25389 88.2305 9.41405 88.3985 9.4492L88.4219 9.45311C88.8985 9.55077 89.3711 9.58983 89.8282 9.62499C90.2891 9.65624 90.7383 9.67577 91.1875 9.68749C91.6367 9.6953 92.0782 9.70702 92.5274 9.70311C92.9766 9.6992 93.418 9.71092 93.9102 9.66405L93.9375 9.66014C94.0352 9.64842 94.1289 9.59764 94.1914 9.51561C94.3125 9.35155 94.2774 9.12108 94.1172 9.00389C93.6914 8.69139 93.2071 8.48436 92.7149 8.35545ZM46.6953 73.1094C46.9805 73.3437 47.3008 73.543 47.6719 73.6836C48.0352 73.8203 48.4571 73.9219 48.8985 73.8203C48.9649 73.8047 49.0274 73.7695 49.0782 73.7187C49.2227 73.5742 49.2227 73.3398 49.0782 73.1953L49.0196 73.1406C48.7891 72.914 48.5821 72.707 48.3555 72.5078C48.1328 72.3086 47.8985 72.1094 47.6485 71.918C47.3985 71.7305 47.1328 71.543 46.8516 71.3711C46.5625 71.1992 46.2578 71.0351 45.9024 70.9219L45.8789 70.914C45.8242 70.8945 45.7617 70.8945 45.6992 70.9101C45.5235 70.9531 45.418 71.1328 45.4649 71.3047C45.5664 71.6953 45.7422 72.0156 45.9492 72.3164C46.1602 72.6094 46.4141 72.875 46.6953 73.1094ZM73.6172 82.5312L73.5977 82.5195C73.3203 82.3476 73.0586 82.2617 72.793 82.1875C72.5313 82.1172 72.2735 82.0703 72.0039 82.0508C71.7383 82.0273 71.4688 82.0273 71.1914 82.0547C70.9141 82.082 70.625 82.1328 70.3242 82.2539L70.3008 82.2656C70.2578 82.2851 70.2227 82.3086 70.1875 82.3398C70.0547 82.4726 70.0547 82.6875 70.1875 82.8203C70.4375 83.0703 70.7071 83.2187 70.9844 83.3398C71.2617 83.4531 71.5547 83.5273 71.8477 83.5625C72.1407 83.6015 72.4453 83.5976 72.7422 83.5508C73.043 83.4961 73.3477 83.4023 73.6328 83.2109C73.6797 83.1797 73.7188 83.1367 73.75 83.0898C73.8672 82.8984 73.8086 82.6484 73.6172 82.5312ZM76.5391 77.8008L76.5039 77.793C76.1016 77.6719 75.7383 77.582 75.3555 77.5C74.9805 77.418 74.5977 77.332 74.2071 77.2734C73.8203 77.2109 73.4219 77.1562 73.0157 77.1211C72.6055 77.0937 72.1875 77.0742 71.7461 77.125H71.7305C71.6563 77.1328 71.586 77.168 71.5313 77.2265C71.4141 77.3555 71.4219 77.5547 71.5547 77.6719C71.9024 77.9883 72.2852 78.2031 72.6836 78.3828C73.086 78.5586 73.5039 78.6914 73.9375 78.7734C74.3711 78.8515 74.8164 78.8945 75.2735 78.8594C75.7266 78.8203 76.1992 78.7265 76.625 78.4726C76.6992 78.4258 76.7617 78.3515 76.7891 78.2617C76.8477 78.0664 76.7344 77.8594 76.5391 77.8008ZM62.9336 75.4101C63.0625 75.2344 63.0235 74.9922 62.8477 74.8633L62.8282 74.8515C62.543 74.6406 62.2657 74.5195 61.9883 74.3984C61.711 74.289 61.4375 74.1953 61.1602 74.1211C60.8789 74.0469 60.5938 73.9844 60.2969 73.9375C60 73.8984 59.6875 73.8633 59.3516 73.8828L59.2969 73.8867C59.25 73.8906 59.1992 73.9062 59.1524 73.9375C59 74.0312 58.9532 74.2305 59.0469 74.3789C59.2578 74.7187 59.5157 74.9453 59.8047 75.1445C60.0899 75.3359 60.4024 75.4844 60.7305 75.582C61.0547 75.6836 61.3946 75.7422 61.7422 75.7383C62.086 75.7422 62.4336 75.6875 62.7774 75.539C62.836 75.5117 62.8907 75.4687 62.9336 75.4101ZM66.3555 83.4336L66.3242 83.418C66.0078 83.2344 65.6992 83.1055 65.3867 82.9961C65.0703 82.8906 64.7461 82.7969 64.418 82.7344C64.0899 82.668 63.75 82.6211 63.4024 82.6015C63.0547 82.5859 62.6953 82.5898 62.3164 82.668L62.3086 82.6719C62.2461 82.6836 62.1875 82.7148 62.1407 82.7617C62.0117 82.8906 62.0117 83.0976 62.1407 83.2226C62.4297 83.5078 62.7422 83.6992 63.0703 83.8594C63.3985 84.0195 63.7383 84.1367 64.0899 84.2187C64.4414 84.3008 64.8047 84.3476 65.1797 84.3437C65.5547 84.332 65.9453 84.289 66.3242 84.1094C66.3946 84.0742 66.4532 84.0234 66.4922 83.9531C66.5977 83.7734 66.5352 83.539 66.3555 83.4336ZM67.7305 79.4258L67.7188 79.418C67.293 79.2383 66.8711 79.1133 66.4414 79.0078C66.0157 78.9062 65.5821 78.8281 65.1485 78.7773C64.711 78.7226 64.2696 78.6953 63.8203 78.6914C63.3711 78.6953 62.9141 78.7226 62.4453 78.8242L62.4414 78.8281C62.3633 78.8437 62.293 78.8906 62.2461 78.9609C62.1524 79.1094 62.1914 79.3047 62.3399 79.3984C62.75 79.6601 63.1797 79.8359 63.6133 79.9805C64.0469 80.1172 64.4922 80.2187 64.9414 80.2851C65.3907 80.3515 65.8477 80.3828 66.3125 80.3633C66.7774 80.3437 67.2461 80.289 67.7188 80.1094C67.8086 80.0742 67.8828 80.0039 67.9258 79.9101C68.0078 79.7226 67.918 79.5039 67.7305 79.4258ZM58.543 81.7969C58.2266 81.5312 57.9063 81.3476 57.5742 81.1758C57.2461 81.0078 56.9102 80.8633 56.5625 80.7422C56.2149 80.6211 55.8594 80.5156 55.4922 80.4375C55.1211 80.3633 54.7422 80.3047 54.3282 80.3203H54.3164C54.25 80.3203 54.1797 80.3437 54.125 80.3906C53.9844 80.5 53.9649 80.7031 54.0742 80.8437C54.3477 81.1758 54.6602 81.4219 54.9883 81.6406C55.3164 81.8515 55.6641 82.0273 56.0274 82.168C56.3907 82.3125 56.7696 82.4101 57.1602 82.4726C57.5547 82.5312 57.961 82.5508 58.3828 82.4648C58.4649 82.4492 58.5391 82.4062 58.5977 82.3398C58.7344 82.1797 58.7149 81.9414 58.5508 81.8047L58.543 81.7969ZM55.6953 77.6797C56.2461 77.7305 56.8164 77.7344 57.3828 77.5781C57.4883 77.5508 57.5782 77.4765 57.6211 77.3711C57.6992 77.1875 57.6133 76.9726 57.4297 76.8984L57.4102 76.8906C56.9258 76.6875 56.461 76.5117 55.9805 76.3515C55.5039 76.1836 55.0196 76.0312 54.5274 75.8945C54.0352 75.7578 53.5391 75.6289 53.0274 75.5312C52.5157 75.4297 51.9922 75.3476 51.4453 75.332H51.4375C51.3477 75.3281 51.2578 75.3672 51.1953 75.4375C51.0821 75.5664 51.0977 75.7578 51.2266 75.8711C51.6524 76.2422 52.1172 76.5195 52.6016 76.7578C53.0821 77.0039 53.5821 77.1992 54.0977 77.3555C54.6133 77.5117 55.1446 77.6328 55.6953 77.6797ZM50.3828 78.8476C50.0625 78.6328 49.7852 78.4219 49.4961 78.2031L48.6055 77.5234C48.3008 77.2969 47.9844 77.0664 47.6524 76.8437C47.3125 76.625 46.961 76.4062 46.5625 76.2305L46.543 76.2226C46.4766 76.1914 46.3985 76.1875 46.3203 76.2109C46.1563 76.2617 46.0625 76.4375 46.1133 76.6055C46.2578 77.0547 46.4844 77.4297 46.7461 77.7851C47.0117 78.1328 47.3203 78.4492 47.6719 78.7265C48.0196 79.0039 48.4141 79.2461 48.8594 79.4101C49.3047 79.5664 49.8125 79.668 50.3203 79.5351C50.4024 79.5156 50.4805 79.4648 50.5313 79.3867C50.6446 79.2226 50.6016 78.9961 50.4336 78.8828L50.3828 78.8476ZM85 6.28905C85.5391 6.29686 86.0742 6.28514 86.6367 6.23827H86.6524C86.7617 6.22655 86.8672 6.16795 86.9258 6.06639C87.0313 5.89842 86.9805 5.67577 86.8086 5.5703C86.293 5.2578 85.7266 5.0703 85.1602 4.94139C84.5938 4.80858 84.0235 4.74999 83.4532 4.72655C82.8828 4.70702 82.3164 4.73045 81.75 4.80467C81.1836 4.87889 80.625 4.98827 80.0703 5.20702C79.9844 5.24217 79.9141 5.31248 79.8867 5.40623C79.8399 5.5703 79.9336 5.73827 80.0977 5.78514L80.1055 5.78905C80.6563 5.9453 81.211 6.03514 81.7539 6.10155C82.3008 6.17577 82.8438 6.21483 83.3867 6.24608C83.9258 6.27733 84.4649 6.29295 85 6.28905ZM100.023 6.92577L98.3594 6.79295C97.7969 6.74998 97.2227 6.6992 96.6407 6.60155L96.625 6.59764C96.461 6.5703 96.3477 6.41405 96.375 6.24998C96.3946 6.14842 96.461 6.0703 96.543 6.02733C97.1133 5.74608 97.6992 5.59764 98.3047 5.49998C98.9063 5.39842 99.5157 5.37108 100.133 5.40623C100.75 5.4492 101.371 5.55858 101.969 5.76561C102.563 5.98045 103.145 6.28905 103.605 6.74999C103.742 6.8867 103.742 7.11327 103.602 7.25389C103.516 7.33983 103.398 7.37108 103.289 7.35155L103.262 7.34764C102.695 7.24608 102.176 7.16014 101.645 7.08592C101.105 7.02733 100.57 6.97655 100.023 6.92577Z" fill="white"/>
</svg>
