<svg width="152" height="135" viewBox="0 0 152 135" fill="none" xmlns="http://www.w3.org/2000/svg">
<path d="M126.074 26.3984C126.055 26.4102 126.035 26.418 126.016 26.4258C125.996 26.3359 125.977 26.2461 125.957 26.1563L126.074 26.3984ZM138.863 38.1797C138.977 37.0273 138.598 35.3477 137.043 33.918C135.887 32.8516 135.328 32.1836 135.094 27.9414C135.012 26.4648 134.738 23.5586 130.598 24.082C129.566 24.2109 128.477 24.5156 126.762 25.6797C126.516 25.8477 126.25 26.0156 125.957 26.1563C125.223 22.6602 123.934 18.8672 121.773 18.0977C117.586 16.6016 111.055 19.1094 108.008 17.5C104.207 15.4922 101.723 6.13672 94.8399 6.4336C87.957 6.73438 86.6328 10.9414 83.7656 10.3203C80.3008 9.57422 79.5742 1.35157 73.5899 0.45313C67.6055 -0.445307 66.5898 4.33985 64.0117 4.9375C61.0234 5.63282 57.4102 2.52344 51.7422 4.9375C46.8164 7.03516 38.9922 2.28126 32.5898 14.5078C30.2695 18.9375 19.3555 11.0039 15.5273 24.9766C14.1758 29.918 0.199224 27.1758 7.44922 43.8164C9.32032 48.1133 -6.05468 48.082 4.75391 62.3594C7.73829 66.3008 -3.07421 74.4805 10.7422 81.1992C14.3789 82.9688 5.25 91.6055 14.5273 95.8399C15.8516 96.4453 17.8906 109.184 20.0586 109.574C23.6992 110.23 19.0703 106.426 30.0898 105.508C30.8477 105.441 31.6719 105.336 32.5781 105.18C33.1484 105.082 38.7773 115.48 39.4141 115.344C42.875 114.586 37.6914 112.273 46.25 110.543C47.1758 110.355 48.2031 110.055 49.3477 109.613C52.7734 108.285 55.1797 116.234 64.0117 110.508C68.2148 107.785 71.0938 114.68 80.9805 113.441C83.0664 113.18 85.9219 118.402 88.7109 117.254C90.4258 116.543 91.9336 111.469 94.125 112.117C95.2734 112.457 96.4844 112.762 97.7578 112.805C100.836 112.898 104.012 118.523 107.75 112.215C108.355 111.195 109.773 103.715 111.199 103.512C115.688 102.863 122.813 104.023 123.57 93.1641C123.895 88.5352 134.777 89.3164 130.152 75.8164C128.703 71.5781 140.93 65.6484 138.535 59.9648C136.141 54.2852 133.191 55.457 132.25 53.3867C131.09 50.8359 134.41 46.1016 135.23 41.9609C136.715 41.8672 138.578 41.1445 138.863 38.1797Z" fill="#FBF2D5"/>
<path d="M100.93 39.8164L101.078 39.6094C99.8555 38.5938 99.1875 36.9805 99.2734 35.4297L99.3086 34.8164L99.3242 34.5117L99.3672 34.2109L99.4453 33.6094C99.4766 33.4102 99.5273 33.2148 99.5703 33.0195C99.6406 32.6211 99.7812 32.2461 99.8906 31.8633C100.043 31.5 100.172 31.1211 100.371 30.7852C100.734 30.0898 101.203 29.457 101.77 28.9492C102.336 28.4414 103.012 28.0625 103.723 27.8906C103.898 27.8555 104.078 27.8047 104.258 27.8008C104.344 27.7969 104.434 27.7813 104.523 27.7773L104.789 27.7891L104.918 27.793L105.082 27.8047L105.41 27.832C105.625 27.8555 105.848 27.8555 106.07 27.8633C106.949 27.8867 107.867 27.8125 108.766 27.5156C109.215 27.3633 109.648 27.1406 110.039 26.8594C110.43 26.582 110.77 26.2461 111.062 25.9023L111.473 25.4102C111.602 25.2578 111.727 25.0977 111.863 24.957C112 24.8125 112.133 24.6641 112.277 24.5313L112.488 24.3281L112.711 24.1367C113.301 23.6289 113.965 23.2383 114.676 23.0391C115.383 22.8438 116.133 22.8555 116.867 23.0508C117.605 23.2461 118.312 23.6133 118.996 24.0469C119.684 24.4805 120.328 24.9922 121.031 25.4922C121.75 25.9844 122.523 26.4258 123.402 26.6719C123.84 26.7891 124.305 26.8477 124.77 26.8008C125.234 26.7578 125.68 26.6094 126.074 26.3984L125.844 25.9141C125.121 26.2305 124.34 26.2305 123.609 25.9766C122.875 25.7266 122.191 25.2813 121.555 24.7852C120.277 23.7695 118.941 22.5547 117.164 22.0117C116.285 21.7422 115.297 21.6914 114.383 21.9297C113.465 22.1719 112.641 22.6445 111.949 23.2188L111.691 23.4375L111.445 23.668C111.281 23.8164 111.129 23.9805 110.98 24.1406C110.824 24.3008 110.684 24.4727 110.543 24.6406L110.145 25.1133C109.645 25.707 109.066 26.1211 108.367 26.3633C107.668 26.5977 106.887 26.6797 106.09 26.6602C105.891 26.6523 105.691 26.6563 105.492 26.6367L105.191 26.6133L105.039 26.6016L104.855 26.5977L104.492 26.5859C104.367 26.5898 104.25 26.6094 104.129 26.6211C103.887 26.6367 103.66 26.6992 103.426 26.7539C102.504 26.9961 101.684 27.4922 101.012 28.1133C100.332 28.7383 99.8164 29.5039 99.4258 30.3047C99.2148 30.7031 99.082 31.1289 98.9258 31.543C98.8125 31.9688 98.6758 32.3906 98.6211 32.8281C98.5859 33.043 98.5391 33.2578 98.5156 33.4727L98.4297 34.4492L98.4258 34.7734L98.4219 35.4219C98.4219 36.3242 98.6602 37.2188 99.0547 38.0117C99.332 38.5781 99.7148 39.0938 100.168 39.5273C96.7187 43.0703 88.6484 48.2383 86.6133 51.5898C84.0703 55.7773 88.8359 58.0352 90.8008 58.4688C96.9805 59.8242 101.477 47.3672 103.391 40.8086C102.375 40.6563 101.566 40.293 100.93 39.8164ZM146.961 44.6172C144.129 43.5352 141.199 40.6523 138.879 37.8906C138.875 37.9922 138.871 38.0898 138.863 38.1797C138.641 40.5039 137.449 41.4492 136.23 41.7969C138.141 47.8672 141.492 53.7773 146.062 54.3359C153.395 55.2344 153.484 47.1094 146.961 44.6172ZM135.355 41.9531C134.961 41.9844 134.586 41.9727 134.27 41.9453C131.016 41.6328 130.535 42.4492 129.93 43.4219C126.836 48.4023 123.516 46.2266 122.207 44.7695C120.063 42.3789 118.188 43.0469 117.172 43.8281C113.66 46.5195 110.273 46.25 108.414 43.8281C106.734 41.6445 105.625 41.0273 104.441 40.9063C101.902 47.1133 98.7227 58.0039 102.621 67.293C108.457 81.1992 123.57 81.1992 130.004 78.8086C136.441 76.4141 143.172 67.5938 138.535 51.7422C137.496 48.1914 136.516 44.8594 135.355 41.9531ZM34.3828 104.824C33.75 104.965 33.1484 105.082 32.5781 105.18C34.4062 114.648 36.918 124.371 37.375 126.059C38.2734 129.348 43.6602 132.191 44.8594 126.359C45.2969 124.227 45.793 117.816 46.25 110.543C37.6914 112.27 37.8477 104.07 34.3828 104.824ZM19.7188 97.3477C17.582 96.9648 15.9023 96.457 14.5859 95.8633C15.9844 107.039 20.2969 123.793 20.9141 126.059C21.8125 129.348 27.2031 132.191 28.3984 126.359C28.9336 123.746 29.5625 114.691 30.0898 105.504C19.0742 106.418 23.3633 98.0078 19.7188 97.3477ZM88.2539 111.406C85.4648 112.559 83.0664 113.18 80.9805 113.441C82.6914 121.656 84.6602 129.27 85.0625 130.746C85.9609 134.035 91.3477 136.875 92.543 131.043C93.043 128.613 93.6211 120.617 94.125 112.117C91.9336 111.469 89.9688 110.699 88.2539 111.406ZM111.203 103.512C110.625 114.301 109.848 126.711 109.203 129.848C108.008 135.68 102.621 132.84 101.723 129.547C101.328 128.105 99.4414 120.805 97.7578 112.801C100.836 112.898 104.27 111.434 108.008 105.125C108.613 104.105 109.773 103.715 111.203 103.512Z" fill="#FABFAB"/>
<path d="M131.871 70.6328C131.742 70.5469 131.57 70.5781 131.484 70.707H131.48C131.125 71.2344 130.707 71.7031 130.234 72.0469C129.988 72.2109 129.734 72.3477 129.469 72.4453C129.203 72.5391 128.922 72.5859 128.641 72.6055C128.074 72.6445 127.492 72.5195 126.934 72.3164C126.652 72.2149 126.375 72.0938 126.109 71.9453C125.973 71.8711 125.836 71.793 125.703 71.7109C125.844 71.1211 126.02 70 125.875 68.3945C125.977 68.3594 126.078 68.3164 126.176 68.2617C126.617 68.0234 126.98 67.6836 127.238 67.3047C127.758 66.5391 127.973 65.6992 127.992 64.8477C127.992 64.75 127.938 64.6641 127.848 64.625C127.727 64.5742 127.59 64.6289 127.539 64.75L127.531 64.7734C127.238 65.4727 126.883 66.1641 126.422 66.6602C126.184 66.9024 125.938 67.0977 125.664 67.207C125.527 67.2695 125.387 67.3008 125.246 67.3359C125.223 67.3359 125.195 67.3399 125.172 67.3438C125.16 67.3438 125.145 67.3438 125.133 67.3438C125.121 67.3477 125.113 67.3477 125.105 67.3516C124.98 67.3633 124.855 67.3789 124.734 67.3828C124.059 67.4024 123.391 67.2734 122.766 66.9453C122.145 66.6367 121.555 66.1484 121.043 65.6172L121.023 65.5977C120.945 65.5195 120.828 65.4883 120.719 65.5313C120.574 65.5899 120.504 65.75 120.563 65.8945C120.727 66.3164 120.961 66.6602 121.234 67C121.512 67.3281 121.832 67.6367 122.207 67.8828C122.902 68.3672 123.793 68.625 124.664 68.6055C124.801 70.2734 124.551 71.3047 124.457 71.6289C124.176 71.8789 123.883 72.1211 123.563 72.2969C123.391 72.4141 123.203 72.4883 123.02 72.5859C122.828 72.6524 122.641 72.7344 122.445 72.7695C121.664 72.9688 120.824 72.8828 120.023 72.582C119.219 72.293 118.457 71.8047 117.746 71.25C117.035 70.6914 116.363 70.043 115.758 69.3633L115.75 69.3516C115.676 69.2695 115.551 69.25 115.453 69.3086C115.344 69.3711 115.305 69.5156 115.371 69.6289C115.867 70.4688 116.473 71.2149 117.172 71.9024C117.871 72.582 118.672 73.1875 119.613 73.6016C120.086 73.8008 120.59 73.9531 121.117 74.0234C121.648 74.0938 122.191 74.0586 122.719 73.9414C123.613 73.7539 124.391 73.2813 125.047 72.7227C125.219 72.8242 125.387 72.9141 125.566 73.0039C125.887 73.1602 126.219 73.2969 126.563 73.4063C127.246 73.6328 127.996 73.7305 128.746 73.6328C129.496 73.5391 130.219 73.1992 130.762 72.7031C131.305 72.207 131.695 71.6016 131.969 70.9727C132.023 70.8516 131.984 70.707 131.871 70.6328ZM125.828 54.4102C126.074 54.8438 126.496 55.2109 126.969 55.4297C127.207 55.5547 127.457 55.5977 127.711 55.6563C127.836 55.6758 127.957 55.6719 128.078 55.6797C128.203 55.6797 128.328 55.7031 128.449 55.6797C128.695 55.6406 128.934 55.6328 129.18 55.5391C129.305 55.4961 129.426 55.4688 129.543 55.4102C129.66 55.3477 129.777 55.2813 129.891 55.2149C130.324 54.9063 130.656 54.4727 130.828 54.0156C131.016 53.5586 131.059 53.0899 131.059 52.6484C131.047 52.1992 130.988 51.7734 130.844 51.3477C130.813 51.2578 130.734 51.1914 130.633 51.1875C130.504 51.1797 130.391 51.2774 130.387 51.4063L130.383 51.4258C130.336 52.1992 130.211 53 129.883 53.5781C129.711 53.8633 129.508 54.082 129.258 54.2266C129.191 54.2539 129.125 54.2891 129.063 54.3203C128.996 54.3555 128.914 54.3633 128.844 54.3867C128.703 54.4453 128.527 54.4375 128.367 54.4609C128.289 54.4766 128.207 54.457 128.125 54.4609C128.043 54.4531 127.961 54.4609 127.883 54.4453C127.734 54.4141 127.578 54.3984 127.445 54.332C127.172 54.2305 126.934 54.0547 126.73 53.8008C126.332 53.2852 126.086 52.5234 125.941 51.7734L125.938 51.75C125.918 51.6406 125.828 51.5508 125.715 51.5313C125.563 51.5 125.418 51.6016 125.387 51.7539C125.305 52.2031 125.313 52.6328 125.371 53.0859C125.438 53.5313 125.57 53.9844 125.828 54.4102ZM115.832 55.1524C115.645 55.6094 115.293 56.0274 114.859 56.3164C114.422 56.625 113.918 56.7227 113.441 56.8008C113.32 56.8086 113.195 56.8086 113.074 56.8125C112.949 56.8086 112.828 56.8203 112.699 56.793L112.32 56.7227C112.191 56.6953 112.066 56.6367 111.945 56.5899C111.457 56.3711 111.031 55.9922 110.789 55.5469C110.535 55.1094 110.426 54.6445 110.371 54.1953C110.328 53.7422 110.336 53.3086 110.434 52.8633C110.469 52.7109 110.617 52.6172 110.766 52.6484C110.883 52.6719 110.965 52.7656 110.984 52.875L110.988 52.8984C111.109 53.6563 111.32 54.4375 111.707 54.9609C112.098 55.4727 112.637 55.6328 113.328 55.5859C114.012 55.5234 114.547 55.25 114.898 54.6875C115.238 54.1133 115.387 53.3203 115.43 52.543V52.5274C115.438 52.3945 115.547 52.2969 115.68 52.3047C115.777 52.3086 115.859 52.375 115.891 52.4609C116.035 52.8945 116.09 53.3203 116.098 53.7734C116.094 54.2266 116.023 54.6953 115.832 55.1524Z" fill="#32445E"/>
<path d="M108.02 58.5547C108.75 57.6016 113.461 56.9531 112.883 59.3125C112.172 62.2383 106.461 60.6094 108.02 58.5547ZM134.418 56.5195C133.457 55.7969 128.746 56.461 129.945 58.5742C131.434 61.1953 136.48 58.0664 134.418 56.5195ZM80.3516 90.2461C80.2031 90.2188 80.0586 90.3203 80.0313 90.4727L80.0235 90.5078C79.9531 90.8945 79.8438 91.3125 79.6641 91.6406C79.4883 91.9766 79.2461 92.2305 78.9649 92.3867C78.6797 92.5313 78.3516 92.6211 77.9727 92.5977C77.793 92.6133 77.5938 92.5742 77.4024 92.5547C77.3047 92.5508 77.2149 92.5235 77.125 92.5C77.0352 92.4766 76.9492 92.4492 76.8555 92.4297C76.5196 92.3086 76.2031 92.1602 75.9766 91.9063C75.7305 91.668 75.543 91.3594 75.4141 90.9922C75.1524 90.2695 75.0938 89.3867 75.125 88.5313L75.1289 88.5117C75.1328 88.4141 75.0742 88.3203 74.9766 88.2852C74.8555 88.2383 74.7188 88.2969 74.6758 88.418C74.3281 89.3086 74.1992 90.2695 74.4102 91.2774C74.5039 91.7774 74.7539 92.2813 75.1133 92.6992C75.2071 92.8008 75.293 92.9102 75.4063 92.9961L75.7422 93.2383C75.8516 93.3281 75.9805 93.3672 76.1016 93.4336C76.2266 93.4844 76.3477 93.5586 76.4727 93.5899C76.9922 93.7344 77.4805 93.8203 78.0039 93.793C78.5196 93.7813 79.0977 93.6406 79.5625 93.2969C80.0352 92.9649 80.3477 92.461 80.4961 91.9688C80.6406 91.461 80.6641 90.9766 80.5781 90.4727C80.5586 90.3594 80.4727 90.2695 80.3516 90.2461ZM71.8242 26.4453C71.9531 26.4258 72.0391 26.3047 72.0196 26.1758L72.0156 26.1602C71.8828 25.332 71.7969 24.4922 71.8125 23.6953C71.8399 23.3008 71.8711 22.9141 71.9727 22.5625C72.0821 22.2188 72.2071 21.8906 72.4219 21.6485C72.4649 21.5742 72.5391 21.5352 72.5899 21.4727C72.6485 21.418 72.6953 21.3594 72.7813 21.3008C72.9336 21.1797 73.0899 21.0664 73.2539 20.961C73.5781 20.7422 73.9297 20.5625 74.293 20.3985C75.0196 20.082 75.8242 19.8516 76.625 19.7188L76.6524 19.7149C76.7656 19.6953 76.8594 19.6094 76.8828 19.4883C76.9102 19.336 76.8086 19.1953 76.6563 19.168C75.7305 19.0078 74.8125 19.1055 73.9141 19.375C73.4649 19.5039 73.0391 19.711 72.6289 19.9414C72.4219 20.0586 72.2266 20.1953 72.0352 20.336C71.9414 20.3945 71.8399 20.5 71.7461 20.5899C71.6524 20.6875 71.5391 20.7695 71.4688 20.8867C71.1289 21.3125 70.9453 21.8125 70.8321 22.2969C70.7422 22.7891 70.7305 23.2695 70.7735 23.7344C70.8789 24.6641 71.1367 25.5274 71.5821 26.3281C71.625 26.4102 71.7227 26.461 71.8242 26.4453ZM49.3477 103.344L49.3321 103.355C48.7617 103.828 48.1797 104.301 47.5938 104.652C47.3008 104.82 47.0039 104.969 46.7422 105.008C46.6758 105.023 46.6211 105.02 46.5625 105.031C46.5039 105.035 46.461 105.016 46.4063 105.02C46.3321 105.012 46.2461 104.969 46.1367 104.898C45.9141 104.758 45.6797 104.504 45.4649 104.238C45.2383 103.973 45.0391 103.676 44.8321 103.375C44.4219 102.766 44.0313 102.117 43.6172 101.484V101.477C43.5625 101.398 43.4688 101.352 43.3711 101.371C43.2422 101.395 43.1602 101.52 43.1836 101.648C43.3281 102.43 43.5821 103.168 43.9219 103.887C44.0899 104.25 44.293 104.594 44.5274 104.941C44.7696 105.281 45.043 105.613 45.4453 105.906C45.6485 106.047 45.9141 106.18 46.2188 106.227C46.3555 106.234 46.5 106.25 46.6328 106.238C46.7617 106.219 46.8985 106.211 47.0156 106.176C47.4961 106.039 47.8867 105.813 48.2149 105.551C48.875 105.023 49.3789 104.406 49.7696 103.699C49.8242 103.602 49.8164 103.477 49.7422 103.383C49.6446 103.266 49.4649 103.246 49.3477 103.344ZM67.8321 76.8477C67.8008 76.832 67.7735 76.8086 67.7539 76.7813C67.7735 76.8047 67.793 76.8242 67.8321 76.8477ZM67.7383 76.7578C67.7266 76.7461 67.7227 76.7305 67.7149 76.7149C67.7149 76.7227 67.7149 76.7266 67.7188 76.7344C67.7266 76.7461 67.7305 76.75 67.7383 76.7578ZM68.2305 76.5C68.2461 76.5352 68.2539 76.5742 68.2578 76.6133C68.2578 76.6485 68.2578 76.668 68.25 76.6992C68.2071 76.836 68.1836 76.8281 68.1524 76.875C68.1133 76.9141 68.1094 76.9141 68.086 76.9336C68.0664 76.9492 68.043 76.9649 68.0313 76.9727C67.9688 77.0117 67.9141 77.043 67.8633 77.0703C67.7617 77.1172 67.6641 77.1602 67.5664 77.1992C67.3711 77.2774 67.1758 77.336 66.9844 77.3985C66.5977 77.5078 66.211 77.6055 65.8242 77.6836C65.6289 77.7227 65.4375 77.7617 65.2422 77.793C65.043 77.8242 64.8711 77.8633 64.6328 77.8867C64.1875 77.9297 63.6758 77.918 63.1602 77.6602C62.9102 77.5274 62.6797 77.3203 62.5156 77.086C62.3477 76.8477 62.2578 76.5899 62.2031 76.3438C62.1133 75.8477 62.1446 75.3945 62.2305 74.9766C62.4063 74.1328 62.7383 73.3906 63.1992 72.707C63.2696 72.6016 63.418 72.5703 63.5274 72.6445C63.6094 72.6992 63.6446 72.7969 63.625 72.8906L63.6211 72.9024C63.461 73.6485 63.3047 74.4063 63.2656 75.1094C63.2539 75.461 63.2578 75.8008 63.3438 76.0703C63.4258 76.3438 63.543 76.4883 63.7266 76.5742C63.9141 76.6719 64.211 76.707 64.5391 76.6914C64.6914 76.6914 64.9063 76.6641 65.0938 76.6485C65.2852 76.6328 65.4766 76.6172 65.668 76.6055L66.8203 76.5195C67.0117 76.5078 67.1992 76.4922 67.3828 76.4766C67.4766 76.4688 67.5664 76.457 67.6485 76.4453L67.75 76.4336C67.8321 76.332 67.9727 76.293 68.0938 76.3594C68.1641 76.4024 68.1914 76.4297 68.2305 76.5ZM55.9922 25.8828C55.086 25.6406 54.1602 25.5781 53.211 25.668C52.7344 25.7188 52.2578 25.8125 51.7852 25.9961C51.5469 26.0664 51.3203 26.207 51.0899 26.3242C50.875 26.4805 50.6446 26.6172 50.4571 26.8242C50.25 27.0117 50.1055 27.2539 49.9571 27.4922C49.8867 27.6094 49.8438 27.7383 49.7891 27.8594C49.7305 27.9844 49.6914 28.1133 49.6641 28.25C49.5352 28.7813 49.543 29.3633 49.7188 29.8672C49.8828 30.375 50.1641 30.8086 50.4883 31.1758C50.8203 31.543 51.1797 31.8477 51.6133 32.0899C51.711 32.1445 51.8399 32.1367 51.9336 32.0547C52.0469 31.9531 52.0586 31.7774 51.9571 31.6641L51.9414 31.6445C51.3946 31.0235 50.918 30.2891 50.7735 29.582C50.7071 29.2227 50.7149 28.8828 50.8203 28.5547C50.836 28.5156 50.8438 28.4727 50.8555 28.4336C50.8672 28.3906 50.8906 28.3516 50.9102 28.3125C50.9453 28.2344 50.9766 28.1485 51.0196 28.0742C51.1172 27.9414 51.1953 27.793 51.3281 27.6836C51.4297 27.5469 51.5938 27.457 51.7266 27.3399C51.8946 27.2539 52.0469 27.1485 52.2305 27.0781C52.5781 26.9024 52.9805 26.8047 53.3789 26.6953C54.1953 26.5117 55.0664 26.4102 55.9336 26.3438H55.9492C56.0469 26.336 56.1328 26.2695 56.1602 26.168C56.1953 26.043 56.1172 25.9141 55.9922 25.8828ZM63.3125 96.7422C63.1563 96.7344 63.0274 96.8516 63.0196 97.0078V97.0352C62.9805 97.8867 62.7305 98.7617 62.2188 99.2656C61.9571 99.5117 61.6563 99.711 61.2813 99.7969C61.1953 99.832 61.0977 99.8516 61 99.8672L60.711 99.9219C60.5313 99.9336 60.3516 99.9414 60.1875 99.9063C59.5235 99.8242 58.9492 99.2461 58.5196 98.5117C58.0899 97.7774 57.7735 96.9141 57.5039 96.0469L57.5 96.0313C57.4727 95.9375 57.3828 95.8711 57.2813 95.8672C57.1485 95.8672 57.043 95.9688 57.0391 96.0977C57.0235 97.0781 57.1875 98.043 57.5899 98.9805C57.7852 99.4492 58.0703 99.9024 58.461 100.305C58.8516 100.699 59.3985 101.012 59.9883 101.113C60.2852 101.164 60.5742 101.152 60.8594 101.125C60.9961 101.102 61.125 101.07 61.2578 101.043C61.3906 101.02 61.5235 100.992 61.6524 100.934C62.1758 100.766 62.6875 100.434 63.0391 99.9805C63.4024 99.5352 63.5938 98.9961 63.6719 98.4766C63.7383 97.9492 63.7071 97.4492 63.5664 96.9414C63.5352 96.832 63.4336 96.7461 63.3125 96.7422ZM77.4102 104.371C77.2696 104.301 77.1016 104.355 77.0313 104.496L77.0274 104.5C76.7031 105.133 76.3594 105.738 75.9375 106.188C75.5078 106.645 75.0313 106.867 74.4922 106.867C73.9414 106.863 73.4063 106.629 72.8946 106.223C72.3906 105.82 71.9219 105.289 71.4883 104.738L71.4766 104.723C71.418 104.652 71.3242 104.617 71.2305 104.641C71.1016 104.676 71.0274 104.805 71.0625 104.93C71.2617 105.688 71.6289 106.375 72.1797 106.98C72.4531 107.281 72.7852 107.551 73.1758 107.754C73.5664 107.953 74.0274 108.07 74.4727 108.086C74.9258 108.098 75.4063 107.988 75.8125 107.758C76.2149 107.531 76.5469 107.219 76.7852 106.871C77.2735 106.18 77.5 105.41 77.5625 104.645C77.5703 104.535 77.5156 104.426 77.4102 104.371ZM101.328 128.047C101.508 128.746 101.645 129.266 101.723 129.547C102.621 132.84 108.008 135.68 109.203 129.848C109.32 129.281 109.441 128.41 109.566 127.305C106.156 128.426 103.18 128.316 101.328 128.047ZM118.27 89.6328C118.25 89.5195 118.156 89.4219 118.031 89.4063C117.883 89.3867 117.742 89.4922 117.723 89.6445L117.719 89.6953C117.691 89.8906 117.637 90.1367 117.559 90.3477C117.484 90.5625 117.395 90.7695 117.277 90.9688C117.059 91.3672 116.77 91.7188 116.445 92.0391C116.117 92.3555 115.742 92.6328 115.348 92.8828C115.148 92.9961 114.934 93.1328 114.746 93.2266C114.559 93.3203 114.367 93.3789 114.18 93.4219C113.438 93.5977 112.656 93.1992 111.984 92.5508C111.32 91.9063 110.742 91.0781 110.227 90.2383L110.219 90.2227C110.168 90.1367 110.063 90.0899 109.961 90.1172C109.836 90.1524 109.758 90.2774 109.793 90.4024C110.063 91.4336 110.516 92.3985 111.223 93.2578C111.574 93.6875 112.016 94.0781 112.563 94.3555C113.105 94.6367 113.789 94.7383 114.414 94.6211C114.727 94.5547 115.02 94.4492 115.285 94.3086C115.551 94.1758 115.766 94.0313 116.004 93.8867C116.445 93.5625 116.891 93.2188 117.246 92.7813C117.969 91.9258 118.457 90.8086 118.27 89.6328ZM102.668 80.6211C102.844 80.4375 103 80.2383 103.141 80.0235C103.277 79.8008 103.387 79.586 103.465 79.2969C103.496 79.1914 103.457 79.0703 103.363 79C103.238 78.9141 103.066 78.9414 102.98 79.0625L102.945 79.1133C102.848 79.2461 102.699 79.4219 102.551 79.5586C102.398 79.7031 102.246 79.8399 102.07 79.957C101.734 80.207 101.363 80.4102 100.98 80.5899C100.586 80.75 100.195 80.918 99.7735 81.0235C99.5703 81.0938 99.3594 81.1367 99.1485 81.1953C99.0391 81.2227 98.9453 81.2422 98.8516 81.2539C98.7578 81.2774 98.6719 81.2774 98.5781 81.2891C98.2188 81.3164 97.9258 81.2461 97.6875 81.0703C97.4414 80.8945 97.2422 80.5781 97.0899 80.211C96.8008 79.4649 96.6914 78.5508 96.6328 77.6641V77.6524C96.625 77.5547 96.5586 77.4688 96.461 77.4414C96.336 77.4063 96.2031 77.4805 96.168 77.6055C96.0352 78.0781 95.9766 78.5469 95.9531 79.0391C95.9375 79.5235 95.9649 80.0235 96.1016 80.5313C96.2266 81.0352 96.4805 81.5664 96.9492 81.9805C97.4258 82.3945 98.0977 82.5391 98.6485 82.5078C98.7891 82.4961 98.9297 82.4844 99.0586 82.457C99.1953 82.4297 99.3281 82.4024 99.4375 82.3711C99.6758 82.3047 99.9102 82.2539 100.141 82.1641L100.488 82.0391L100.828 81.8906C101.055 81.8008 101.273 81.6719 101.488 81.5547C101.918 81.3008 102.32 80.9883 102.668 80.6211ZM84.4883 128.551C84.7617 129.613 84.961 130.375 85.0625 130.746C85.961 134.035 91.3477 136.875 92.543 131.043C92.6719 130.434 92.8008 129.461 92.9336 128.223C89.4492 129.191 86.4453 128.949 84.4883 128.551ZM85.5664 71.7539C85.793 71.7344 85.9961 71.711 86.2539 71.6289C86.3555 71.5977 86.4336 71.5078 86.4453 71.3945C86.4571 71.2422 86.3477 71.1094 86.1992 71.0938L86.1328 71.0899C85.9922 71.0742 85.7852 71.0469 85.6055 71.0078C85.4219 70.9688 85.2383 70.9258 85.0586 70.8711C84.6914 70.7695 84.3321 70.6367 83.9727 70.4961C83.6172 70.3516 83.2617 70.1992 82.9141 70.0313C82.793 69.961 82.6875 69.9024 82.6406 69.832C82.5899 69.7656 82.5586 69.7031 82.543 69.6016C82.5039 69.3985 82.586 69.0664 82.7149 68.7461C82.8438 68.4141 83.0274 68.086 83.2188 67.7539C83.6133 67.0938 84.0742 66.4375 84.5235 65.7735L84.5313 65.7617C84.5821 65.6875 84.586 65.5781 84.5274 65.4961C84.4531 65.3906 84.3047 65.3633 84.1992 65.4375C83.5039 65.918 82.8985 66.4922 82.3594 67.1602C82.0899 67.4922 81.8555 67.8594 81.6446 68.2656C81.543 68.4766 81.4571 68.6953 81.3985 68.9414C81.336 69.1875 81.293 69.457 81.3321 69.7617C81.3672 70.0625 81.5039 70.3828 81.7149 70.6289C81.9258 70.875 82.1875 71.0156 82.4258 71.125C82.8242 71.2774 83.2188 71.4336 83.6367 71.5352C84.0508 71.6445 84.4766 71.7188 84.9102 71.7539C85.125 71.7656 85.3477 71.7695 85.5664 71.7539ZM100.012 98.1953C99.8672 98.1485 99.711 98.2305 99.6641 98.3789L99.6563 98.4024C99.4024 99.2344 99.0274 100.059 98.5469 100.746C98.293 101.086 98.0352 101.41 97.7227 101.68L97.4883 101.875C97.4102 101.941 97.3321 102.004 97.2422 102.059L96.9922 102.227C96.918 102.262 96.8438 102.309 96.7696 102.332C96.4844 102.461 96.2071 102.441 95.8906 102.316C95.5703 102.188 95.2539 101.93 94.9531 101.637C94.3594 101.039 93.836 100.277 93.3438 99.5156L93.336 99.5039C93.2852 99.4219 93.1836 99.3789 93.0821 99.4024C92.9571 99.4375 92.8789 99.5664 92.9102 99.6914C93.1563 100.633 93.5508 101.516 94.1719 102.324C94.4805 102.727 94.8711 103.102 95.3946 103.375C95.6563 103.512 95.9649 103.598 96.2852 103.617C96.6055 103.641 96.9336 103.582 97.2188 103.469C97.3672 103.418 97.4922 103.34 97.6211 103.27L97.9453 103.047C98.0547 102.977 98.1563 102.895 98.2539 102.809C98.3516 102.723 98.4571 102.641 98.5469 102.547C98.9102 102.176 99.2305 101.77 99.4727 101.32C99.7266 100.879 99.8985 100.406 100.031 99.9297C100.148 99.4414 100.227 98.9688 100.211 98.4531C100.207 98.336 100.129 98.2305 100.012 98.1953ZM34.0781 46.4102C33.2031 46.4102 32.3516 46.5899 31.5313 46.9961C31.1211 47.1875 30.7305 47.4727 30.3946 47.8477C30.2188 48.0235 30.0938 48.2578 29.9649 48.4805C29.8711 48.7266 29.7656 48.9727 29.7422 49.2344C29.6836 49.5039 29.711 49.7305 29.7071 49.9727C29.7383 50.211 29.7539 50.4492 29.8242 50.6758C29.9414 51.1328 30.1172 51.5664 30.3633 51.9492C30.8399 52.7266 31.4688 53.3477 32.2383 53.793C32.3399 53.8516 32.4649 53.8438 32.5586 53.7656C32.6758 53.668 32.6953 53.4922 32.5938 53.375L32.5781 53.3555C32.0821 52.7578 31.6289 52.1016 31.3242 51.4336C31.2422 51.2695 31.1875 51.0938 31.1211 50.9297C31.0703 50.7578 31.0156 50.586 30.9922 50.4141C30.9492 50.2422 30.9453 50.0703 30.9258 49.9024C30.9336 49.7344 30.9141 49.5469 30.9492 49.4141C30.9531 49.2617 31.0156 49.1289 31.0547 48.9844C31.1328 48.8555 31.1914 48.7188 31.2969 48.5938C31.4844 48.332 31.7539 48.1016 32.0547 47.8945C32.6602 47.4805 33.4024 47.1563 34.1446 46.875L34.1602 46.8672C34.25 46.836 34.3125 46.75 34.3125 46.6485C34.3125 46.5195 34.2071 46.4102 34.0781 46.4102ZM24.6719 33.6055C25.0821 34.5352 25.625 35.3477 26.293 36.0781C26.375 36.168 26.5039 36.1953 26.6172 36.1445C26.7578 36.0781 26.8164 35.9141 26.7539 35.7735L26.7461 35.7617C26.3555 34.918 25.961 34.0625 25.6914 33.2227C25.5664 32.8008 25.4531 32.3789 25.461 32.0117C25.4571 31.8281 25.4805 31.6641 25.5274 31.5508C25.5508 31.4922 25.5781 31.4414 25.6133 31.4024C25.6328 31.3828 25.6446 31.3594 25.6719 31.3438C25.6914 31.3281 25.7071 31.3086 25.7539 31.2813C26.0547 31.0469 26.461 30.8672 26.8711 30.6992C27.2813 30.5274 27.7188 30.3906 28.1563 30.2461C29.0391 29.9766 29.9531 29.7383 30.8594 29.4844L30.8711 29.4805C30.9649 29.4531 31.0352 29.3672 31.043 29.2656C31.0469 29.1328 30.9453 29.0235 30.8164 29.0195C29.8399 28.9766 28.875 29.0586 27.9102 29.2383C27.4258 29.3203 26.9453 29.4453 26.4649 29.6016C25.9883 29.7656 25.5078 29.961 25.0391 30.2891C24.9844 30.3203 24.9141 30.3828 24.8438 30.4453C24.7774 30.5039 24.7149 30.5742 24.6602 30.6445C24.543 30.7891 24.4571 30.9492 24.3946 31.1133C24.2735 31.4414 24.2461 31.7617 24.2617 32.0547C24.3047 32.6367 24.4649 33.1367 24.6719 33.6055ZM13.7578 50.8399C13.8867 51.0078 14.0156 51.1797 14.1719 51.3281C14.25 51.4024 14.3321 51.4727 14.4258 51.5391C14.5196 51.6055 14.5977 51.6563 14.7383 51.7227C14.8164 51.7578 14.9102 51.7578 14.9883 51.711C15.1133 51.6328 15.1524 51.4727 15.0742 51.3477L15.0078 51.2383C14.9883 51.207 14.9219 51.1328 14.8828 51.0664C14.836 51.0039 14.7969 50.9297 14.7539 50.8594C14.6719 50.7149 14.6016 50.5625 14.543 50.4063C14.4141 50.0938 14.3281 49.7578 14.25 49.418C14.1797 49.082 14.125 48.7305 14.086 48.3789C14.0742 48.207 14.0469 48.0195 14.043 47.8555C14.0508 47.7031 14.0235 47.5469 14.0508 47.4024C14.0742 47.2578 14.0781 47.1094 14.1367 46.9805C14.1641 46.8399 14.2461 46.7188 14.3047 46.586C14.4492 46.336 14.6446 46.1016 14.8946 45.8945C15.3946 45.4844 16.0586 45.1641 16.7305 44.9141L16.75 44.9063C16.8399 44.875 16.9024 44.793 16.9063 44.6953C16.9102 44.5625 16.8086 44.4531 16.6797 44.4492C15.8594 44.418 15.0547 44.6016 14.3008 45.043C13.9219 45.2539 13.5899 45.582 13.3164 45.957C13.1875 46.1563 13.0703 46.3633 13 46.5899C12.9063 46.8086 12.875 47.0352 12.836 47.2656C12.8125 47.3828 12.8164 47.4922 12.8203 47.6055L12.8242 47.9453C12.8399 48.1563 12.8711 48.3477 12.8985 48.5469C12.9805 48.9414 13.0547 49.3399 13.2031 49.7227C13.3399 50.1094 13.5196 50.4883 13.7578 50.8399ZM42.7031 91.6016C42.8125 91.8555 42.961 92.1055 43.1485 92.3438C43.3321 92.582 43.5742 92.8125 43.8711 92.9766C44.4727 93.3242 45.2461 93.2774 45.7617 93.086C46.25 92.9141 46.7461 92.7188 47.1992 92.4414C47.6602 92.1602 48.086 91.8125 48.4297 91.3789C48.5938 91.1563 48.75 90.9219 48.8555 90.6602C48.961 90.3945 49.0391 90.1485 49.043 89.8164C49.043 89.707 48.9805 89.6016 48.8711 89.5586C48.7305 89.5039 48.5703 89.5742 48.5156 89.711L48.4883 89.7774C48.4649 89.8399 48.418 89.9531 48.3672 90.0391C48.3164 90.1328 48.2617 90.2227 48.1992 90.3047C48.0742 90.4766 47.9258 90.6328 47.7696 90.7774C47.4492 91.0625 47.0742 91.2891 46.6797 91.4805C46.2735 91.6641 45.8516 91.8242 45.4102 91.9414C45.0117 92.0625 44.7188 92.0469 44.461 91.9063C44.1953 91.7774 43.9492 91.4649 43.7539 91.0899C43.5547 90.7227 43.4141 90.2891 43.2813 89.8477C43.0313 88.957 42.8672 88.0039 42.7188 87.0547V87.043C42.6992 86.9453 42.625 86.8633 42.5196 86.8477C42.3906 86.8281 42.2696 86.918 42.25 87.0469C42.1016 88.0469 42.1016 89.0508 42.2617 90.0703C42.3399 90.582 42.4766 91.0938 42.7031 91.6016ZM58.6446 12.375L58.6602 12.3594C59.0977 11.8789 59.5742 11.4219 60.0742 11.0703C60.5742 10.7227 61.1055 10.4727 61.6524 10.3985C61.9219 10.3555 62.2031 10.3516 62.4844 10.3906C62.7656 10.418 63.0469 10.4922 63.336 10.586C63.9102 10.7813 64.4805 11.086 65.0703 11.4141H65.0742C65.168 11.4688 65.293 11.461 65.3828 11.3945C65.5078 11.3008 65.5313 11.1211 65.4375 10.9961C65.0078 10.4258 64.4492 9.93361 63.7656 9.58595C63.0977 9.2383 62.2656 9.04689 61.4571 9.19142C60.6524 9.32814 59.9336 9.74611 59.3985 10.2774C58.8633 10.8125 58.4649 11.4336 58.2422 12.1445C58.2149 12.2305 58.2383 12.3281 58.3086 12.3906C58.4063 12.4805 58.5547 12.4727 58.6446 12.375ZM18.0899 72.6602C17.9414 72.6211 17.7891 72.7031 17.7461 72.8516C17.7578 72.8086 17.7461 72.8281 17.7422 72.8203C17.7383 72.8203 17.7305 72.8242 17.7227 72.8242C17.7031 72.8281 17.6797 72.832 17.6524 72.836C17.5977 72.8438 17.5274 72.8438 17.4492 72.836C17.2969 72.8242 17.1172 72.7735 16.9453 72.7188C16.5899 72.6094 16.2305 72.4375 15.8711 72.2656L15.336 71.9883C15.1446 71.8906 15.0078 71.8086 14.8906 71.7149C14.6446 71.5274 14.4961 71.3125 14.4258 71.0391C14.2735 70.4844 14.4766 69.707 14.7617 68.9883C15.0547 68.2578 15.4414 67.5235 15.836 66.8008L15.8438 66.7891C15.8906 66.707 15.8789 66.5977 15.8125 66.5235C15.7266 66.4258 15.5781 66.4141 15.4805 66.5C14.8164 67.0781 14.2696 67.7578 13.8242 68.5352C13.5977 68.9258 13.418 69.3477 13.2891 69.8086C13.1719 70.2735 13.1133 70.793 13.2422 71.3399C13.3008 71.6094 13.4375 71.875 13.5938 72.1094C13.7656 72.336 13.9649 72.543 14.1875 72.6836C14.4102 72.8399 14.6485 72.9453 14.836 73.0274L15.1406 73.1563L15.4492 73.2695C15.8672 73.418 16.2969 73.543 16.7696 73.5977C17.0078 73.6133 17.25 73.6328 17.5156 73.5781C17.6485 73.5547 17.7891 73.5117 17.9258 73.4375C17.9922 73.3945 18.0625 73.3477 18.1211 73.2813C18.1524 73.25 18.1836 73.211 18.2071 73.1719C18.2344 73.1211 18.2539 73.0977 18.2813 73.0039C18.3203 72.8555 18.2383 72.7031 18.0899 72.6602ZM73.2813 39.3477C72.8008 39.6953 72.3281 40.1055 71.9922 40.7031C71.8321 41.0039 71.7031 41.3477 71.6797 41.7149C71.6524 42.0664 71.7188 42.4649 71.8125 42.7227C71.9844 43.3008 72.2383 43.8633 72.6094 44.3438C73.3321 45.3164 74.3555 45.9961 75.5156 46.2539C75.6328 46.2813 75.7578 46.2266 75.8164 46.1133C75.8906 45.9805 75.8399 45.8125 75.7031 45.7422L75.6719 45.7227C74.7891 45.2539 74.0078 44.5508 73.5117 43.7305C73.2617 43.3164 73.0742 42.875 72.9649 42.4063C72.8906 42.1485 72.8789 42.0039 72.8906 41.8164C72.9024 41.6406 72.9727 41.4649 73.0625 41.2891C73.2461 40.9297 73.5977 40.5938 73.9766 40.2891C74.3633 39.9805 74.8008 39.7149 75.2539 39.461C76.1641 38.957 77.1485 38.5235 78.1367 38.1094L78.1446 38.1055C78.2383 38.0664 78.3008 37.9649 78.2852 37.8594C78.2696 37.7305 78.1524 37.6406 78.0235 37.6563C76.9141 37.793 75.8438 38.086 74.8008 38.5235C74.2774 38.7383 73.7696 39.0156 73.2813 39.3477ZM45.375 50.711C45.3867 50.8399 45.4375 50.9531 45.4688 51.0781L45.5821 51.4336L45.7149 51.7383C45.8946 52.1367 46.086 52.5352 46.3164 52.918C46.543 53.3008 46.8047 53.668 47.1055 54.0117C47.2578 54.1797 47.4258 54.3438 47.6055 54.4961C47.6992 54.5664 47.7969 54.6367 47.9024 54.7031C47.9571 54.7344 48.0078 54.7656 48.0664 54.793C48.1289 54.8242 48.1758 54.8477 48.2774 54.8789C48.4219 54.9336 48.5821 54.8594 48.6328 54.7188C48.6875 54.5742 48.6133 54.4141 48.4727 54.3594C48.4766 54.3516 48.4297 54.3203 48.4063 54.2891C48.375 54.2617 48.3438 54.2227 48.3164 54.1914C48.2539 54.1211 48.1953 54.0469 48.1406 53.9727C48.0313 53.8125 47.918 53.6563 47.8242 53.4805C47.625 53.1406 47.4531 52.7774 47.2813 52.4102C47.1289 52.0391 46.9571 51.668 46.8203 51.2813L46.711 50.9961L46.6446 50.7461C46.625 50.6602 46.5821 50.582 46.5821 50.4961C46.5742 50.4141 46.5664 50.332 46.5547 50.25C46.5352 50.1641 46.5391 50.086 46.5469 50.0039C46.5547 49.9219 46.5547 49.8399 46.5625 49.7578C46.6094 49.5977 46.6211 49.4297 46.6953 49.2735C46.7969 48.9453 47.0117 48.6406 47.2305 48.336C47.6992 47.7422 48.3281 47.2031 48.9922 46.7266L49.0078 46.7149C49.0821 46.6602 49.1211 46.5586 49.0938 46.461C49.0586 46.336 48.9297 46.2617 48.8047 46.2969C47.9336 46.543 47.1406 46.9844 46.4571 47.6367C46.125 47.9688 45.8164 48.3555 45.6133 48.8242C45.4883 49.043 45.4492 49.3047 45.3789 49.5508C45.3594 49.6797 45.3516 49.8086 45.3399 49.9375C45.3242 50.0664 45.3164 50.1992 45.3321 50.3242L45.375 50.711ZM20.0586 122.73C20.4727 124.387 20.7813 125.566 20.9141 126.059C21.8125 129.348 27.2031 132.191 28.3985 126.359C28.5625 125.566 28.7305 124.18 28.9063 122.383C25.2149 123.457 22.043 123.156 20.0586 122.73ZM36.9531 17.3828C37.0821 17.2813 37.2383 17.2383 37.3867 17.168C37.4571 17.1328 37.5508 17.125 37.6328 17.0977C37.7149 17.0781 37.7969 17.043 37.8789 17.0391C38.211 16.9649 38.5313 17.0039 38.8477 17.0781C39.4727 17.2422 40.0821 17.7617 40.5274 18.375L40.5469 18.3985C40.6133 18.4922 40.7305 18.5352 40.8477 18.5039C40.9961 18.461 41.0821 18.3086 41.0391 18.1602C40.9102 17.6953 40.6914 17.3047 40.3906 16.9297C40.086 16.5664 39.6914 16.2461 39.2149 16.0508C38.7461 15.8516 38.2071 15.7891 37.7149 15.8555C37.586 15.8555 37.4727 15.8945 37.3516 15.918C37.2305 15.9531 37.1094 15.9649 36.9922 16.0156C36.7539 16.1133 36.5117 16.1992 36.3047 16.3477C35.8672 16.6172 35.5235 16.9922 35.2539 17.3867C34.9844 17.7852 34.8008 18.211 34.6602 18.6445C34.3946 19.5117 34.3008 20.3867 34.3985 21.2656C34.4102 21.3633 34.4805 21.4453 34.5781 21.4688C34.7031 21.5 34.8321 21.4258 34.8633 21.2969L34.8672 21.2813C35.0625 20.4961 35.3125 19.7149 35.6328 19.0195C35.9688 18.332 36.3867 17.707 36.9531 17.3828ZM36.6836 123.398C37.0156 124.703 37.2617 125.637 37.375 126.059C38.2735 129.348 43.6602 132.191 44.8594 126.359C45.0117 125.617 45.1719 124.352 45.3321 122.711C41.6641 123.922 38.4961 123.711 36.6836 123.398ZM87.2735 15.5508L87.293 15.5352C88.0899 14.8399 89.0078 14.2617 89.9571 13.875C90.9141 13.5156 91.918 13.336 92.9102 13.4649L93.2813 13.5039L93.6328 13.5899C93.8789 13.625 94.0742 13.7383 94.2969 13.8164C94.7031 14.0156 95.0391 14.3047 95.3008 14.6719C95.8164 15.418 95.9414 16.5195 95.8711 17.543L95.8672 17.5703C95.8594 17.6914 95.9336 17.8047 96.0508 17.8477C96.1953 17.9024 96.3555 17.8281 96.4063 17.6836C96.6133 17.1094 96.6953 16.5352 96.6953 15.9258C96.6836 15.3203 96.5586 14.6875 96.2344 14.1133C95.9258 13.5313 95.4063 13.0664 94.836 12.75C94.543 12.6211 94.2461 12.4727 93.9414 12.418L93.4844 12.3047L93.0352 12.25C92.4297 12.1836 91.8125 12.2227 91.2188 12.332C90.625 12.457 90.0508 12.6602 89.5196 12.9297C88.4688 13.4922 87.5742 14.2617 86.9258 15.2461C86.8711 15.332 86.875 15.4453 86.9453 15.5274C87.0313 15.625 87.1797 15.6367 87.2735 15.5508ZM32 90.9805L31.9883 90.9883C31.2305 91.3164 30.4649 91.586 29.7617 91.582C29.0625 91.586 28.4805 91.2735 28.0078 90.7383C27.5313 90.207 27.1524 89.5156 26.8399 88.7852C26.5274 88.0508 26.2617 87.2656 26.0117 86.4844L26.0039 86.4688C25.9688 86.3594 25.8672 86.2813 25.7461 86.2774C25.5938 86.2735 25.4649 86.3945 25.461 86.5469C25.4336 87.4336 25.5625 88.2969 25.8125 89.1524C26.0703 89.9961 26.4453 90.8477 27.1094 91.5664C27.4414 91.918 27.8477 92.2344 28.3281 92.4336C28.8086 92.625 29.3438 92.6992 29.836 92.6211C30.3242 92.5547 30.7813 92.3945 31.1758 92.168C31.3828 92.0664 31.5586 91.9258 31.7461 91.8008C31.9219 91.668 32.086 91.5195 32.25 91.375C32.3242 91.3086 32.3516 91.1992 32.3125 91.1055C32.2578 90.9844 32.1211 90.9297 32 90.9805ZM36.6875 73.0547L36.461 72.75C36.4219 72.6992 36.3828 72.6485 36.3516 72.5977L36.2656 72.4258C36.211 72.3125 36.1524 72.2031 36.1016 72.0899C36.0664 71.9727 36.0274 71.8555 35.9961 71.7344C35.961 71.6172 35.9414 71.5 35.9258 71.3789C35.9102 71.2617 35.8906 71.1445 35.8828 71.0235C35.8789 70.793 35.8672 70.5547 35.9024 70.332C35.9375 69.875 36.0547 69.4453 36.1953 69.0313C36.3477 68.6172 36.5274 68.2305 36.7774 67.8594C36.8516 67.75 36.9961 67.7227 37.1055 67.7969C37.1875 67.8516 37.2227 67.9492 37.2031 68.0391V68.0586C37.0352 68.832 36.9102 69.6289 36.9414 70.3672C36.961 71.1133 37.1797 71.7735 37.5977 72.2422C37.7149 72.3477 37.8281 72.461 37.961 72.5586C38.1094 72.6485 38.2227 72.7422 38.3985 72.8281C38.7422 73.0117 39.0938 73.1719 39.4375 73.3008C39.7852 73.4219 40.1406 73.5274 40.4727 73.5391C40.6406 73.5586 40.7969 73.5352 40.9453 73.5039C41.0196 73.4844 41.0899 73.461 41.1563 73.4258C41.2227 73.4024 41.293 73.336 41.3203 73.3281L41.5235 73.2539C41.6446 73.211 41.7813 73.2735 41.8242 73.3945C41.8477 73.457 41.8438 73.5195 41.8164 73.5742C41.5547 74.1406 41.0235 74.3438 40.5391 74.4336C40.0469 74.5078 39.5742 74.4492 39.1328 74.3438C39.0274 74.3164 38.9141 74.293 38.8047 74.2617L38.4883 74.1524C38.2735 74.086 38.0821 73.9883 37.8789 73.9063C37.7774 73.8711 37.6719 73.8047 37.5664 73.7422L37.25 73.5547C37.1446 73.4922 37.0586 73.3945 36.961 73.3164C36.8711 73.2305 36.7696 73.1524 36.6875 73.0547Z" fill="#F5808C"/>
</svg>
