<svg width="132" height="134" viewBox="0 0 132 134" fill="none" xmlns="http://www.w3.org/2000/svg">
<path d="M51.9922 8.93752C49.5625 3.85939 43.7812 8.21095 43.7812 8.21095C44.7851 2.95705 41.8437 2.01173 41.8437 2.01173C37.043 0.742203 34.2383 6.58595 34.2383 6.58595C34.0859 1.18361 28.8789 0.746109 28.8789 0.746109C24.5 0.597671 23.5937 7.22658 23.5937 7.22658C20.1211 2.06252 16.625 4.6133 16.625 4.6133C8.00389 11.1016 20.3203 21.0508 20.3203 21.0508L45.2109 18.7031C54.7656 13.9922 51.9922 8.93752 51.9922 8.93752ZM14.4219 33.5625C19.8828 40.0274 18.9883 47.1133 15.4062 47.4258C11.9687 47.7305 11.0664 45.6797 11.2461 43.0703C8.68357 47.0742 6.15232 44.9766 6.15232 44.9766C2.77732 39.5742 14.4219 33.5625 14.4219 33.5625Z" fill="#EA2E46"/>
<path d="M112.633 93.3984C109.75 98.9023 106.352 103.379 101.316 106.922C101.809 110.371 101.863 119.414 87.1329 113.246C86.6563 113.379 86.168 113.508 85.6719 113.633C80.6407 114.906 73.8868 115.441 66.6524 114.875C53.5313 124.293 51.9766 113.676 51.8243 112.145C42.2461 109.27 33.2461 104.102 27.5704 95.8437C21.3516 86.7929 19.8985 78.2734 20.5782 71.9101C21.5196 63.0898 24.2266 47.0859 44.0977 45.3945C63.9688 43.707 74.5313 47.5937 84.6368 48.7422C90.3868 49.3945 98.3477 48.4922 102.563 47.4023C103.227 47.2304 103.863 47.207 104.481 47.3086C106.606 47.6679 112.719 47.6484 114.25 50.1406C115.977 52.9531 113.039 58.4414 113.93 61.582C114.719 64.3594 115.16 66.7656 115.227 67.914C115.453 71.8359 117.801 83.5312 112.633 93.3984Z" fill="#DBA25C"/>
<path d="M127.953 44.6992C125.449 43.8828 119.617 46.9805 119.617 46.9805C119.617 46.9805 128.645 41.3242 129.738 38.6797C130.832 36.0352 127.879 33.7969 124.941 33.4219C122.004 33.0469 117.246 38.168 117.246 38.168C117.246 38.168 122.07 32.3438 122.313 29.1758C122.555 26.0117 119.66 24.5859 116.547 26.6719C113.438 28.7578 104.492 47.125 104.492 47.125C104.488 47.1875 104.484 47.25 104.48 47.3125C109.008 48.0742 112.25 55.668 113.93 61.582C118.953 60.3906 127.105 58.3047 127.902 57.1328C129.063 55.4297 129.523 54.8906 127.547 53.7656C126.047 52.9102 120.781 53.5469 120.781 53.5469C120.781 53.5469 126.969 52.1719 129.824 49.7539C132.68 47.3359 130.457 45.5117 127.953 44.6992ZM84.4336 64.8789C84.5781 65.1602 84.8672 65.3359 85.1836 65.3359C85.3164 65.3359 85.4453 65.3008 85.5664 65.2422C86.0078 65.0117 86.3399 64.7266 86.5899 64.4961C86.8633 64.2344 87.1211 63.9414 87.3555 63.6289C87.586 63.3203 87.793 62.9883 87.9688 62.6406C88.1133 62.3438 88.293 61.9414 88.3789 61.4492C88.4141 61.2539 88.3789 61.0469 88.2852 60.8711C88.1289 60.5781 87.8281 60.3984 87.4961 60.3984C87.3516 60.3984 87.2071 60.4336 87.0781 60.5039C86.6367 60.7383 86.3086 61.0313 86.0703 61.2656C85.7969 61.5391 85.5469 61.8398 85.3242 62.1563C85.1016 62.4766 84.9024 62.8125 84.7383 63.1602C84.6016 63.4609 84.4336 63.8711 84.3516 64.3594C84.3242 64.5391 84.3516 64.7188 84.4336 64.8789ZM87.2422 90.8242C87.1992 90.8242 87.1524 90.8281 87.0938 90.8359C87.0313 90.8477 86.9727 90.8594 86.9102 90.8711C87.7188 86.6406 86.3946 82.0703 85.418 80.0391C84.836 78.8242 84.0352 77.0313 82.9649 75.2773C82.918 75.1172 82.8281 74.9766 82.7071 74.8633C82.0117 73.7773 81.2149 72.7305 80.3008 71.8711C80.6524 71.8047 80.9492 71.6914 81.1797 71.5898C81.4922 71.4531 81.793 71.2773 82.0781 71.0781C82.3594 70.8789 82.625 70.6484 82.8633 70.3945C83.0664 70.1719 83.3203 69.8672 83.5156 69.4453C83.5821 69.293 83.6094 69.125 83.5899 68.957C83.5313 68.5039 83.1485 68.1641 82.6914 68.1641C82.6524 68.1641 82.6172 68.1641 82.5781 68.1719C82.1211 68.2266 81.7539 68.3789 81.4805 68.5078C81.168 68.6563 80.8711 68.8398 80.5977 69.0508C80.3203 69.2617 80.0625 69.5 79.8321 69.7578C79.6367 69.9844 79.3867 70.2969 79.2031 70.7188C79.1719 70.7891 79.1524 70.8594 79.1406 70.9297C77.5235 69.832 75.5977 69.3672 73.3164 70.168C70.9688 71.2344 68.3008 72.0742 65.3086 72.4883C61.0469 73.0859 57.8946 74.4649 55.6485 75.9024C52.3711 77.9961 50.2696 81.9297 50.5156 85.4766C50.6289 87.1211 50.9766 89.1055 51.7696 91.3477C54.1289 98.0313 65.461 102.715 79.0313 99.0352C79.4375 98.9258 79.8321 98.8125 80.2188 98.6953C83.1172 97.625 84.9024 95.8555 85.9375 93.8047C86.3281 93.6524 86.6992 93.4531 87.0391 93.207C87.4649 92.8906 87.7813 92.5508 88.0078 92.168C88.1133 91.9922 88.1524 91.7813 88.1211 91.5742C88.0508 91.1406 87.6836 90.8242 87.2422 90.8242ZM91.4531 84.6641C91.2696 84.625 91.086 84.6094 90.8946 84.6094C90.7344 84.6094 90.5781 84.6172 90.3867 84.6445C90.0742 84.6953 89.7696 84.7774 89.4805 84.8945C89.1836 85.0117 88.9063 85.1602 88.6406 85.3399C88.418 85.4961 88.1289 85.7188 87.8711 86.0703C87.8047 86.168 87.7539 86.2774 87.7305 86.3906C87.6797 86.6133 87.7188 86.8438 87.8399 87.0391C87.9649 87.2344 88.1563 87.3672 88.3789 87.418C88.586 87.4649 88.793 87.4883 89.0117 87.4883C89.1446 87.4883 89.2852 87.4805 89.4453 87.4609C89.7539 87.4258 90.0625 87.3516 90.3594 87.2461C90.6563 87.1445 90.9414 87.0039 91.211 86.832C91.4375 86.6836 91.7344 86.4649 92 86.1172C92.0781 86.0078 92.1367 85.8828 92.1641 85.75C92.2656 85.2539 91.9453 84.7695 91.4531 84.6641ZM87.3242 76.5156C87.0313 76.7539 86.7696 76.9727 86.4844 77.2734C86.3633 77.4024 86.2852 77.5664 86.2656 77.7422C86.2344 77.9649 86.2969 78.1875 86.4336 78.3633C86.5703 78.5391 86.7696 78.6524 86.9883 78.6797C87.1094 78.6953 87.2305 78.7031 87.3516 78.7031C87.6719 78.7031 88.0039 78.6524 88.3672 78.543C88.7813 78.418 89.1797 78.2305 89.5469 77.9844C89.9102 77.7422 90.2383 77.4453 90.5156 77.1055C90.8399 76.7031 91.0508 76.3008 91.1641 75.8789C91.2149 75.6914 91.1992 75.4883 91.125 75.3047C90.9844 74.9727 90.6602 74.7578 90.3008 74.7578C90.1836 74.7578 90.0664 74.7813 89.9453 74.832C89.5664 74.9922 89.2617 75.1719 88.9531 75.3594C88.6641 75.5391 88.3946 75.7227 88.125 75.9141C87.8438 76.1133 87.5821 76.3086 87.3242 76.5156ZM87.7617 65.8594C87.5274 65.8594 87.2969 65.957 87.125 66.1328C86.8086 66.457 86.5508 66.7813 86.2969 67.0898L86.2188 67.1875L85.418 68.1836L84.6133 69.1875L84.5039 69.3242C84.2617 69.625 84.0156 69.9375 83.7656 70.3047C83.6367 70.4961 83.5938 70.7305 83.6446 70.9531C83.7344 71.332 84.0625 71.5938 84.4492 71.5938C84.5117 71.5938 84.5742 71.5859 84.6367 71.5703C85.1446 71.4531 85.6406 71.2266 86.1602 70.8711C86.6016 70.5703 87.0039 70.2031 87.3555 69.7813C87.7071 69.3672 87.9961 68.9063 88.2227 68.4102C88.4766 67.8398 88.6133 67.3047 88.6406 66.7813C88.6485 66.5273 88.5547 66.2813 88.375 66.1094C88.2071 65.9492 87.9922 65.8594 87.7617 65.8594ZM52.7813 67.2148C58.1563 66.1484 57.5547 57.6875 57.5547 57.6875C60.6094 62.3516 66.6211 63.6563 70.6211 61.6914C74.6211 59.7305 72.0508 53.0352 72.0508 53.0352C72.0508 53.0352 80.875 55.8984 84.6367 48.7422C84.6367 48.7422 70.5625 46.5938 55.4571 30.0391C47 20.7695 40.9922 7.27344 23.0274 13.0313C5.06643 18.7891 13.6953 37.3516 17.8946 44.3438C23.2422 53.2539 20.6328 71.9063 20.6328 71.9063C28.5742 71.5977 29.3399 64.6289 29.3399 64.6289C29.3399 64.6289 31.8321 71.7461 36.2696 70.75C40.7031 69.75 41.6133 61.8672 41.6133 61.8672C41.6133 61.8672 47.4102 68.2773 52.7813 67.2148ZM49.9805 123.828C48.25 123.105 43.6914 121.434 41.7696 122.852C39.7578 124.336 38.6914 125.984 38.6485 126.055C38.4297 126.391 38.5274 126.84 38.8672 127.059C38.9883 127.137 39.1211 127.172 39.2578 127.172C39.4961 127.172 39.7305 127.055 39.8672 126.84C39.8789 126.824 40.8477 125.34 42.6289 124.023C43.1172 123.664 44.1485 123.684 45.3477 123.91C45.3164 123.918 45.2852 123.926 45.2578 123.934C44.1641 124.254 41.8438 126.57 41.1563 127.273C40.8789 127.563 40.8828 128.023 41.1719 128.301C41.3125 128.441 41.4922 128.508 41.6758 128.508C41.8633 128.508 42.0547 128.434 42.1953 128.289C43.4727 126.98 45.1602 125.477 45.6641 125.332C46.0117 125.227 46.9727 125.23 48.0078 125.277C47.1133 125.906 46.1641 126.629 45.8125 127.109C45.1446 128.035 44.7188 131.289 44.6055 132.266C44.5586 132.664 44.8438 133.023 45.2422 133.07C45.2696 133.074 45.3008 133.074 45.3281 133.074C45.6914 133.074 46.0039 132.805 46.0469 132.434C46.2578 130.617 46.6797 128.391 46.9883 127.969C47.3516 127.469 49.3008 126.117 50.5703 125.32C50.5781 125.316 50.5821 125.309 50.5899 125.305C50.6055 125.297 50.6172 125.289 50.6289 125.277C50.6367 125.273 50.6406 125.27 50.6485 125.266C50.6563 125.258 50.6641 125.25 50.6719 125.242C50.6836 125.23 50.6953 125.219 50.7071 125.207C50.7149 125.199 50.7266 125.188 50.7344 125.18L56.3906 118.59C55.8516 118.469 55.3789 118.273 54.961 118.023L49.9805 123.828ZM118.074 126.195C118.16 126.586 117.91 126.973 117.52 127.055C117.453 127.07 111.504 128.281 107.848 124.18C107.906 124.918 108.102 125.781 108.605 126.598C109.504 128.059 111.164 129.047 113.535 129.531C113.926 129.613 114.18 129.996 114.098 130.391C114.031 130.734 113.727 130.973 113.391 130.973C113.34 130.973 113.293 130.965 113.242 130.957C110.453 130.387 108.473 129.172 107.355 127.344C106.895 126.586 106.637 125.813 106.5 125.09C106.012 126.824 106.094 129.289 108.664 131.922C108.945 132.211 108.941 132.668 108.656 132.949C108.512 133.09 108.328 133.156 108.148 133.156C107.961 133.156 107.77 133.086 107.629 132.938C102.938 128.137 105.305 123.637 106.34 122.141L99.3985 114.184C99.7969 113.867 100.121 113.504 100.387 113.105L107.82 121.629C107.832 121.645 107.844 121.664 107.855 121.684C107.875 121.707 107.895 121.73 107.91 121.762C110.734 126.938 116.953 125.688 117.215 125.633C117.605 125.551 117.992 125.801 118.074 126.195Z" fill="#DA7747"/>
<path d="M91.3438 85.1836C91.0273 85.1172 90.7422 85.1328 90.4648 85.1719C90.1914 85.211 89.9258 85.2852 89.6758 85.3867C89.4219 85.4883 89.1797 85.6133 88.9453 85.7735C88.7148 85.9336 88.4922 86.1172 88.3008 86.3828C88.2734 86.418 88.2539 86.461 88.2461 86.5078C88.2031 86.6836 88.3164 86.8633 88.4961 86.9024C88.8125 86.9727 89.1016 86.9649 89.3828 86.9375C89.6602 86.9024 89.9258 86.8399 90.1836 86.7461C90.4414 86.6563 90.6875 86.5391 90.9219 86.3867C91.1562 86.2344 91.3828 86.0586 91.5742 85.8008C91.6094 85.7539 91.6328 85.7031 91.6445 85.6445C91.6914 85.4336 91.5547 85.2266 91.3438 85.1836ZM88.2148 78.0352C88.5859 77.9258 88.9336 77.7578 89.2539 77.543C89.5742 77.332 89.8633 77.0703 90.1055 76.7735C90.3437 76.4727 90.5469 76.1367 90.6523 75.7422C90.6719 75.668 90.668 75.586 90.6367 75.5078C90.5586 75.3242 90.3438 75.2383 90.1602 75.3164L90.1484 75.3203C89.8008 75.4649 89.5117 75.6367 89.2344 75.8086C88.957 75.9805 88.6914 76.1602 88.4336 76.3438C88.1719 76.5313 87.918 76.7227 87.6562 76.9258C87.3984 77.1367 87.1367 77.3516 86.875 77.6289L86.8711 77.6367C86.8281 77.6836 86.7969 77.7422 86.7891 77.8086C86.7656 77.9805 86.8867 78.1328 87.0547 78.1563C87.457 78.207 87.8477 78.1445 88.2148 78.0352ZM87.5977 91.6602C87.5664 91.461 87.3828 91.3281 87.1875 91.3594H87.1758C86.7852 91.4219 86.4492 91.5235 86.1211 91.6289C85.7891 91.7383 85.4727 91.8555 85.1602 91.9805C84.8438 92.1055 84.5312 92.2344 84.2148 92.3789C83.8984 92.5274 83.5781 92.6836 83.2422 92.8985L83.2344 92.9024C83.1797 92.9414 83.1367 92.9961 83.1133 93.0625C83.0586 93.2227 83.1445 93.3985 83.3008 93.4531C83.6992 93.586 84.1055 93.6133 84.5039 93.5899C84.9023 93.5625 85.2969 93.4766 85.6719 93.3399C86.0469 93.2031 86.4023 93.0156 86.7227 92.7813C87.043 92.543 87.3359 92.2617 87.5508 91.8985C87.5938 91.832 87.6133 91.7461 87.5977 91.6602ZM82.8906 84.4375C83.1836 84.3633 83.4609 84.2578 83.7266 84.125C83.9922 83.9961 84.2422 83.8399 84.4766 83.6524C84.7109 83.461 84.9336 83.25 85.1133 82.961C85.1484 82.9063 85.1719 82.8438 85.1719 82.7774C85.1836 82.5664 85.0234 82.3867 84.8125 82.375C84.4727 82.3555 84.1719 82.4141 83.8789 82.4961C83.5938 82.582 83.3203 82.6914 83.0586 82.836C82.8008 82.9727 82.5547 83.1406 82.3242 83.336C82.0937 83.5313 81.875 83.7539 81.6953 84.0469C81.668 84.0899 81.6523 84.1406 81.6484 84.1953C81.6367 84.3711 81.7695 84.5274 81.9492 84.5391C82.293 84.5625 82.5977 84.5117 82.8906 84.4375ZM81.8047 76.461C82.0352 76.2539 82.2539 76.0235 82.4258 75.7188C82.457 75.6641 82.4766 75.5938 82.4766 75.5235C82.4727 75.3164 82.3008 75.1485 82.0898 75.1524C81.7422 75.1563 81.4375 75.2383 81.1484 75.3399C80.8555 75.4414 80.582 75.5781 80.3242 75.7344C80.0664 75.8945 79.8242 76.0781 79.5977 76.2891C79.3711 76.5039 79.1563 76.7422 78.9883 77.0508C78.9609 77.0938 78.9492 77.1485 78.9492 77.2031C78.9492 77.3828 79.0938 77.5274 79.2695 77.5274C79.6211 77.5274 79.9297 77.4531 80.2266 77.3594C80.5195 77.2617 80.7969 77.1367 81.0625 76.9883C81.3281 76.8399 81.5742 76.6641 81.8047 76.461ZM79.6602 71.0938C79.6797 71.2695 79.8398 71.3985 80.0156 71.3789C80.3672 71.3399 80.6719 71.2344 80.9648 71.1094C81.25 70.9805 81.5195 70.8242 81.7734 70.6445C82.0273 70.4649 82.2617 70.2656 82.4766 70.0352C82.6875 69.8008 82.8867 69.5508 83.0312 69.2266C83.0586 69.1641 83.0742 69.0938 83.0625 69.0235C83.0391 68.8164 82.8516 68.668 82.6445 68.6953C82.293 68.7383 81.9922 68.8516 81.707 68.9844C81.4258 69.1211 81.1602 69.2852 80.9141 69.4727C80.668 69.6602 80.4414 69.8711 80.2305 70.1055C80.0234 70.3438 79.832 70.6055 79.6875 70.9336C79.6641 70.9805 79.6563 71.0391 79.6602 71.0938ZM84.1602 70.832C84.1953 70.9922 84.3555 71.0938 84.5156 71.0547C85.0078 70.9414 85.4531 70.711 85.8594 70.4375C86.2656 70.1563 86.6328 69.8203 86.9492 69.4414C87.2695 69.0625 87.5352 68.6445 87.7422 68.1914C87.9414 67.7422 88.0859 67.2617 88.1094 66.7578C88.1172 66.6602 88.082 66.5625 88.0078 66.4883C87.8672 66.3516 87.6445 66.3594 87.5117 66.4961L87.5039 66.5039C87.1758 66.8438 86.9023 67.1836 86.6289 67.5195L85.832 68.5156L85.0273 69.5156C84.7539 69.8555 84.4766 70.1992 84.207 70.5938L84.2031 70.6016C84.1602 70.668 84.1406 70.75 84.1602 70.832ZM84.9062 64.6367C84.9844 64.7891 85.1719 64.8477 85.3242 64.7695C85.6758 64.586 85.9609 64.3555 86.2266 64.1094C86.4844 63.8633 86.7187 63.5938 86.9336 63.3125C87.1445 63.0274 87.332 62.7266 87.4922 62.4063C87.6523 62.086 87.7891 61.7461 87.8555 61.3594C87.8711 61.2813 87.8594 61.1953 87.8203 61.1211C87.7266 60.9414 87.5039 60.875 87.3242 60.9727C86.9766 61.1563 86.6992 61.3906 86.4414 61.6445C86.1875 61.8945 85.9609 62.168 85.7578 62.457C85.5547 62.75 85.375 63.0547 85.2188 63.3828C85.0703 63.711 84.9375 64.0508 84.875 64.4453C84.8633 64.5078 84.875 64.5742 84.9062 64.6367ZM97.5195 83.9414C97.3867 87.3086 92.8828 94.8906 80.2188 98.6953C81 97.086 81.6953 95.0625 81.6445 93.0078C81.5313 88.4492 76.5977 89.8125 76.5977 89.8125C76.5977 89.8125 81.8437 86.9492 80.1211 83.3672C78.4023 79.7813 73.457 82.3985 73.457 82.3985C73.457 82.3985 76.9883 79.086 76.9492 74.0742C76.9297 71.8164 75.207 70.707 73.3164 70.168C79.2813 67.4492 83.1914 63.2383 85.1094 60.586C87.7812 56.8906 92.4688 52.0781 93.6445 59.8086C94.8203 67.5352 87.9102 73.5352 87.9102 73.5352C87.9102 73.5352 95.4063 68.4063 96.6758 73C97.9453 77.5938 89.5664 83.5625 89.5664 83.5625C89.5664 83.5625 97.6602 80.4727 97.5195 83.9414ZM125.57 55.4141C125.27 55.3086 124.984 55.2852 124.707 55.2852C124.43 55.2891 124.16 55.3281 123.898 55.3945C123.633 55.461 123.379 55.5547 123.129 55.6797C122.879 55.8086 122.637 55.9649 122.414 56.1992C122.383 56.2305 122.359 56.2695 122.344 56.3125C122.277 56.4844 122.367 56.6758 122.539 56.7383C122.844 56.8516 123.129 56.8828 123.406 56.8906C123.688 56.8945 123.957 56.8672 124.223 56.8086C124.488 56.7539 124.746 56.668 125 56.5547C125.25 56.4336 125.492 56.2852 125.719 56.0547C125.758 56.0156 125.789 55.9688 125.809 55.9141C125.879 55.711 125.773 55.4844 125.57 55.4141ZM115.582 34.8477C115.926 34.6875 116.199 34.4727 116.453 34.2422C116.703 34.0078 116.926 33.7461 117.117 33.4688C117.312 33.1953 117.48 32.8985 117.613 32.582C117.742 32.2656 117.848 31.9336 117.871 31.5586C117.875 31.4844 117.859 31.4063 117.82 31.3399C117.715 31.1641 117.488 31.1094 117.312 31.2149H117.309C116.992 31.4102 116.746 31.6406 116.52 31.8828C116.293 32.125 116.094 32.3828 115.918 32.6563C115.742 32.9258 115.582 33.2149 115.445 33.5156C115.313 33.8242 115.195 34.1406 115.137 34.5117C115.129 34.5742 115.137 34.6328 115.164 34.6914C115.234 34.8516 115.422 34.918 115.582 34.8477ZM122.406 38.8008C122.375 38.5977 122.188 38.461 121.984 38.4922C121.609 38.5547 121.281 38.6836 120.969 38.832C120.66 38.9883 120.371 39.1641 120.098 39.3711C119.828 39.5742 119.57 39.8008 119.332 40.0547C119.098 40.3125 118.879 40.5899 118.707 40.9336C118.68 40.9883 118.668 41.0508 118.68 41.1172C118.703 41.2891 118.859 41.4063 119.031 41.3828C119.414 41.3281 119.742 41.207 120.062 41.0625C120.375 40.918 120.668 40.7422 120.949 40.5469C121.227 40.3516 121.488 40.1328 121.73 39.8867C121.973 39.6367 122.195 39.3672 122.371 39.0274C122.406 38.961 122.422 38.8828 122.406 38.8008ZM126.074 47.1602L126.066 47.1563C125.754 47.1055 125.477 47.1172 125.211 47.1524C124.945 47.1875 124.695 47.2461 124.445 47.3281C124.199 47.4063 123.961 47.5078 123.723 47.6367C123.484 47.7695 123.25 47.918 123.02 48.1445L123.016 48.1485C122.984 48.1797 122.957 48.2188 122.941 48.2578C122.875 48.4297 122.953 48.6211 123.125 48.6875C123.43 48.8125 123.727 48.8438 124.02 48.8438C124.313 48.8399 124.594 48.7969 124.871 48.7149C125.145 48.6406 125.41 48.5235 125.656 48.375C125.902 48.2188 126.133 48.0313 126.324 47.7656C126.355 47.7188 126.379 47.6641 126.387 47.6094C126.426 47.3985 126.285 47.1953 126.074 47.1602ZM119.445 56.7031C118.996 56.6445 118.57 56.668 118.148 56.7149C117.73 56.7656 117.32 56.8477 116.918 56.961C116.516 57.0703 116.117 57.211 115.73 57.3828C115.344 57.5547 114.961 57.7539 114.602 58.0313C114.543 58.0781 114.5 58.1485 114.488 58.2305C114.465 58.3945 114.578 58.5469 114.742 58.5703C115.191 58.6367 115.621 58.6211 116.047 58.582C116.465 58.543 116.879 58.4649 117.285 58.3633C117.691 58.2656 118.09 58.1328 118.48 57.9727C118.871 57.8047 119.254 57.6133 119.613 57.3438C119.688 57.2852 119.738 57.2031 119.75 57.1055C119.777 56.9102 119.641 56.7305 119.445 56.7031ZM117.535 51.2266C118.164 50.9141 118.785 50.5781 119.371 50.1641C119.473 50.0938 119.531 49.9727 119.512 49.8438C119.488 49.6563 119.32 49.5274 119.133 49.5508C118.418 49.6406 117.738 49.8203 117.062 50.0156C116.391 50.2149 115.73 50.4453 115.082 50.707C114.43 50.9649 113.793 51.2539 113.164 51.5703C112.539 51.8906 111.918 52.2305 111.332 52.6524C111.25 52.711 111.203 52.8125 111.215 52.918C111.234 53.0781 111.379 53.1875 111.535 53.1719C112.254 53.082 112.938 52.9141 113.613 52.7266C114.289 52.5352 114.953 52.3086 115.605 52.0625C116.262 51.8125 116.902 51.5352 117.535 51.2266ZM113.945 46.332C114.457 45.9375 114.949 45.5195 115.422 45.0664C115.887 44.6133 116.344 44.1328 116.723 43.5703C116.785 43.4766 116.801 43.3477 116.746 43.2344C116.664 43.0625 116.461 42.9922 116.293 43.0742L116.289 43.0781C115.695 43.3633 115.148 43.6992 114.609 44.0508C114.074 44.4063 113.555 44.7852 113.051 45.1875C112.547 45.5899 112.059 46.0156 111.594 46.4727C111.133 46.9375 110.684 47.418 110.309 47.9844C110.254 48.0664 110.242 48.1719 110.289 48.2656C110.355 48.4102 110.527 48.4727 110.672 48.4024C111.27 48.1211 111.824 47.7891 112.367 47.4453C112.91 47.0938 113.434 46.7266 113.945 46.332ZM112.27 40.6719C112.652 39.9492 113.016 39.2149 113.305 38.4336C113.352 38.3125 113.324 38.168 113.227 38.0742C113.094 37.9453 112.883 37.9453 112.75 38.0781C112.168 38.6758 111.66 39.3203 111.172 39.9766C110.688 40.6367 110.23 41.3125 109.801 42.0078C109.371 42.6992 108.961 43.4063 108.582 44.1328C108.207 44.8594 107.848 45.6016 107.566 46.3867C107.527 46.4883 107.551 46.6055 107.633 46.6836C107.742 46.793 107.922 46.793 108.035 46.6836C108.621 46.0899 109.133 45.4492 109.629 44.7969C110.125 44.1406 110.586 43.4727 111.027 42.7813C111.469 42.0977 111.883 41.3945 112.27 40.6719ZM60.1016 94.8906C59.8789 94.711 59.6367 94.5586 59.3828 94.4375C59.1289 94.3164 58.8594 94.2188 58.582 94.1485C58.2969 94.082 58 94.0391 57.668 94.0703C57.6211 94.0742 57.5742 94.0899 57.5312 94.1172C57.3789 94.207 57.3281 94.4102 57.418 94.5664C57.5898 94.8516 57.7969 95.0664 58.0195 95.2578C58.2422 95.4453 58.4766 95.6016 58.7266 95.7344C58.9727 95.8672 59.2383 95.9727 59.5156 96.0508C59.793 96.125 60.0859 96.1719 60.4141 96.1485C60.4727 96.1406 60.5312 96.125 60.5859 96.0899C60.7656 95.9805 60.8242 95.7422 60.7109 95.5586C60.5391 95.2774 60.3242 95.0742 60.1016 94.8906ZM75.8789 96.0938H75.875C75.3008 96.0938 74.7617 96.1445 74.2266 96.1992C73.6914 96.2578 73.1641 96.3203 72.6328 96.3906C72.1055 96.457 71.5781 96.5313 71.043 96.6094C70.5078 96.6953 69.9688 96.7774 69.4102 96.918H69.4062C69.3203 96.9414 69.2461 97.0039 69.2109 97.0938C69.1484 97.2422 69.2227 97.4141 69.3711 97.4727C69.9219 97.6914 70.4961 97.7969 71.0742 97.8516C71.6484 97.9063 72.2305 97.8985 72.8047 97.832C73.3789 97.7695 73.9492 97.6524 74.5 97.4727C75.0508 97.2891 75.5859 97.0547 76.0742 96.7188C76.1641 96.6602 76.2227 96.5547 76.2227 96.4375C76.2227 96.2461 76.0664 96.0938 75.8789 96.0938ZM69.3516 93.4531C69.3711 93.2617 69.2305 93.086 69.0391 93.0664H69.0312C68.5742 93.0156 68.1523 93.0156 67.7344 93.0195C67.3164 93.0235 66.9062 93.0352 66.4961 93.0508C66.0859 93.0664 65.6758 93.086 65.2539 93.1094C64.8359 93.1367 64.4102 93.1641 63.9531 93.2461H63.9453C63.8711 93.2578 63.7969 93.3008 63.75 93.3711C63.6602 93.5078 63.6914 93.6914 63.8281 93.7852C64.2305 94.0625 64.6758 94.2305 65.1328 94.3477C65.5898 94.457 66.0625 94.5078 66.5312 94.5039C67.0039 94.4961 67.4727 94.4297 67.9258 94.3047C68.3789 94.1719 68.8203 93.9883 69.2109 93.6992C69.2852 93.6406 69.3398 93.5547 69.3516 93.4531ZM62.0859 88.5391C61.7109 88.4531 61.3555 88.4492 61.0078 88.4727C60.6602 88.5 60.3203 88.5586 59.9883 88.6445C59.6563 88.7305 59.3281 88.8477 59.0117 88.9922C58.6953 89.1445 58.3828 89.3164 58.0938 89.5742C58.0469 89.6133 58.0117 89.668 57.9961 89.7344C57.9531 89.9024 58.0547 90.0703 58.2266 90.1133C58.6016 90.2031 58.957 90.2149 59.3086 90.1992C59.6562 90.1836 60 90.1328 60.332 90.0547C60.668 89.9805 60.9961 89.875 61.3164 89.7344C61.6367 89.5938 61.9492 89.4297 62.2422 89.1797C62.3008 89.1289 62.3438 89.0586 62.3594 88.9805C62.4062 88.7813 62.2812 88.586 62.0859 88.5391ZM69.0859 86.9727C68.75 87.1406 68.4141 87.3242 68.0859 87.5781L68.082 87.582C68.0273 87.625 67.9883 87.6836 67.9727 87.7578C67.9375 87.9219 68.0391 88.086 68.2031 88.1211C68.6211 88.211 69.0234 88.207 69.4219 88.1719C69.8164 88.1289 70.2031 88.043 70.582 87.9219C70.957 87.8008 71.3164 87.6406 71.6602 87.4375C72.0039 87.2344 72.3281 86.9961 72.6055 86.6719C72.6602 86.6094 72.6914 86.5274 72.6914 86.4375C72.6914 86.2344 72.5273 86.0781 72.3281 86.0781H72.3242C71.9141 86.082 71.5391 86.1485 71.1758 86.2305C70.8125 86.3164 70.457 86.4219 70.1133 86.5469C69.7656 86.668 69.4258 86.8086 69.0859 86.9727ZM65.043 83.1719C65.4023 83.0781 65.7695 82.9688 66.1406 82.7891V82.7852C66.2031 82.7578 66.2578 82.707 66.2852 82.6367C66.3555 82.4844 66.2891 82.3047 66.1367 82.2344C65.75 82.0586 65.3555 81.9766 64.9609 81.9297C64.5664 81.8906 64.1719 81.8945 63.7812 81.9375C63.3906 81.9805 63.0078 82.0625 62.6328 82.1875C62.2578 82.3203 61.8945 82.4844 61.5586 82.7422C61.4922 82.7969 61.4453 82.8711 61.4258 82.957C61.3867 83.1563 61.5117 83.3438 61.707 83.3828H61.7109C62.1172 83.4649 62.4922 83.4766 62.8633 83.4688C63.2344 83.461 63.5977 83.4297 63.9609 83.3789C64.3203 83.332 64.6797 83.2617 65.043 83.1719ZM58.2656 82.461C58.4375 82.2344 58.6133 82 58.7773 81.7031L58.7891 81.6836C58.8203 81.625 58.8398 81.5586 58.8359 81.4844C58.8242 81.2813 58.6484 81.125 58.4453 81.1367C58.0703 81.1563 57.7305 81.2891 57.4258 81.4688C57.1172 81.6524 56.8477 81.8906 56.625 82.168C56.4023 82.4453 56.2227 82.7578 56.1055 83.0938C55.9883 83.4297 55.9258 83.793 55.9805 84.1641C55.9883 84.2188 56.0117 84.2735 56.0469 84.3164C56.1562 84.4531 56.3555 84.4727 56.4883 84.3672L56.5 84.3555C56.7695 84.1367 56.9766 83.9258 57.1758 83.7188C57.375 83.5117 57.5586 83.3086 57.7383 83.1016C57.918 82.8945 58.0898 82.6836 58.2656 82.461ZM63.1445 78.4336C63.6094 78.6211 64.0898 78.6992 64.5742 78.7266C65.0586 78.75 65.543 78.707 66.0156 78.6094C66.4883 78.5156 66.9531 78.3633 67.3867 78.1524C67.8242 77.9414 68.2344 77.6758 68.582 77.3164C68.6523 77.25 68.6875 77.1524 68.6797 77.0469C68.668 76.8555 68.5 76.707 68.3086 76.7227H68.3008C67.8281 76.7578 67.3945 76.8399 66.9688 76.9219C66.543 77.0039 66.1289 77.0938 65.7109 77.1914C65.2969 77.2852 64.8789 77.3828 64.457 77.4883C64.0352 77.5977 63.6094 77.707 63.1602 77.875L63.1562 77.8789C63.0781 77.9063 63.0156 77.9649 62.9844 78.043C62.9219 78.1953 62.9961 78.3672 63.1445 78.4336ZM35.7344 29.7617C35.9492 30.0899 36.1875 30.3945 36.4453 30.6797C36.7031 30.9688 36.9844 31.2344 37.2891 31.4766C37.5977 31.7188 37.9219 31.9414 38.3125 32.1055C38.3906 32.1406 38.4805 32.1445 38.5664 32.1172C38.7578 32.0508 38.8555 31.8477 38.793 31.6563C38.6562 31.2578 38.457 30.9141 38.2383 30.5899C38.0195 30.2695 37.7734 29.9688 37.5078 29.6914C37.2422 29.4141 36.9531 29.1524 36.6445 28.9141C36.3281 28.6797 36 28.461 35.6055 28.3008C35.5391 28.2735 35.4648 28.2695 35.3945 28.293C35.2344 28.3477 35.1445 28.5195 35.1992 28.6797C35.332 29.086 35.5234 29.4297 35.7344 29.7617ZM43.8828 26.5664C44.3164 26.9805 44.7812 27.3633 45.3125 27.668C45.4102 27.7188 45.5352 27.7266 45.6406 27.6719C45.8086 27.586 45.875 27.3789 45.7891 27.211L45.7852 27.207C45.5117 26.6758 45.1953 26.1953 44.8711 25.7227C44.5469 25.25 44.2109 24.793 43.8633 24.3438C43.5195 23.8945 43.1641 23.4492 42.793 23.0117C42.4219 22.5742 42.043 22.1406 41.5977 21.7305V21.7266C41.5273 21.6641 41.4297 21.6367 41.3359 21.6602C41.1797 21.6953 41.082 21.8516 41.1172 22.0078C41.2578 22.6055 41.4922 23.1641 41.7617 23.6992C42.0352 24.2305 42.3516 24.7383 42.707 25.2188C43.0586 25.6992 43.4531 26.1524 43.8828 26.5664ZM32.6367 61.707C32.6016 61.6289 32.5391 61.5625 32.4531 61.5274C32.2734 61.4453 32.0625 61.5235 31.9805 61.707C31.8047 62.0938 31.7148 62.4844 31.6523 62.8711C31.5937 63.2617 31.5703 63.6485 31.5742 64.0391C31.5742 64.4258 31.6094 64.8164 31.6719 65.207C31.7422 65.5938 31.832 65.9844 32.0117 66.375C32.0391 66.4375 32.0898 66.4922 32.1602 66.5235C32.3125 66.5938 32.4922 66.5274 32.5664 66.375C32.7461 65.9883 32.8398 65.5977 32.9141 65.211C32.9805 64.8203 33.0156 64.4336 33.0234 64.043C33.0312 63.6563 33.0078 63.2656 32.9531 62.875C32.8906 62.4883 32.8086 62.0977 32.6367 61.707ZM37.8516 53.125C37.6836 52.7774 37.4727 52.4453 37.1758 52.1602C37.1172 52.1055 37.0391 52.0703 36.9531 52.0625C36.7539 52.0508 36.5781 52.1992 36.5664 52.3985V52.4063C36.5352 52.8008 36.5664 53.1563 36.6094 53.5039C36.6523 53.8477 36.7148 54.1875 36.7891 54.5195C36.8633 54.8555 36.9531 55.1875 37.0586 55.5195C37.168 55.8555 37.2891 56.1953 37.4766 56.543L37.4805 56.5508C37.5078 56.6094 37.5586 56.6563 37.625 56.6836C37.7773 56.7539 37.9609 56.6836 38.0312 56.5274C38.1992 56.1524 38.2656 55.7617 38.2891 55.375C38.3125 54.9883 38.2812 54.6016 38.2109 54.2227C38.1367 53.8438 38.0195 53.4766 37.8516 53.125ZM49.0625 57.9024C48.8594 57.5586 48.6289 57.2344 48.3789 56.9258C48.1289 56.6211 47.8594 56.336 47.5586 56.0703C47.2578 55.8047 46.9375 55.5586 46.5508 55.3672C46.4727 55.3281 46.3789 55.3203 46.2891 55.3438C46.1016 55.4024 45.9922 55.6016 46.0508 55.793C46.1719 56.207 46.3594 56.5625 46.5664 56.9063C46.7773 57.2461 47.0117 57.5664 47.2695 57.8633C47.5273 58.1641 47.8086 58.4453 48.1133 58.7031C48.4219 58.961 48.75 59.2031 49.1406 59.3906C49.2031 59.4219 49.2813 59.4297 49.3516 59.4102C49.5156 59.3633 49.6094 59.1953 49.5625 59.0313C49.4453 58.6133 49.2656 58.25 49.0625 57.9024ZM58.8477 50.711C58.3398 50.4492 57.8203 50.211 57.2539 50.0391C57.1641 50.0117 57.0664 50.0274 56.9883 50.086C56.8633 50.1875 56.8398 50.3711 56.9414 50.4961C57.3047 50.9649 57.7188 51.3594 58.1445 51.7383C58.5742 52.1133 59.0234 52.461 59.4883 52.7852C59.9492 53.1094 60.4297 53.4063 60.9297 53.6797C61.4297 53.9492 61.9453 54.1992 62.5117 54.375C62.6172 54.4063 62.7344 54.3867 62.8281 54.3125C62.9766 54.1953 63 53.9805 62.8828 53.832C62.5117 53.3672 62.0938 52.9766 61.6641 52.6055C61.2305 52.2383 60.7734 51.8985 60.3047 51.586C59.8359 51.2695 59.3516 50.9766 58.8477 50.711ZM66.7852 47.957C67.1172 48.3008 67.5 48.5977 67.9141 48.8438C68.3242 49.0899 68.7695 49.2813 69.2305 49.4063C69.6953 49.5313 70.1758 49.5977 70.668 49.543C70.7617 49.5313 70.8516 49.4805 70.9102 49.3985C71.0273 49.2422 70.9922 49.0235 70.8359 48.9102L70.8281 48.9024C70.4531 48.6289 70.0859 48.4141 69.7227 48.2031L68.6367 47.586L67.543 46.9766C67.1719 46.7735 66.7969 46.5664 66.3633 46.3789L66.3594 46.375C66.2852 46.3438 66.2031 46.3438 66.125 46.375C65.9727 46.4414 65.9023 46.6133 65.9688 46.7656C66.1602 47.2227 66.4531 47.6094 66.7852 47.957ZM56.0508 43.5586C55.7969 43.2578 55.5156 43.0391 55.2227 42.8399C54.9258 42.6445 54.6211 42.4844 54.3008 42.3438C53.9844 42.207 53.6562 42.0977 53.3125 42.0156C52.9688 41.9414 52.6172 41.8867 52.2305 41.918C52.1562 41.9219 52.0781 41.9492 52.0156 42.0039C51.8633 42.1367 51.8477 42.3711 51.9805 42.5235C52.2344 42.8164 52.5195 43.0313 52.8164 43.2188C53.1133 43.4063 53.4258 43.5625 53.7461 43.6875C54.0703 43.8164 54.4023 43.918 54.7461 43.9883C55.0937 44.0586 55.4492 44.1016 55.8359 44.0703C55.9023 44.0664 55.9609 44.0391 56.0117 43.9961C56.1445 43.8828 56.1602 43.6875 56.0508 43.5586ZM55.918 38.586C56.4141 38.9297 56.9258 39.2461 57.4531 39.5313C57.9805 39.8203 58.5234 40.086 59.082 40.3203C59.6406 40.5508 60.2109 40.7617 60.8242 40.8985C60.918 40.918 61.0195 40.8945 61.0898 40.8242C61.2031 40.711 61.207 40.5274 61.0938 40.4141C60.6562 39.9649 60.1758 39.5899 59.6875 39.2344C59.1914 38.8828 58.6836 38.5586 58.1602 38.2617C57.6367 37.9649 57.1016 37.6914 56.5469 37.4492C55.9922 37.211 55.4258 36.9922 54.8164 36.8516C54.707 36.8242 54.5859 36.8555 54.4961 36.9414C54.3633 37.0742 54.3633 37.293 54.4961 37.4258C54.9375 37.8711 55.4219 38.2422 55.918 38.586ZM51.7969 32.6055C51.7266 32.4492 51.6367 32.3164 51.5234 32.207C51.4141 32.0899 51.2813 32 51.1289 31.9336C50.9727 31.8711 50.7969 31.8242 50.5664 31.8438C50.3164 31.8594 50.1172 32.0664 50.1133 32.3203C50.1094 32.5547 50.1641 32.7266 50.2344 32.8789C50.3125 33.0313 50.4102 33.1563 50.5273 33.2617C50.6445 33.3633 50.7813 33.4492 50.9414 33.5117C51.1055 33.5664 51.2852 33.6055 51.5234 33.586C51.7305 33.5664 51.8945 33.3945 51.9023 33.1836C51.9102 32.9453 51.8594 32.7656 51.7969 32.6055ZM44.2734 31.2539C43.7891 30.9766 43.2852 30.7188 42.7344 30.5313C42.6328 30.4961 42.5117 30.5117 42.418 30.582C42.2656 30.6953 42.2344 30.9102 42.3477 31.0625C42.6992 31.5313 43.0977 31.9297 43.5117 32.3047C43.9258 32.6797 44.3633 33.0274 44.8164 33.3516C45.2695 33.6758 45.7383 33.9727 46.2266 34.25C46.7188 34.5195 47.2266 34.7695 47.7812 34.9531C47.8672 34.9805 47.9648 34.9688 48.043 34.9102C48.1719 34.8164 48.1992 34.6328 48.1055 34.5039C47.7617 34.0313 47.3672 33.625 46.957 33.2422C46.5469 32.8594 46.1172 32.5078 45.668 32.1758C45.2227 31.8438 44.7578 31.5352 44.2734 31.2539ZM45.8398 37.9649C45.5312 37.7149 45.1992 37.4922 44.8516 37.293C44.5 37.0977 44.1289 36.9258 43.7109 36.8164C43.625 36.7969 43.5312 36.8047 43.4492 36.8516C43.2773 36.9492 43.2109 37.1641 43.3086 37.3399C43.5195 37.7188 43.7812 38.0313 44.0586 38.3242C44.3359 38.6133 44.6367 38.875 44.957 39.1133C45.2734 39.3555 45.6094 39.5703 45.9648 39.7617C46.3242 39.9492 46.6953 40.1172 47.1211 40.2188C47.1914 40.2344 47.2656 40.2266 47.3359 40.1914C47.4805 40.1133 47.5391 39.9297 47.457 39.7774C47.25 39.3945 46.9961 39.0742 46.7227 38.7774C46.4492 38.4805 46.1523 38.211 45.8398 37.9649ZM41.3438 39.0391C41.1055 38.6485 40.832 38.3242 40.5547 38.0117C40.2773 37.6992 39.9883 37.4063 39.6914 37.125C39.3945 36.8399 39.0898 36.5703 38.7656 36.3125C38.4375 36.0508 38.1016 35.8008 37.6992 35.5899L37.6953 35.586C37.6133 35.543 37.5156 35.5313 37.4219 35.5625C37.2344 35.6211 37.1328 35.8203 37.1953 36.0078C37.3359 36.4531 37.5625 36.8438 37.8203 37.2031C38.082 37.5625 38.3789 37.8945 38.707 38.1914C39.0352 38.4883 39.3906 38.7539 39.7734 38.9766C40.1602 39.1992 40.5703 39.3906 41.0273 39.4922C41.1016 39.5078 41.1797 39.4961 41.25 39.4531C41.3906 39.3672 41.4336 39.1797 41.3477 39.0391H41.3438ZM47.1914 47.1875C47.3203 47.0899 47.3477 46.9102 47.25 46.7813L47.2461 46.7774C46.9062 46.3281 46.543 45.9336 46.1797 45.543C45.8164 45.1563 45.4492 44.7813 45.082 44.4102C44.7109 44.0391 44.3398 43.6719 43.9531 43.3086C43.5664 42.9492 43.1719 42.586 42.7227 42.25H42.7188C42.6328 42.1836 42.5156 42.1641 42.4062 42.1992C42.2266 42.2578 42.1289 42.4531 42.1875 42.6328C42.3672 43.1875 42.6445 43.6875 42.9648 44.1563C43.2891 44.6211 43.6562 45.0547 44.0625 45.4453C44.4727 45.8399 44.9141 46.1953 45.3906 46.5039C45.8711 46.8086 46.3789 47.0703 46.9336 47.2344C47.0195 47.2617 47.1172 47.2461 47.1914 47.1875ZM28.6836 37.875C28.5352 37.6367 28.3633 37.418 28.1602 37.2188C27.957 37.0195 27.7344 36.836 27.4375 36.6992C27.3867 36.6758 27.3281 36.6602 27.2656 36.6641C27.0508 36.668 26.8828 36.8477 26.8867 37.0586C26.8945 37.3867 26.9766 37.668 27.0781 37.9336C27.1797 38.1953 27.3125 38.4414 27.4688 38.6719C27.6289 38.9024 27.8086 39.1133 28.0156 39.3086C28.2266 39.5039 28.457 39.6836 28.7578 39.8164C28.8008 39.836 28.8477 39.8477 28.8945 39.8477C29.0781 39.8438 29.2227 39.6953 29.2227 39.5117C29.2188 39.1836 29.1445 38.8985 29.0508 38.6289C28.9531 38.3594 28.8281 38.1094 28.6836 37.875ZM36.8477 46.4063C37.0195 46.4024 37.1562 46.2578 37.1484 46.086C37.1406 45.6875 37.0547 45.3242 36.9492 44.9727C36.8398 44.6211 36.7031 44.2852 36.5352 43.9649C36.375 43.6445 36.1836 43.3399 35.9648 43.0469C35.7422 42.7578 35.5 42.4805 35.1797 42.2422C35.1133 42.1914 35.0352 42.168 34.9492 42.168C34.7461 42.1797 34.5898 42.3477 34.5977 42.5508C34.6133 42.9492 34.7031 43.3086 34.8164 43.6524C34.9375 44 35.082 44.332 35.2539 44.6445C35.4297 44.961 35.625 45.2656 35.8516 45.5508C36.082 45.836 36.3359 46.1133 36.6602 46.3477C36.7109 46.3867 36.7773 46.4063 36.8477 46.4063ZM31.6094 37.0195C31.6914 37.1133 31.793 37.1875 31.918 37.2383C32.0469 37.2891 32.1953 37.3203 32.4062 37.2969C32.6406 37.2656 32.8398 37.0938 32.8906 36.8477C32.9336 36.6406 32.9102 36.4922 32.8711 36.3594C32.832 36.2266 32.7656 36.1172 32.6758 36.0313C32.5898 35.9453 32.4805 35.875 32.3477 35.832C32.2109 35.7852 32.0586 35.7617 31.8438 35.7891C31.6484 35.8164 31.4805 35.961 31.4336 36.168C31.3906 36.3789 31.4023 36.5352 31.4336 36.6719C31.4727 36.8086 31.5312 36.9219 31.6094 37.0195ZM24.7852 58.1445C24.6172 58.043 24.3945 58.0977 24.293 58.2656L24.2891 58.2735C24.0742 58.625 23.9258 58.9649 23.7773 59.2969C23.6367 59.6289 23.5 59.957 23.375 60.2891C23.2461 60.6211 23.1211 60.9531 23 61.3008C22.8828 61.6485 22.7617 62 22.6719 62.4063V62.4141C22.6562 62.4805 22.6641 62.5547 22.6992 62.6211C22.7773 62.7695 22.9648 62.8242 23.1094 62.7461C23.4961 62.5391 23.8086 62.2422 24.0742 61.918C24.3398 61.5899 24.5547 61.2227 24.7188 60.836C24.8828 60.4453 24.9883 60.0352 25.0352 59.6172C25.082 59.1953 25.0703 58.7695 24.9414 58.3477C24.918 58.2656 24.8633 58.1914 24.7852 58.1445ZM28.4375 51.8633C28.4023 51.7969 28.3477 51.7344 28.2773 51.6992C28.0977 51.6055 27.875 51.6719 27.7773 51.8516C27.6016 52.1914 27.5078 52.5313 27.4453 52.8711C27.3828 53.211 27.3516 53.5508 27.3516 53.8906C27.3516 54.2305 27.3828 54.5742 27.4414 54.9141C27.5078 55.2539 27.5977 55.5977 27.7695 55.9414C27.7969 55.9961 27.8437 56.043 27.9023 56.0742C28.0508 56.1563 28.2422 56.1016 28.3242 55.9492C28.5078 55.6094 28.6094 55.2695 28.6836 54.9336C28.7539 54.5938 28.793 54.2539 28.8047 53.9102C28.8164 53.5703 28.793 53.2305 28.7422 52.8906C28.6875 52.5469 28.6055 52.207 28.4375 51.8633ZM31.7422 48.0039C31.9258 48.0469 32.1094 47.9336 32.1562 47.75C32.2266 47.4531 32.2188 47.1914 32.1914 46.9375C32.1602 46.6875 32.0977 46.4453 32.0078 46.2188C31.918 45.9883 31.8008 45.7735 31.6562 45.5664C31.5039 45.3633 31.332 45.1719 31.0781 45.0117C31.0391 44.9883 30.9961 44.9688 30.9531 44.957C30.7344 44.9102 30.5195 45.0469 30.4727 45.2617C30.4063 45.5547 30.418 45.8164 30.457 46.0664C30.4961 46.3164 30.5664 46.5508 30.668 46.7735C30.7656 47 30.8906 47.2149 31.043 47.4141C31.2031 47.6133 31.3828 47.8047 31.6445 47.961C31.6719 47.9805 31.707 47.9961 31.7422 48.0039ZM25.0391 42.8047C24.8086 42.418 24.543 42.0547 24.2344 41.7188C23.9297 41.3906 23.5898 41.086 23.1797 40.8477C23.1133 40.8125 23.0312 40.7969 22.9492 40.8203C22.793 40.8633 22.6992 41.0274 22.7422 41.1875V41.1914C22.8633 41.6367 23.0352 42.0313 23.2109 42.418C23.3906 42.8008 23.582 43.1719 23.7852 43.5313C23.9844 43.8945 24.1992 44.25 24.4297 44.5977C24.6641 44.9453 24.9102 45.293 25.2227 45.6289L25.2266 45.6328C25.2891 45.6992 25.3789 45.7422 25.4805 45.7422C25.6758 45.7461 25.832 45.5899 25.8359 45.3945C25.8398 44.918 25.7422 44.4688 25.6016 44.0352C25.4609 43.6055 25.2695 43.1914 25.0391 42.8047ZM12.1172 27.5899C12.2344 30.586 13.0273 33.6445 14.0586 36.4219C9.31641 36.6992 3.35547 36.7813 0.839844 35.7149C0.839844 35.7149 5.66797 30.8906 12.1172 27.5899Z" fill="#F7AE3B"/>
<path d="M30.7657 22.9492C30.754 23.5078 30.6954 24.082 30.5001 24.6602C30.3243 25.2344 29.9766 25.8281 29.4024 26.2656C29.1133 26.4805 28.7735 26.625 28.4337 26.7031C28.086 26.7852 27.754 26.7812 27.4298 26.7578C27.1094 26.7266 26.8204 26.6445 26.5313 26.5664C26.3829 26.5352 26.2423 26.4687 26.0977 26.4102C25.9571 26.3437 25.8126 26.293 25.6798 26.2109C25.1368 25.9023 24.6524 25.4609 24.3204 24.9375C23.9805 24.4219 23.7891 23.8359 23.7071 23.2656C23.6329 22.6836 23.6407 22.1289 23.7774 21.5586C23.8126 21.4102 23.961 21.3164 24.1094 21.3516C24.2266 21.3789 24.3087 21.4766 24.3243 21.5859L24.3282 21.6172C24.4493 22.5859 24.7579 23.5625 25.3204 24.2148C25.6094 24.5312 25.9337 24.8008 26.3204 24.9766C26.4141 25.0234 26.5235 25.0508 26.6212 25.0898C26.7188 25.1289 26.8165 25.1719 26.9298 25.1875C27.1446 25.2383 27.3633 25.3008 27.5665 25.3125C27.9727 25.3477 28.3087 25.2812 28.586 25.1055C28.8712 24.9258 29.1055 24.5977 29.293 24.1953C29.6641 23.3789 29.8282 22.3477 29.9376 21.3555V21.3359C29.9571 21.1523 30.1212 21.0195 30.3048 21.043C30.4454 21.0586 30.5587 21.1641 30.5899 21.293C30.7227 21.8477 30.7657 22.3867 30.7657 22.9492Z" fill="#493A2F"/>
</svg>
