<svg width="154" height="142" viewBox="0 0 154 142" fill="none" xmlns="http://www.w3.org/2000/svg">
<path d="M119.387 72.5156L101.984 69.5273C101.984 69.5273 107.703 98.1094 107.813 107.781C107.879 113.73 104.762 131.383 104.762 131.383C104.805 132.328 105.07 133.25 105.539 134.07L105.563 134.117C107.875 138.18 113.738 138.129 115.977 134.023C116.406 133.23 116.652 132.352 116.699 131.453C116.699 131.453 119.539 121.742 120.469 113.215C122.176 97.582 119.387 72.5156 119.387 72.5156ZM65.125 72.5156C65.125 72.5156 66.8672 96.5898 66.875 104.477C66.8828 113.434 62.4336 131.453 62.4336 131.453C62.3906 132.352 62.1445 133.23 61.711 134.023C59.4727 138.129 53.6094 138.18 51.3008 134.117L51.2774 134.07C50.8086 133.25 50.543 132.328 50.5 131.383C50.5 131.383 53.6406 113.73 53.5469 107.781C53.332 93.5078 50.3516 82.3242 46.6641 69.3437C45.3828 64.832 65.125 72.5156 65.125 72.5156Z" fill="#B04B2B"/>
<path d="M146.098 75.7812C145.855 78.2617 139.297 81.2969 139.027 84.9414C137.695 102.996 136.207 131.453 136.207 131.453C136.164 132.352 135.918 133.23 135.484 134.023C133.246 138.129 127.383 138.18 125.074 134.117L125.047 134.07C124.578 133.25 124.316 132.328 124.273 131.383C124.273 131.383 123.387 105.121 122.645 96.3984C121.758 85.9375 115.742 82.2109 107.812 82.2109C102.805 82.2578 87.7852 82.5977 87.7852 82.5977C87.7852 82.5977 88.6875 97.1172 88.7852 100.512C89.1914 115.004 84.3711 131.453 84.3711 131.453C84.3281 132.352 84.0781 133.23 83.6484 134.023C81.4102 138.129 75.5469 138.18 73.2344 134.117L73.2109 134.07C72.7422 133.25 72.4766 132.328 72.4336 131.383C72.4336 131.383 75.5508 113.73 75.4844 107.781C75.4102 101.316 71.5898 82.2109 71.5898 82.2109C71.5898 82.2109 54.4453 82.8711 47.0703 70.7773C38.4258 56.6016 31.3867 48.9258 31.3867 48.9258C31.3867 48.9258 19.0508 64.6797 11.5508 63.7109C4.05469 62.7422 2.36328 60.3164 5.02343 54.0156C7.63281 47.832 7.44922 35.8086 10.6445 28.0352C10.7031 27.8867 6.45703 14.0313 13.4258 15.8945C16.5625 16.7305 15.6289 14.3594 15.9648 14.0313C18.457 11.6133 20.5508 10.6992 23.6367 10.6758C27.5469 10.6484 37.4609 15.1094 41.1562 16.8789C47.8359 20.0781 57.9102 29.8594 69.7109 33.1289C77.5703 35.3086 85.6133 36.6641 92.5742 36.082C109.988 34.6289 128.699 29.2305 137.891 40.7305C146.098 51 147.07 65.8672 146.098 75.7812Z" fill="#C65C33"/>
<path d="M14.5703 50.6133C11.0508 48.625 8.46877 47.8125 6.72268 47.5117C6.28909 50 5.76955 52.2461 5.02346 54.0156C2.3633 60.3164 4.05471 62.7422 11.5508 63.7109C14.4883 64.0898 18.1641 61.9062 21.5547 59.1055C20.8516 56.6953 19.0781 53.1602 14.5703 50.6133ZM28.9492 21.0508C28.1992 18.5625 25.3086 12.8555 22.9219 9.66406C18.9297 4.33203 14.586 0.214843 12.5547 0.792968C10.5235 1.375 11.8281 5.8789 14.1485 10.5312C15.8946 14.0312 19.3672 20.3281 20.9766 23.2305C21.375 23.9453 22.2891 24.1836 22.9766 23.7461C23.8633 23.1797 25.3047 22.6367 27.4258 22.875C28.4375 22.9883 29.2422 22.0273 28.9492 21.0508ZM19.1563 30.668C16.2031 30.668 13.8086 33.0664 13.8086 36.0273C13.8086 38.9844 16.2031 41.3828 19.1563 41.3828C22.1094 41.3828 24.5 38.9844 24.5 36.0273C24.5 33.0664 22.1094 30.668 19.1563 30.668ZM6.77737 22.4219C5.20315 19.0156 -0.0976324 11.8516 0.554712 7.71094C1.20705 3.57031 7.13674 9.17969 10.6797 12.6602C13.0742 15.0117 15.7696 19.1953 17.1758 21.5039C14.2149 22.9883 11.9297 25.0742 10.8281 27.5977C10.7656 27.7422 10.7071 27.8906 10.6485 28.0352C9.24221 26.2266 7.38284 23.7266 6.77737 22.4219Z" fill="#DBA25C"/>
<path d="M21.5937 33.4219C21.3828 33.3828 21.1836 33.5234 21.1445 33.7344L21.1406 33.7617C20.9922 34.582 20.8281 35.4336 20.5117 36.0586C20.3594 36.375 20.168 36.5976 19.9844 36.7109C19.8008 36.8203 19.582 36.8672 19.2773 36.8437C19.125 36.8359 18.957 36.7851 18.7851 36.7539C18.6953 36.7422 18.6211 36.707 18.543 36.6797C18.4687 36.6484 18.3828 36.6289 18.3125 36.5937C18.0156 36.4609 17.7617 36.2773 17.5351 36.0351C17.0703 35.5547 16.7851 34.7734 16.625 33.9805L16.6172 33.9414C16.5937 33.8281 16.5117 33.7305 16.3945 33.6953C16.2226 33.6445 16.043 33.7422 15.9922 33.914C15.8476 34.4062 15.8242 34.8828 15.8711 35.3867C15.9297 35.8867 16.082 36.4062 16.375 36.8711C16.668 37.3359 17.0859 37.7461 17.5742 38.0195C17.6914 38.0898 17.8203 38.1367 17.9453 38.1953C18.0703 38.25 18.1953 38.3086 18.3242 38.3359C18.5781 38.4101 18.832 38.4805 19.1211 38.5117C19.4101 38.5312 19.7148 38.5351 20.0312 38.457C20.3437 38.3867 20.6562 38.25 20.9258 38.0547C21.457 37.6523 21.7539 37.1015 21.9062 36.5976C22.0703 36.0859 22.1094 35.5859 22.1055 35.1055C22.0898 34.6211 22.0351 34.164 21.8945 33.6914C21.8515 33.5547 21.7422 33.4492 21.5937 33.4219ZM124.941 141.555C126.02 143.047 130.395 137.129 130.395 137.129C130.395 137.129 135.363 142.43 135.613 140.508C135.746 139.457 136.371 129.414 136.371 129.414H124.215C124.215 129.414 123.777 139.945 124.941 141.555ZM103.312 140.508C103.559 142.43 109.949 137.129 109.949 137.129C109.949 137.129 112.902 143.047 113.98 141.555C115.148 139.945 117.168 129.414 117.168 129.414H105.012C105.012 129.414 103.176 139.457 103.312 140.508ZM70.9844 140.508C71.2305 142.43 77.6211 137.129 77.6211 137.129C77.6211 137.129 80.5742 143.047 81.6562 141.555C82.8203 139.945 84.8398 129.414 84.8398 129.414H72.6836C72.6836 129.414 70.8476 139.457 70.9844 140.508ZM132.809 69.1758C133.09 69.3672 133.469 69.2969 133.664 69.0195C133.832 68.7734 133.945 68.5156 134.039 68.2578C134.137 68 134.207 67.7344 134.258 67.4648C134.312 67.1992 134.355 66.9258 134.371 66.6523C134.391 66.375 134.395 66.0976 134.355 65.8086C134.328 65.6328 134.227 65.4609 134.062 65.3594C133.766 65.1797 133.379 65.2695 133.195 65.5664C133.043 65.8164 132.937 66.0703 132.848 66.332C132.754 66.5898 132.684 66.8594 132.625 67.125C132.566 67.3906 132.523 67.664 132.512 67.9375C132.492 68.2148 132.496 68.4961 132.551 68.7851C132.582 68.9375 132.672 69.0781 132.809 69.1758ZM139.285 54.6445C139.363 54.3203 139.391 54.0039 139.398 53.6875C139.406 53.3672 139.387 53.0547 139.352 52.7422C139.312 52.4297 139.266 52.1211 139.195 51.8125C139.125 51.5039 139.039 51.1953 138.91 50.8945C138.828 50.7148 138.668 50.5742 138.461 50.5351C138.125 50.4648 137.801 50.6836 137.73 51.0195C137.668 51.3437 137.648 51.6601 137.648 51.9765C137.641 52.293 137.66 52.6094 137.691 52.9219C137.723 53.2344 137.77 53.543 137.844 53.8515C137.918 54.1601 138.012 54.4648 138.156 54.7656C138.234 54.9219 138.375 55.043 138.555 55.0859C138.875 55.168 139.203 54.9726 139.285 54.6445ZM136.484 54.9648C136.383 54.7539 136.168 54.6094 135.918 54.6172C135.586 54.6289 135.324 54.9062 135.336 55.2422V55.2539L135.379 56.5898C135.383 57.0312 135.379 57.4687 135.355 57.9023C135.332 58.3398 135.297 58.7734 135.254 59.2109C135.211 59.6484 135.156 60.0859 135.117 60.5469L135.113 60.5625C135.098 60.7734 135.195 60.9844 135.383 61.1055C135.656 61.2773 136.016 61.1953 136.187 60.9219C136.461 60.4844 136.652 60 136.789 59.5039C136.922 59.0078 137 58.4961 137.02 57.9805C137.039 57.4648 137.016 56.9453 136.926 56.4375C136.84 55.9336 136.703 55.4336 136.484 54.9648ZM129.961 60.3359C129.863 60.7265 129.758 61.1211 129.668 61.539L129.66 61.5586C129.621 61.7578 129.684 61.9726 129.848 62.1172C130.086 62.332 130.457 62.3125 130.668 62.0703C130.988 61.7109 131.234 61.2969 131.434 60.8633C131.629 60.4297 131.773 59.9726 131.871 59.5078C131.965 59.039 132.02 58.5625 132.016 58.0859C132.012 57.6094 131.957 57.1328 131.828 56.6758C131.766 56.4531 131.578 56.2773 131.336 56.2422C131.008 56.1914 130.699 56.418 130.648 56.75V56.7578L130.461 57.9765C130.395 58.375 130.324 58.7695 130.238 59.164C130.156 59.5547 130.062 59.9453 129.961 60.3359ZM128.16 48.3906C128.199 48.7226 128.27 49.0351 128.344 49.3476C128.414 49.6562 128.496 49.9648 128.578 50.2695C128.66 50.5742 128.742 50.8789 128.848 51.1797C128.945 51.4844 129.051 51.7851 129.203 52.0937L129.211 52.1133C129.293 52.2695 129.441 52.3906 129.629 52.4297C129.949 52.4961 130.266 52.2851 130.328 51.9648C130.402 51.6015 130.41 51.2383 130.379 50.8789C130.352 50.5195 130.281 50.168 130.187 49.8242C130.09 49.4765 129.965 49.1406 129.809 48.8164C129.652 48.4922 129.473 48.1836 129.238 47.9023C129.109 47.75 128.902 47.6601 128.687 47.6875C128.355 47.7265 128.113 48.0351 128.156 48.375L128.16 48.3906ZM133.742 50.7461C133.863 51.039 133.996 51.3242 134.16 51.5976C134.32 51.8711 134.496 52.1406 134.723 52.3828C134.84 52.5078 135.012 52.5859 135.195 52.5742C135.527 52.5586 135.785 52.2734 135.77 51.9414C135.75 51.6055 135.684 51.293 135.598 50.9883C135.516 50.6797 135.402 50.3867 135.281 50.0976C135.156 49.8047 135.02 49.5234 134.859 49.2461C134.703 48.9726 134.535 48.7031 134.32 48.4492C134.195 48.3008 133.996 48.2148 133.789 48.2344C133.449 48.2656 133.199 48.5703 133.23 48.9101C133.262 49.2383 133.34 49.5508 133.426 49.8555C133.512 50.1601 133.621 50.457 133.742 50.7461ZM136.914 45.9336C136.691 45.5117 136.41 45.1211 136.078 44.7773C135.422 44.0937 134.586 43.5547 133.66 43.3515C133.437 43.3047 133.199 43.3828 133.055 43.5703C132.848 43.8359 132.895 44.2148 133.16 44.418L133.18 44.4375C133.801 44.918 134.367 45.3828 134.871 45.9297C135.121 46.1992 135.363 46.4805 135.594 46.7734L136.293 47.6875L136.312 47.7109C136.43 47.8672 136.633 47.9609 136.844 47.9336C137.164 47.8945 137.391 47.6015 137.352 47.2812C137.297 46.8086 137.133 46.3555 136.914 45.9336ZM64.1172 49.9883H64.1094C63.6328 49.832 63.164 49.707 62.6992 49.5781C62.2344 49.4453 61.7734 49.3125 61.3164 49.1758C60.8555 49.039 60.4023 48.8867 59.9453 48.7305C59.4883 48.5742 59.0351 48.4062 58.5625 48.2539H58.5508C58.3242 48.1797 58.0664 48.2461 57.9023 48.4375C57.6914 48.6953 57.7265 49.0742 57.9804 49.289C58.3945 49.6367 58.8555 49.9219 59.332 50.164C59.8086 50.414 60.3125 50.6094 60.8281 50.7734C61.3398 50.9336 61.8672 51.0469 62.4023 51.1133C62.9375 51.1758 63.4765 51.1914 64.0156 51.1211C64.2304 51.0898 64.4219 50.9414 64.4922 50.7226C64.5898 50.418 64.4219 50.0898 64.1172 49.9883ZM69.4414 46.332L69.4336 46.3281C69.0586 46.1953 68.6836 46.1094 68.3125 46.0351C67.9375 45.9609 67.5625 45.9062 67.1875 45.8555C66.8164 45.8086 66.4375 45.7656 66.0586 45.7344C65.6797 45.707 65.3008 45.6797 64.9062 45.6914H64.8984C64.6836 45.6992 64.4765 45.8203 64.375 46.0273C64.2226 46.332 64.3437 46.6992 64.6445 46.8476C65.0117 47.0351 65.3945 47.164 65.7851 47.2734C66.1719 47.3828 66.5703 47.457 66.9648 47.5156C67.3672 47.5703 67.7656 47.6015 68.1719 47.5976C68.5742 47.5937 68.9805 47.5586 69.3828 47.4648C69.5703 47.418 69.7344 47.2773 69.8008 47.082C69.9101 46.7773 69.75 46.4375 69.4414 46.332ZM72.5039 43.8867C72.8789 43.8515 73.2461 43.7656 73.5859 43.5937C73.7422 43.5195 73.8672 43.3711 73.9062 43.1875C73.9765 42.8672 73.7734 42.5508 73.4531 42.4805L73.418 42.4726C73.1055 42.4023 72.8125 42.3633 72.5234 42.3203L71.668 42.1875C71.3867 42.1406 71.1055 42.0859 70.8164 42.0312C70.5312 41.9726 70.2461 41.9023 69.9375 41.8515L69.8984 41.8437C69.707 41.8125 69.5 41.875 69.3555 42.0312C69.1211 42.2773 69.1328 42.664 69.3789 42.8984C69.6523 43.1562 69.9765 43.3515 70.3164 43.5078C70.6562 43.664 71.0195 43.7734 71.3867 43.8359C71.7539 43.9023 72.1328 43.9219 72.5039 43.8867ZM70.5937 36.5976C70.2461 36.4883 69.8906 36.3906 69.5312 36.3164C69.168 36.2422 68.8047 36.1797 68.4258 36.1601C68.2148 36.1523 68.0078 36.25 67.8828 36.4414C67.6992 36.7265 67.7812 37.1094 68.0664 37.293C68.3867 37.4961 68.7187 37.6562 69.0586 37.8047C69.3945 37.9531 69.7383 38.0781 70.0859 38.1914C70.4336 38.3047 70.789 38.4062 71.1484 38.4765C71.5117 38.5508 71.8789 38.6055 72.2617 38.6055C72.4492 38.6055 72.6367 38.5195 72.75 38.3515C72.9414 38.0859 72.875 37.7148 72.6055 37.5234C72.293 37.3047 71.9609 37.1328 71.625 36.9844C71.289 36.832 70.9414 36.7109 70.5937 36.5976ZM61.125 40.2305C61.3554 40.4062 61.5976 40.5351 61.8476 40.6523C62.0937 40.7734 62.3515 40.8672 62.6094 40.9531C62.8672 41.0351 63.1328 41.1055 63.4062 41.1484C63.6758 41.1914 63.9531 41.2148 64.25 41.1875C64.4023 41.1719 64.5508 41.1015 64.6601 40.9726C64.8789 40.7148 64.8476 40.3242 64.5898 40.1055C64.3633 39.914 64.1211 39.7734 63.875 39.6523C63.625 39.5312 63.3711 39.4375 63.1094 39.3555C62.8476 39.2773 62.5859 39.2109 62.3125 39.164C62.0429 39.1172 61.7656 39.0859 61.4765 39.0976C61.2969 39.1055 61.1211 39.1914 61.0039 39.3476C60.793 39.6211 60.8476 40.0195 61.125 40.2305ZM60.6172 44.668C60.2617 44.4101 59.8984 44.1953 59.5312 43.9922C59.164 43.789 58.789 43.5976 58.4101 43.4219C58.0312 43.2422 57.6523 43.0664 57.2656 42.9023C56.8789 42.7383 56.4883 42.582 56.0742 42.4531H56.0703C55.8515 42.3867 55.6094 42.4453 55.4492 42.6211C55.2187 42.8672 55.2344 43.25 55.4804 43.4805C55.8086 43.7851 56.168 44.043 56.5351 44.2812C56.9062 44.5234 57.2929 44.7305 57.6875 44.9258C58.082 45.1211 58.4922 45.289 58.9101 45.4258C59.3281 45.5664 59.7578 45.6797 60.2031 45.7305C60.4062 45.75 60.6133 45.668 60.7422 45.4922C60.9336 45.2344 60.8789 44.8633 60.6172 44.6719V44.668ZM40.2617 25.9922C39.9687 25.8867 39.6758 25.793 39.375 25.7265C39.0742 25.6562 38.7656 25.5976 38.4453 25.5859C38.25 25.5781 38.0547 25.6601 37.9297 25.8242C37.7187 26.0976 37.7656 26.4883 38.039 26.6992C38.293 26.8984 38.5625 27.0508 38.8398 27.1914C39.1172 27.3359 39.4023 27.4531 39.6875 27.5625C39.9765 27.668 40.2695 27.7617 40.5742 27.8281C40.875 27.8984 41.1875 27.9492 41.5117 27.9453C41.6797 27.9414 41.8515 27.8711 41.9687 27.7344C42.1875 27.4765 42.1562 27.0976 41.9023 26.8789C41.6523 26.664 41.3867 26.5039 41.1094 26.3594C40.8359 26.2148 40.5508 26.0976 40.2617 25.9922ZM39.2539 34.1367C39.082 33.9375 38.9023 33.7773 38.7187 33.6289C38.539 33.4765 38.3554 33.3398 38.1679 33.1992C37.9844 33.0664 37.8008 32.9297 37.6015 32.7969C37.4101 32.664 37.2109 32.5312 36.9804 32.4101L36.9453 32.3945C36.793 32.3164 36.6094 32.2969 36.4375 32.3633C36.1133 32.4883 35.9531 32.8515 36.0781 33.1758C36.1836 33.457 36.3476 33.707 36.5351 33.9336C36.7187 34.164 36.9375 34.3633 37.1719 34.543C37.4062 34.7187 37.6601 34.8711 37.9375 34.9844C38.207 35.0937 38.4961 35.1719 38.8047 35.1797C38.9531 35.1836 39.1015 35.1367 39.2187 35.0312C39.4726 34.8086 39.5039 34.4219 39.2812 34.168L39.2539 34.1367ZM48.7969 40.4453L48.789 40.4414C48.3086 40.207 47.8398 39.9922 47.375 39.7734C46.9101 39.5586 46.4531 39.332 46 39.0937C45.5469 38.8594 45.1055 38.6055 44.6601 38.3476L43.332 37.5351L43.3281 37.5312C43.1172 37.4062 42.8437 37.414 42.6406 37.5742C42.3828 37.7812 42.3398 38.1601 42.5429 38.4219C42.9023 38.8711 43.3242 39.2695 43.7773 39.6289C44.2265 39.9883 44.7148 40.3008 45.2226 40.5703C45.7344 40.8437 46.2695 41.0664 46.8203 41.2383C47.3711 41.4062 47.9375 41.5195 48.5156 41.543C48.7383 41.5547 48.957 41.4336 49.0586 41.2226C49.1992 40.9336 49.082 40.5859 48.7969 40.4453ZM44.6054 33.6289C44.8047 33.6953 45.0351 33.6523 45.1953 33.4961C45.4258 33.2695 45.4336 32.8984 45.2109 32.668C44.875 32.3164 44.5117 32.0156 44.1328 31.7305C43.7578 31.4453 43.3672 31.1797 42.9726 30.9336C42.5703 30.6836 42.1679 30.4414 41.75 30.2226C41.332 30.0039 40.9101 29.793 40.4609 29.625C40.2422 29.5469 39.9883 29.5937 39.8164 29.7695C39.582 30.0117 39.5859 30.3945 39.8281 30.6289C40.1719 30.9648 40.539 31.2578 40.9179 31.543C41.2929 31.8281 41.6836 32.0898 42.0781 32.3437C42.4765 32.5976 42.8828 32.8359 43.2969 33.0547C43.7148 33.2734 44.1445 33.4726 44.6054 33.6289ZM61.7851 35.832C61.9765 35.8281 62.164 35.7305 62.2734 35.5508C62.4414 35.2734 62.3554 34.9101 62.0742 34.7383C61.7187 34.5234 61.3437 34.3633 60.957 34.2344C60.5742 34.0976 60.1797 34.0039 59.7812 33.9297C59.3828 33.8555 58.9804 33.8008 58.5742 33.7812C58.1719 33.7617 57.7617 33.7578 57.3515 33.8164C57.1367 33.8437 56.9453 33.9883 56.8633 34.207C56.7461 34.5234 56.9062 34.875 57.2226 34.9922L57.2265 34.9961C57.6015 35.1328 57.9726 35.2344 58.3476 35.3242C58.7187 35.4219 59.0937 35.5 59.4687 35.5742C59.8476 35.6445 60.2226 35.7109 60.6015 35.7578C60.9844 35.8047 61.3711 35.8437 61.7734 35.832H61.7851ZM49.7617 36.625C50.0937 36.875 50.4453 37.0781 50.8008 37.2695C51.1601 37.4609 51.5234 37.6328 51.8945 37.789C52.2656 37.9492 52.6406 38.0937 53.0273 38.2109C53.414 38.332 53.8086 38.4336 54.2265 38.4805C54.418 38.5039 54.6211 38.4297 54.7539 38.2656C54.957 38.0117 54.918 37.6367 54.664 37.4336C54.3398 37.1719 53.9883 36.9609 53.6328 36.7695C53.2812 36.5703 52.914 36.4023 52.5429 36.25C52.1679 36.0937 51.7929 35.9531 51.4062 35.832C51.0195 35.707 50.6289 35.5976 50.2187 35.5351C50.0039 35.5 49.7734 35.5859 49.6367 35.7734C49.4336 36.043 49.4922 36.4258 49.7617 36.625ZM50.7422 30.957C50.9258 30.6758 50.8437 30.3008 50.5664 30.1172C50.164 29.8555 49.7422 29.6367 49.3203 29.4297C48.8945 29.2226 48.4609 29.039 48.0273 28.8633C47.5898 28.6914 47.1445 28.5351 46.6914 28.4023C46.2422 28.2656 45.7812 28.1523 45.3008 28.0859C45.0937 28.0586 44.875 28.1484 44.7461 28.332C44.5586 28.5937 44.625 28.9609 44.8906 29.1445C45.2851 29.4219 45.7031 29.6523 46.125 29.8594C46.5469 30.0664 46.9804 30.2539 47.4179 30.4219C47.8594 30.5898 48.3008 30.75 48.7539 30.8828C49.207 31.0195 49.664 31.1406 50.1367 31.2226C50.3633 31.2617 50.6054 31.164 50.7422 30.957ZM15.5078 8.90624C17.7812 8.60936 18.75 6.47655 19.1406 5.10936C16.4297 2.21092 13.9453 0.394516 12.5547 0.792954C10.7578 1.30858 11.5742 4.89842 13.3945 8.94139C13.957 9.0117 14.6523 9.02342 15.5078 8.90624ZM7.50389 9.66405C4.36326 6.89061 1.03514 4.66795 0.55467 7.71092C0.324201 9.16795 0.835921 11.0039 1.66014 12.918C2.26561 13.0312 3.04295 13.0625 4.04295 12.9297C6.03514 12.668 7.02733 10.9961 7.50389 9.66405ZM15.1367 57.2226C14.9687 57.1562 14.7773 57.2383 14.7148 57.4062L14.6992 57.4453C14.4687 58.0273 14.2539 58.6094 14.0078 59.1523C13.7695 59.6953 13.5 60.207 13.2031 60.6875C13.0586 60.9336 12.8867 61.1562 12.7265 61.3906C12.543 61.6015 12.3867 61.8398 12.1836 62.039C11.8125 62.4805 11.3594 62.8398 10.8945 63.293L10.8594 63.3281C10.7734 63.414 10.7265 63.539 10.75 63.668C10.7851 63.8789 10.9844 64.0234 11.1992 63.9883C11.8906 63.8711 12.5859 63.6094 13.164 63.164L13.3867 63.0078C13.457 62.9492 13.5234 62.8867 13.5898 62.8242C13.7226 62.7031 13.8555 62.5742 13.9844 62.4414L14.3242 62.0156C14.4414 61.875 14.5273 61.7109 14.625 61.5586C15 60.9375 15.2539 60.2539 15.3789 59.5586C15.4961 58.8594 15.5156 58.1601 15.3359 57.4453C15.3125 57.3476 15.2383 57.2617 15.1367 57.2226ZM8.31248 56.75C7.90623 56.7461 7.49608 56.8398 7.14061 57.0234C6.78123 57.1992 6.46873 57.4453 6.22264 57.7422C5.97655 58.043 5.79295 58.375 5.71873 58.8008C5.71092 58.8515 5.71092 58.9023 5.72655 58.9531C5.77342 59.1406 5.96483 59.2539 6.15233 59.2031L6.23045 59.1797C6.56248 59.0937 6.85155 58.9648 7.11326 58.8594L7.85155 58.5351L8.54295 58.2305C8.78123 58.1094 9.03514 58.0273 9.34764 57.8594L9.41795 57.8203C9.47264 57.789 9.51951 57.75 9.55858 57.6953C9.69529 57.5039 9.64842 57.2422 9.46092 57.1094C9.12889 56.8711 8.71873 56.7461 8.31248 56.75ZM153.176 96.2461C151.34 92.5625 149.551 86.3515 149.926 76.3555C150.836 52.25 137.891 40.7305 137.891 40.7305C146.098 51 140.773 65.6875 139.801 75.6015C139.559 78.0781 139.297 81.3008 139.027 84.9414C141.191 93.3789 146.141 97.375 150.254 99.2695C152.164 100.145 154.113 98.125 153.176 96.2461ZM69.7109 33.1289C70.3906 32.5156 70.9687 31.8945 71.4375 31.3398C72.1094 30.5508 71.6484 29.3281 70.625 29.1953C67.7461 28.8242 62.5898 27.8086 58.1523 25.0859C51.9219 21.2695 42.1406 14.6836 32.7148 11.4414C29.25 10.25 26.2148 10.1914 23.6367 10.6758C25.3203 13.1601 27.1133 16.5469 28.1758 19.0195C32.0859 18.9922 36.1562 19.7695 39.8515 21.539C46.5273 24.7383 57.9101 29.8594 69.7109 33.1289ZM11.9961 25.6211C13.6601 23.414 16.3086 21.664 19.4805 20.5195C18.3945 18.5508 17.1015 16.1758 15.9648 14.0312C15.4101 14.4101 14.9414 14.7461 14.5664 15.0039C8.1367 19.3789 11.9961 25.6172 11.9961 25.6172V25.6211ZM50.7539 129.414H62.9101C62.9101 129.414 60.8906 139.945 59.7226 141.555C58.6445 143.047 55.6914 137.129 55.6914 137.129C55.6914 137.129 49.3008 142.43 49.0547 140.508C48.9179 139.457 50.7539 129.414 50.7539 129.414Z" fill="#5F3329"/>
</svg>
