<svg width="178" height="122" viewBox="0 0 178 122" fill="none" xmlns="http://www.w3.org/2000/svg">
<path d="M166.449 75.6445C159.133 70.8828 156.027 59.7109 155.258 53.6484L153.898 59.5469C152.316 65.8711 149.445 75.3242 148.742 80.5586C147.629 88.8281 146.918 113.875 146.918 113.875C146.887 114.48 146.723 115.078 146.43 115.609C144.914 118.379 140.941 118.414 139.375 115.672L139.359 115.645C139.043 115.086 138.863 114.465 138.832 113.828C138.832 113.828 137.582 88.8399 136.359 81.2461C135.324 74.8516 132.555 71.9492 129.547 71.2188L128.059 113.875C128.027 114.48 127.863 115.078 127.57 115.609C126.055 118.379 122.082 118.414 120.516 115.672L120.5 115.645C120.184 115.086 120.004 114.465 119.973 113.828L118.016 70.3711C114.594 70.7656 82.7031 72.461 82.7031 72.461L80.6562 113.875C80.6289 114.48 80.4609 115.078 80.168 115.609C78.6523 118.379 74.6797 118.414 73.1133 115.672L73.0976 115.645C72.7812 115.086 72.5976 114.465 72.5703 113.828L70.7461 73.2813C69.4961 73.2344 68.2539 73.1094 67.0234 72.9141L65.0039 113.875C64.9726 114.48 64.8047 115.078 64.5117 115.609C62.9961 118.379 59.0234 118.414 57.4609 115.672L57.4414 115.645C57.125 115.086 56.9453 114.465 56.918 113.828L54.9297 69.7188C40.5703 60.9141 37.543 48.6758 37.543 48.6758C37.0898 49.2734 35.8906 50.1719 34.3203 50.9883C34.6094 51.0117 34.8828 51.1524 35.0625 51.3828C35.1953 51.5625 35.2695 51.7813 35.2695 52.0039C35.2656 52.5274 35.1601 52.9844 35.0664 53.3203C34.9531 53.7109 34.8086 54.0899 34.6289 54.4609C34.4531 54.8242 34.2461 55.1797 34.0117 55.5078C33.8008 55.793 33.5117 56.1602 33.0937 56.4844C32.9062 56.6289 32.6719 56.7109 32.4336 56.7109C32.0976 56.7109 31.789 56.5625 31.5859 56.2969C31.4375 56.1055 31.3555 55.8672 31.3594 55.6211C31.3672 55.0899 31.4844 54.6406 31.5859 54.3086C31.7109 53.9141 31.8672 53.5352 32.0547 53.1758C32.2422 52.8125 32.4609 52.4688 32.6992 52.1484C32.8515 51.9531 33.043 51.7227 33.2812 51.4922C30.8828 52.5742 27.9023 53.3438 25.3711 52.7539C25.3906 52.8164 25.418 52.8711 25.4375 52.9336C25.5586 53.3047 25.6523 53.6914 25.7187 54.0899C25.789 54.5469 25.8164 54.9375 25.8086 55.3242C25.793 55.8984 25.3476 56.3281 24.793 56.3281H24.7695C24.5469 56.3242 24.332 56.2422 24.1562 56.1055C23.7187 55.75 23.4336 55.3242 23.2383 54.9961C23.0312 54.6406 22.8594 54.2695 22.7148 53.8594C22.582 53.4961 22.4765 53.1094 22.4023 52.707C22.3164 52.25 22.2812 51.8633 22.289 51.4766C22.289 51.3399 22.3203 51.2109 22.3672 51.0899C21.6914 50.3984 21.1289 49.4922 20.7148 48.3203C18.9687 43.3789 13.5156 32.5235 12.8906 22.9414C12.4258 15.7149 14.832 10.0547 20.1133 7.0547C28.4687 2.3047 36.7305 3.48829 41.6133 9.41017C43.4687 11.6563 44.8945 14.2383 45.6055 16.7891C51.3008 13.9297 58.6797 14.4844 64.9297 14.9531C76.8828 15.8594 88.5547 16.7852 100.574 16.6133C110.234 16.4766 120.668 17.1875 130.262 15.9727C142.594 14.4102 148.941 13.2149 155.273 26.461C158.793 33.8242 156.094 49.2539 160.562 62.0703C163.762 71.2383 170.922 78.5547 166.449 75.6445Z" fill="#FCF2D7"/>
<path d="M150.117 39.9961C149.922 39.7461 149.707 39.5078 149.465 39.293C149.219 39.0781 148.953 38.8789 148.617 38.7305C148.566 38.707 148.508 38.6992 148.449 38.7031C148.273 38.7266 148.148 38.8867 148.172 39.0625C148.215 39.4258 148.324 39.7344 148.457 40.0351C148.594 40.3281 148.754 40.6055 148.941 40.8633C149.125 41.1211 149.332 41.3633 149.57 41.5859C149.809 41.8047 150.066 42.0078 150.395 42.1601C150.457 42.1914 150.531 42.2031 150.605 42.1914C150.812 42.1641 150.957 41.9726 150.93 41.7695C150.879 41.4101 150.762 41.1016 150.621 40.8086C150.48 40.5195 150.312 40.2461 150.117 39.9961ZM156.539 45.5859C156.512 45.5 156.453 45.4219 156.367 45.375C156.195 45.2773 155.977 45.3437 155.883 45.5156L155.879 45.5195C155.664 45.9101 155.527 46.3008 155.406 46.6953C155.293 47.0898 155.199 47.4844 155.129 47.8828C155.055 48.2812 155 48.6797 154.973 49.0937C154.945 49.5039 154.93 49.9219 154.988 50.3672V50.3711C155 50.4453 155.035 50.5156 155.098 50.5664C155.227 50.6719 155.418 50.6523 155.523 50.5234C155.816 50.168 156.02 49.7851 156.188 49.3867C156.352 48.9883 156.477 48.5781 156.562 48.1601C156.648 47.7422 156.699 47.3164 156.703 46.8867C156.703 46.457 156.672 46.0234 156.539 45.5859ZM147.18 43.7656C147.023 43.5 146.84 43.25 146.637 43.0234C146.43 42.7969 146.203 42.5859 145.953 42.3984C145.699 42.2148 145.426 42.0469 145.086 41.9336C145.039 41.9141 144.98 41.9101 144.926 41.918C144.75 41.9531 144.633 42.1211 144.664 42.2969C144.73 42.6445 144.859 42.9414 145.008 43.2187C145.16 43.4922 145.336 43.7461 145.531 43.9805C145.727 44.2148 145.949 44.4297 146.195 44.625C146.441 44.8164 146.707 44.9883 147.039 45.1055C147.102 45.1289 147.172 45.1328 147.242 45.1211C147.449 45.0781 147.582 44.8789 147.539 44.6719C147.473 44.3281 147.336 44.0391 147.18 43.7656ZM130.207 29.6992C130.32 29.543 130.285 29.3242 130.133 29.2109C129.684 28.8867 129.199 28.6523 128.703 28.4531C128.211 28.25 127.703 28.0937 127.188 27.9726C126.668 27.8555 126.145 27.7656 125.613 27.7305C125.078 27.6875 124.543 27.6836 123.992 27.7734C123.906 27.7891 123.824 27.8398 123.781 27.9219C123.703 28.0664 123.754 28.2422 123.898 28.3203C124.379 28.5859 124.867 28.7773 125.359 28.9492C125.848 29.1211 126.344 29.2656 126.84 29.3906C127.34 29.5195 127.84 29.6289 128.352 29.707C128.863 29.7891 129.383 29.8516 129.93 29.8437C130.035 29.8398 130.141 29.7891 130.207 29.6992ZM145.117 37.9492C145.273 37.8203 145.297 37.5976 145.172 37.4414V37.4375C144.902 37.1016 144.598 36.8398 144.281 36.5937C143.969 36.3516 143.645 36.1328 143.305 35.9375C142.969 35.7383 142.617 35.5625 142.25 35.4062C141.883 35.25 141.504 35.1094 141.074 35.0312C141.004 35.0195 140.926 35.0312 140.859 35.0703C140.715 35.1562 140.668 35.3437 140.758 35.4883C140.984 35.8672 141.27 36.1719 141.57 36.4531C141.875 36.7266 142.203 36.9726 142.551 37.1875C142.895 37.4023 143.262 37.5859 143.645 37.7344C144.027 37.8789 144.43 37.9961 144.867 38.0273C144.953 38.0312 145.047 38.0078 145.117 37.9492ZM131.961 34.1797C131.605 34.0312 131.262 33.9101 130.926 33.8008C130.59 33.6836 130.242 33.5664 129.867 33.4648C129.492 33.3672 129.102 33.2812 128.672 33.2695C128.602 33.2695 128.527 33.293 128.469 33.3398C128.336 33.4492 128.316 33.6406 128.426 33.7734C128.695 34.1055 129.004 34.3633 129.336 34.5976C129.668 34.8242 130.035 35.0234 130.434 35.1758C130.836 35.3203 131.246 35.4062 131.645 35.4453C132.047 35.4844 132.449 35.4844 132.867 35.4062C132.953 35.3906 133.031 35.3437 133.09 35.2695C133.207 35.1094 133.176 34.8828 133.02 34.7617C132.676 34.5039 132.316 34.332 131.961 34.1797ZM136.871 31.2344C136.5 30.9648 136.109 30.7344 135.699 30.543C135.289 30.3516 134.863 30.1914 134.418 30.0742C133.977 29.9609 133.523 29.8828 133.043 29.8906C132.961 29.8945 132.887 29.9258 132.828 29.9883C132.715 30.1094 132.723 30.3008 132.844 30.4141C133.191 30.7344 133.555 30.9883 133.926 31.2226C134.297 31.4531 134.676 31.6641 135.059 31.8555C135.445 32.0508 135.84 32.2226 136.246 32.3789C136.656 32.5312 137.074 32.6719 137.539 32.75H137.543C137.633 32.7656 137.734 32.7422 137.816 32.6836C137.973 32.5625 138 32.3398 137.879 32.1836C137.586 31.8047 137.238 31.5039 136.871 31.2344ZM141.406 31.0976C141.484 31.1289 141.57 31.1367 141.66 31.1094C141.848 31.0508 141.957 30.8476 141.895 30.6562C141.766 30.25 141.551 29.8984 141.301 29.582C141.051 29.2656 140.762 28.9844 140.441 28.7422C140.121 28.4961 139.773 28.2891 139.402 28.1289C139.027 27.9726 138.633 27.8555 138.207 27.832C138.137 27.8281 138.066 27.8476 138.008 27.8906C137.871 27.9922 137.844 28.1836 137.941 28.3203L137.945 28.3242C138.191 28.6562 138.457 28.9219 138.723 29.1758C138.988 29.4297 139.258 29.6641 139.539 29.8906C139.816 30.1172 140.105 30.3281 140.406 30.5351C140.711 30.7344 141.023 30.9336 141.398 31.0937L141.406 31.0976ZM129.383 25.3008L129.395 25.3047C129.695 25.4492 129.965 25.5351 130.227 25.6133C130.488 25.6875 130.746 25.7461 131 25.793C131.258 25.8437 131.512 25.8789 131.781 25.9062C132.051 25.9258 132.328 25.9453 132.656 25.9101L132.676 25.9062C132.734 25.9023 132.797 25.8789 132.852 25.8398C133.023 25.7226 133.066 25.4883 132.945 25.3164C132.742 25.0234 132.473 24.8164 132.18 24.6601C131.891 24.5078 131.57 24.4023 131.246 24.3555C130.922 24.3047 130.586 24.3047 130.262 24.3633C129.937 24.4258 129.613 24.5351 129.328 24.75C129.289 24.7812 129.258 24.8203 129.234 24.8672C129.156 25.0273 129.223 25.2226 129.383 25.3008ZM72.6523 54.1992C72.418 54.0391 72.207 53.9492 72 53.8711C71.793 53.7969 71.5937 53.7461 71.3867 53.7109C71.1836 53.6719 70.9766 53.6484 70.75 53.6445C70.5273 53.6406 70.293 53.6484 70.0117 53.7109L69.9922 53.7148C69.9609 53.7187 69.9336 53.7305 69.9023 53.7461C69.7344 53.8359 69.6719 54.043 69.7617 54.207C69.9062 54.4805 70.1172 54.6719 70.3438 54.8242C70.5742 54.9766 70.8281 55.0781 71.0938 55.1367C71.3594 55.1992 71.6328 55.2148 71.9023 55.1758C72.1758 55.1328 72.4453 55.0469 72.6875 54.8594C72.7188 54.8359 72.75 54.8047 72.7734 54.7695C72.8984 54.5898 72.8555 54.3398 72.6719 54.2148L72.6523 54.1992ZM65.9258 57.0156C65.6563 56.875 65.375 56.7656 65.0859 56.6875C64.8008 56.6094 64.5039 56.5547 64.1992 56.5351C63.8906 56.5156 63.5781 56.5234 63.2383 56.6094C63.1875 56.6211 63.1406 56.6484 63.1016 56.6836C62.9688 56.8047 62.957 57.0117 63.0781 57.1445C63.3164 57.4023 63.5742 57.5781 63.8398 57.7305C64.1094 57.8789 64.3867 57.9961 64.668 58.0859C64.9531 58.1797 65.25 58.2383 65.5508 58.2695C65.8555 58.2969 66.168 58.2969 66.5039 58.2148C66.5664 58.1992 66.625 58.168 66.6758 58.1211C66.8281 57.9766 66.8359 57.7344 66.6914 57.582C66.457 57.3281 66.1914 57.1601 65.9258 57.0156ZM65.5781 73.1328C65.3711 72.9062 65.1562 72.7578 64.9336 72.6289C64.7148 72.5039 64.4883 72.4023 64.2539 72.3281C64.0195 72.2539 63.7773 72.1953 63.5234 72.1641C63.2656 72.1367 63 72.125 62.6953 72.1797H62.6875C62.6484 72.1875 62.6094 72.1992 62.5742 72.2226C62.4141 72.3164 62.3633 72.5234 62.457 72.6836C62.6172 72.957 62.8242 73.1523 63.0508 73.3203C63.2734 73.4844 63.5156 73.6133 63.7695 73.707C64.0234 73.8008 64.293 73.8633 64.5664 73.8828C64.8438 73.8984 65.125 73.8828 65.4258 73.7734C65.4727 73.7578 65.5156 73.7305 65.5547 73.6992C65.7187 73.5508 65.7305 73.3008 65.5859 73.1367L65.5781 73.1328ZM71.0156 50.1641C71.0781 50.1523 71.1406 50.125 71.1992 50.082C71.3633 49.9531 71.3906 49.7109 71.2578 49.5469C71.0391 49.2773 70.793 49.0859 70.5352 48.918C70.2734 48.7539 70.0039 48.6211 69.7227 48.5156C69.4375 48.4141 69.1445 48.332 68.8398 48.2851C68.5352 48.2422 68.2227 48.2187 67.875 48.2773C67.8242 48.2851 67.7734 48.3086 67.7305 48.3437C67.5859 48.4492 67.5625 48.6562 67.6719 48.7969C67.8867 49.0742 68.1328 49.2734 68.3867 49.4492C68.6406 49.6211 68.9102 49.7617 69.1875 49.875C69.4648 49.9922 69.7539 50.0781 70.0547 50.1328C70.3594 50.1875 70.6719 50.2148 71.0156 50.1641ZM57.5742 51.8906C57.3633 51.6211 57.1367 51.4219 56.9102 51.2344C56.6836 51.0508 56.4531 50.8867 56.2148 50.7344C55.9766 50.582 55.7266 50.4414 55.4648 50.3086C55.1953 50.1758 54.9219 50.0508 54.582 49.9609L54.5742 49.957C54.5195 49.9414 54.4648 49.9414 54.4102 49.957C54.2383 50 54.1367 50.1758 54.1797 50.3476C54.2734 50.7031 54.4531 51 54.6641 51.2656C54.875 51.5273 55.125 51.7578 55.4023 51.9492C55.6797 52.1406 55.9844 52.293 56.3047 52.3945C56.6289 52.4922 56.9688 52.5508 57.332 52.5078C57.3984 52.5 57.4648 52.4726 57.5234 52.4297C57.6836 52.3008 57.7109 52.0625 57.582 51.9023L57.5742 51.8906ZM63.8516 51.7578C64 51.6211 64.0078 51.3945 63.8711 51.2461L63.8672 51.2422C63.582 50.9414 63.2734 50.7109 62.957 50.4961C62.6406 50.2891 62.3203 50.1016 61.9844 49.9336C61.6484 49.7656 61.3086 49.6172 60.9492 49.4844C60.5898 49.3555 60.2227 49.2422 59.8047 49.1875L59.8008 49.1836C59.7305 49.1758 59.6602 49.1875 59.5938 49.2305C59.4531 49.3203 59.4102 49.5117 59.5 49.6523C59.7305 50.0156 60.0156 50.3047 60.3203 50.5625C60.625 50.8203 60.9609 51.043 61.3086 51.2305C61.6562 51.418 62.0234 51.5703 62.4062 51.6836C62.793 51.793 63.1914 51.8711 63.6172 51.8555C63.7031 51.8516 63.7891 51.8203 63.8516 51.7578ZM55.1172 45.5117C55.418 45.6719 55.7461 45.7969 56.1133 45.8242C56.1797 45.8281 56.25 45.8125 56.3164 45.7812C56.5 45.6836 56.5703 45.457 56.4727 45.2734L56.4648 45.2617C56.3047 44.957 56.1211 44.7187 55.9336 44.4883C55.7422 44.2656 55.5469 44.0586 55.3398 43.8594C55.1328 43.6641 54.9141 43.4766 54.6797 43.293C54.4414 43.1094 54.1953 42.9336 53.8789 42.7773L53.8711 42.7695C53.8242 42.7461 53.7695 42.7344 53.7109 42.7383C53.5312 42.75 53.3984 42.9023 53.4102 43.0781C53.4336 43.4453 53.5508 43.7734 53.7109 44.0781C53.8672 44.3789 54.0742 44.6562 54.3086 44.8984C54.5469 45.1406 54.8203 45.3476 55.1172 45.5117ZM43.8242 30.2773C43.6484 30.2031 43.4492 30.2851 43.375 30.457C43.1016 31.0859 42.9063 31.7226 42.7266 32.3633C42.543 33 42.3906 33.6406 42.25 34.2851C42.1133 34.9297 41.9844 35.5781 41.8867 36.2344C41.7852 36.8906 41.6953 37.5547 41.6758 38.2422C41.6758 38.3398 41.7227 38.4414 41.8164 38.4961C41.9492 38.5781 42.1289 38.5351 42.2148 38.4023C42.5781 37.8086 42.8555 37.1875 43.0898 36.5508C43.332 35.9141 43.5234 35.2656 43.6758 34.6055C43.8281 33.9453 43.9453 33.2773 44.0078 32.6016C44.0781 31.9258 44.1016 31.2461 44.0312 30.5547C44.0156 30.4375 43.9414 30.3281 43.8242 30.2773ZM59.5977 42.7891C59.3281 42.4648 59.0742 42.1172 58.8984 41.6914C58.8242 41.5117 58.9102 41.3047 59.0938 41.2266C59.1836 41.1914 59.2773 41.1914 59.3594 41.2266L59.375 41.2305C59.7734 41.3867 60.125 41.5898 60.4688 41.8086C60.8047 42.0351 61.1289 42.2734 61.4336 42.5391C61.7383 42.8008 62.0312 43.0781 62.3047 43.3789C62.5781 43.6797 62.8398 43.9961 63.0625 44.3672L63.0703 44.3789C63.1563 44.5195 63.1094 44.707 62.9688 44.793C62.8984 44.832 62.8242 44.8437 62.75 44.832C62.3008 44.7422 61.9063 44.5625 61.5352 44.3633C61.1641 44.1562 60.8203 43.9219 60.4961 43.6601C60.1719 43.3984 59.875 43.1094 59.5977 42.7891Z" fill="#FABFAB"/>
<path d="M128.938 81.8633C126.711 82.1641 127.172 78.0469 127.172 78.0469C125.555 79.3203 122.176 79.5625 122.176 79.5625C122.176 79.5625 122.141 83.6719 119.824 83.4766C117.406 83.2773 118.152 79.1758 118.152 79.1758C116.141 79.4688 114.188 78.3906 114.188 78.3906C114.188 78.3906 114.121 82.7344 112.18 82.0586C109.934 81.2773 110.711 76.3828 110.711 76.3828C108.539 74.4961 107.582 72.7773 106.953 71.1133C106.953 71.1133 124.969 68.8398 130.746 71.6875C132.332 72.4727 131.641 81.4961 128.938 81.8633ZM34.3828 53.1289C34.2813 53.4844 34.1484 53.8281 33.9922 54.1523C33.8359 54.4805 33.6484 54.7969 33.4336 55.0938C33.2187 55.3945 32.9766 55.6797 32.6562 55.9297C32.4961 56.0547 32.2656 56.0234 32.1445 55.8633C32.0898 55.7969 32.0625 55.7148 32.0664 55.6328C32.0742 55.2305 32.1562 54.8672 32.2656 54.5117C32.375 54.1602 32.5156 53.8242 32.6836 53.5039C32.8516 53.1797 33.043 52.8711 33.2656 52.5742C33.4922 52.2812 33.7383 51.9961 34.0625 51.75C34.1992 51.6484 34.3945 51.6758 34.5 51.8125C34.543 51.8672 34.5625 51.9336 34.5625 52C34.5625 52.4062 34.4844 52.7734 34.3828 53.1289ZM25.1016 55.3242C25.0977 55.4961 24.957 55.6289 24.7852 55.625C24.7148 55.6211 24.6523 55.5977 24.6016 55.5547C24.2695 55.2891 24.0391 54.9609 23.8477 54.6328C23.6523 54.3047 23.5 53.9648 23.3789 53.6211C23.2578 53.2773 23.1641 52.9297 23.0977 52.5742C23.0313 52.2227 22.9883 51.8711 22.9961 51.4883V51.4648C23 51.2656 23.1641 51.1055 23.3633 51.1094C23.4492 51.1094 23.5273 51.1406 23.5859 51.1914C23.918 51.4688 24.1367 51.7969 24.3242 52.1289C24.5078 52.4609 24.6523 52.8047 24.7617 53.1484C24.875 53.4961 24.9609 53.8477 25.0195 54.2031C25.0781 54.5625 25.1094 54.918 25.1016 55.3086V55.3242ZM33.9609 46.9961H23.6328C21.0586 46.9961 18.9727 49.0781 18.9727 51.6484V55.3047C18.9727 57.875 21.0586 59.957 23.6328 59.957H33.9609C36.5312 59.957 38.6172 57.875 38.6172 55.3047V51.6484C38.6172 49.0781 36.5312 46.9961 33.9609 46.9961Z" fill="#F35DB3"/>
<path d="M138.816 120.387C139.242 121.555 142.492 117.707 143.004 117.707C143.586 117.711 145.785 121.867 146.586 121.367C146.945 121.145 147.031 112.496 147.031 112.496H138.816C138.816 112.496 138.715 120.102 138.816 120.387ZM119.914 120.387C120.34 121.555 123.586 117.707 124.098 117.707C124.684 117.711 126.883 121.867 127.684 121.367C128.043 121.145 128.129 112.496 128.129 112.496H119.914C119.914 112.496 119.809 120.102 119.914 120.387ZM72.5156 120.387C72.9375 121.555 76.1875 117.707 76.6992 117.707C77.2812 117.711 79.4805 121.867 80.2852 121.367C80.6406 121.145 80.7266 112.496 80.7266 112.496H72.5156C72.5156 112.496 72.4102 120.102 72.5156 120.387ZM25.0117 22.7656C24.7852 22.7031 24.5508 22.8359 24.4883 23.0625L24.4766 23.1133C24.3047 23.75 24.1289 24.4102 23.8789 24.8516C23.7578 25.0781 23.6172 25.2031 23.5195 25.25C23.418 25.293 23.332 25.3359 23.1133 25.3047C23.0195 25.3125 22.8945 25.2734 22.7695 25.25C22.6445 25.2305 22.5469 25.1797 22.4336 25.1484C22.2266 25.0625 22.0469 24.9492 21.875 24.7891C21.5234 24.4766 21.2578 23.8945 21.0703 23.2891L21.0547 23.2305C21.0234 23.1289 20.9453 23.0391 20.8359 23C20.6484 22.9336 20.4453 23.0312 20.3789 23.2148C20.2266 23.6211 20.1914 24.0117 20.2148 24.4375C20.2422 24.8555 20.3633 25.2969 20.6055 25.7031C20.8477 26.1055 21.207 26.4648 21.625 26.6992C21.7266 26.7656 21.8359 26.8086 21.9414 26.8555C22.0469 26.9023 22.1562 26.9531 22.2656 26.9805C22.4844 27.043 22.6953 27.1055 22.957 27.1211C23.082 27.1289 23.1992 27.1484 23.3359 27.1367C23.4766 27.1211 23.6133 27.1016 23.75 27.082C23.8867 27.0625 24.0312 26.9883 24.168 26.9375C24.3047 26.8828 24.4297 26.8047 24.5469 26.7148C25.0195 26.3594 25.2891 25.8672 25.4062 25.4414C25.6367 24.5625 25.5625 23.793 25.3008 23.0352C25.2578 22.9102 25.1484 22.8047 25.0117 22.7656ZM38.0859 26.3438C38.2227 26.293 38.3477 26.2109 38.4648 26.1211C38.9414 25.7656 39.207 25.2734 39.3242 24.8477C39.5547 23.9688 39.4805 23.1992 39.2188 22.4453C39.1758 22.3164 39.0703 22.2109 38.9297 22.1719C38.7031 22.1094 38.4688 22.2461 38.4062 22.4727L38.3945 22.5195C38.2227 23.1563 38.0469 23.8164 37.7969 24.2578C37.6758 24.4844 37.5352 24.6094 37.4375 24.6562C37.3359 24.6992 37.25 24.7422 37.0312 24.7109C36.9414 24.7187 36.8125 24.6797 36.6914 24.6602C36.5625 24.6406 36.4648 24.5898 36.3516 24.5547C36.1445 24.4687 35.9648 24.3555 35.793 24.1953C35.4414 23.8828 35.1758 23.3008 34.9922 22.6953L34.9727 22.6367C34.9414 22.5352 34.8633 22.4492 34.7539 22.4062C34.5664 22.3398 34.3633 22.4375 34.2969 22.6211C34.1484 23.0312 34.1094 23.418 34.1328 23.8438C34.1602 24.2656 34.2852 24.707 34.5273 25.1094C34.7656 25.5117 35.125 25.8711 35.543 26.1094C35.6445 26.1719 35.7539 26.2109 35.8594 26.2617C35.9688 26.3086 36.0781 26.3594 36.1836 26.3867C36.4023 26.4492 36.6133 26.5117 36.875 26.5273C37.0039 26.5352 37.1211 26.5547 37.2578 26.543C37.3945 26.5312 37.5352 26.5117 37.6719 26.4883C37.8086 26.4688 37.9492 26.3945 38.0859 26.3438ZM56.8594 120.387C57.2812 121.555 60.5312 117.707 61.043 117.707C61.625 117.711 63.8242 121.867 64.625 121.367C64.9844 121.145 65.0703 112.496 65.0703 112.496H56.8594C56.8594 112.496 56.7539 120.102 56.8594 120.387ZM26.4727 24.6523C26.4727 22.6328 24.832 20.9961 22.8086 20.9961C20.7852 20.9961 19.1484 22.6328 19.1484 24.6523C19.1484 26.6719 20.7852 28.3086 22.8086 28.3086C24.832 28.3086 26.4727 26.6719 26.4727 24.6523ZM25.7266 28.8555C23.5195 30.7617 20.875 32.5977 22.3438 35.4609C23.7266 38.1484 25.418 38.6367 18.9688 43.3789C15.9141 37.6992 13.3164 29.8477 12.8906 22.9414C14.9922 22.0586 17.0391 21.168 18.0078 20.6367C20.4336 19.3164 24.0352 17.8477 27.2695 20.6367C30.5 23.4258 27.9297 26.9492 25.7266 28.8555ZM59.0781 11.1719C49.9727 6.26953 45.4648 10.1914 43.7891 12.4258C44.9688 16.332 44.9922 17.1641 45.2539 19.3594C58.0977 24.2969 59.0781 11.1719 59.0781 11.1719ZM40.9023 9.16406C40.9023 4.02734 37.6211 4.61719 37.6211 4.61719C37.6211 4.61719 37.5195 0.0664062 30.0234 0.0664062C22.5312 0.0664062 22.4297 4.61719 22.4297 4.61719C22.4297 4.61719 19.1484 4.02734 19.1484 9.16406C19.1484 14.3008 25.6133 13.7109 25.6133 13.7109C27.1836 16.3516 32.8672 16.3516 34.4336 13.7109C34.4336 13.7109 40.9023 14.3008 40.9023 9.16406ZM57.6953 57.6484C52.4023 55.1992 48.7773 51.4805 45.8789 45.0234C44.8125 42.6445 42.9297 41.2656 40.9766 40.4688C40.0273 43.2656 37.6094 48.7266 37.543 48.6758C41.4609 58.4102 42.9102 61.5859 54.9492 70.168C56.6016 70.9727 58.1562 71.2891 59.4648 72.0742C60.3984 66.875 61.1211 59.2305 57.6953 57.6484ZM126.578 16.3438C118.039 17.0195 109.012 16.4922 100.574 16.6133C88.5547 16.7852 76.8828 15.8594 64.9297 14.9531C64.2344 14.9023 63.5273 14.8516 62.8125 14.8008C62.1172 18.4063 60.9883 23.5781 59.5312 27.6797C57.0352 34.7266 64.9727 45.293 80.5508 47.4961C96.1328 49.6953 104.953 46.1758 107.082 37.6602C109.215 29.1484 110.906 22.25 119.578 20.5625C122.621 19.9727 124.898 18.2852 126.578 16.3438ZM144.711 48.668C143.391 44.5586 135.305 40.1563 130.969 44.8516C126.633 49.5508 135.305 54.9805 135.16 60.8516C135.012 66.7227 136.48 68.043 142.289 72.7383C145.277 75.1563 147.387 78.4805 148.73 80.625C148.734 80.6016 148.738 80.582 148.742 80.5586C149.445 75.3242 152.316 65.8711 153.898 59.5469C151.504 57.4023 145.793 52.0273 144.711 48.668ZM141.855 15.1094C140.512 16.9531 139.594 18.9219 140.254 22.7148C141.141 27.8086 152.902 34.8945 157.633 38.7344C157.605 34.6094 157.242 30.5781 155.273 26.4609C151.297 18.1484 147.316 15.5234 141.855 15.1094ZM171.168 72.8398C168.645 68.9648 166.168 67.6523 163.277 70.3438C160.387 73.0352 162.367 77.5781 165.508 78.8555C167.555 79.6875 174.059 80.2266 177.391 76.4102C177.391 76.4102 173.398 76.2656 171.168 72.8398ZM15.4492 11.9297C13.9492 14.3711 13.082 17.1016 12.8086 19.4727C1.13672 20.5 0.589844 10.3633 0.589844 10.3633C9.21875 4.21875 13.6758 8.94531 15.4492 11.9297Z" fill="#423C3C"/>
</svg>
